G75*
G70*
%OFA0B0*%
%FSLAX24Y24*%
%IPPOS*%
%LPD*%
%AMOC8*
5,1,8,0,0,1.08239X$1,22.5*
%
%ADD10C,0.0000*%
%ADD11C,0.1497*%
%ADD12C,0.1458*%
%ADD13C,0.0710*%
%ADD14R,0.0480X0.1330*%
%ADD15R,0.4080X0.4080*%
%ADD16R,0.0946X0.0316*%
%ADD17R,0.0474X0.0513*%
%ADD18R,0.0552X0.0434*%
%ADD19R,0.0631X0.0395*%
%ADD20R,0.0907X0.0907*%
%ADD21R,0.0513X0.0474*%
%ADD22C,0.0730*%
%ADD23O,0.0674X0.1267*%
%ADD24C,0.0966*%
%ADD25C,0.1261*%
%ADD26C,0.0555*%
D10*
X001048Y001119D02*
X001048Y016867D01*
X020733Y016867D01*
X020733Y001119D01*
X001048Y001119D01*
X001599Y002379D02*
X001602Y002443D01*
X001611Y002507D01*
X001625Y002570D01*
X001646Y002632D01*
X001671Y002691D01*
X001702Y002747D01*
X001738Y002801D01*
X001779Y002851D01*
X001824Y002897D01*
X001873Y002939D01*
X001926Y002976D01*
X001982Y003009D01*
X002040Y003036D01*
X002101Y003057D01*
X002164Y003073D01*
X002227Y003083D01*
X002292Y003088D01*
X002356Y003086D01*
X002421Y003079D01*
X002484Y003066D01*
X002545Y003047D01*
X002605Y003023D01*
X002662Y002993D01*
X002717Y002958D01*
X002768Y002919D01*
X002815Y002875D01*
X002858Y002826D01*
X002896Y002775D01*
X002930Y002719D01*
X002958Y002661D01*
X002981Y002601D01*
X002999Y002539D01*
X003010Y002476D01*
X003016Y002411D01*
X003016Y002347D01*
X003010Y002282D01*
X002999Y002219D01*
X002981Y002157D01*
X002958Y002097D01*
X002930Y002039D01*
X002896Y001983D01*
X002858Y001932D01*
X002815Y001883D01*
X002768Y001839D01*
X002717Y001800D01*
X002663Y001765D01*
X002605Y001735D01*
X002545Y001711D01*
X002484Y001692D01*
X002421Y001679D01*
X002356Y001672D01*
X002292Y001670D01*
X002227Y001675D01*
X002164Y001685D01*
X002101Y001701D01*
X002040Y001722D01*
X001982Y001749D01*
X001926Y001782D01*
X001873Y001819D01*
X001824Y001861D01*
X001779Y001907D01*
X001738Y001957D01*
X001702Y002011D01*
X001671Y002067D01*
X001646Y002126D01*
X001625Y002188D01*
X001611Y002251D01*
X001602Y002315D01*
X001599Y002379D01*
X001936Y006444D02*
X001939Y006507D01*
X001947Y006569D01*
X001962Y006630D01*
X001981Y006689D01*
X002006Y006747D01*
X002036Y006802D01*
X002071Y006854D01*
X002111Y006903D01*
X002155Y006948D01*
X002202Y006988D01*
X002254Y007024D01*
X002308Y007056D01*
X002365Y007082D01*
X002424Y007103D01*
X002485Y007119D01*
X002547Y007129D01*
X002609Y007133D01*
X002672Y007131D01*
X002734Y007124D01*
X002796Y007112D01*
X002856Y007093D01*
X002914Y007070D01*
X002969Y007041D01*
X003022Y007007D01*
X003072Y006968D01*
X003118Y006926D01*
X003159Y006879D01*
X003197Y006828D01*
X003229Y006775D01*
X003257Y006718D01*
X003279Y006660D01*
X003296Y006600D01*
X003308Y006538D01*
X003313Y006475D01*
X003313Y006413D01*
X003308Y006350D01*
X003296Y006288D01*
X003279Y006228D01*
X003257Y006170D01*
X003229Y006113D01*
X003197Y006060D01*
X003159Y006009D01*
X003118Y005962D01*
X003072Y005920D01*
X003022Y005881D01*
X002970Y005847D01*
X002914Y005818D01*
X002856Y005795D01*
X002796Y005776D01*
X002734Y005764D01*
X002672Y005757D01*
X002609Y005755D01*
X002547Y005759D01*
X002485Y005769D01*
X002424Y005785D01*
X002365Y005806D01*
X002308Y005832D01*
X002254Y005864D01*
X002202Y005900D01*
X002155Y005940D01*
X002111Y005985D01*
X002071Y006034D01*
X002036Y006086D01*
X002006Y006141D01*
X001981Y006199D01*
X001962Y006258D01*
X001947Y006319D01*
X001939Y006381D01*
X001936Y006444D01*
X001922Y008568D02*
X001925Y008631D01*
X001933Y008693D01*
X001948Y008754D01*
X001967Y008813D01*
X001992Y008871D01*
X002022Y008926D01*
X002057Y008978D01*
X002097Y009027D01*
X002141Y009072D01*
X002188Y009112D01*
X002240Y009148D01*
X002294Y009180D01*
X002351Y009206D01*
X002410Y009227D01*
X002471Y009243D01*
X002533Y009253D01*
X002595Y009257D01*
X002658Y009255D01*
X002720Y009248D01*
X002782Y009236D01*
X002842Y009217D01*
X002900Y009194D01*
X002955Y009165D01*
X003008Y009131D01*
X003058Y009092D01*
X003104Y009050D01*
X003145Y009003D01*
X003183Y008952D01*
X003215Y008899D01*
X003243Y008842D01*
X003265Y008784D01*
X003282Y008724D01*
X003294Y008662D01*
X003299Y008599D01*
X003299Y008537D01*
X003294Y008474D01*
X003282Y008412D01*
X003265Y008352D01*
X003243Y008294D01*
X003215Y008237D01*
X003183Y008184D01*
X003145Y008133D01*
X003104Y008086D01*
X003058Y008044D01*
X003008Y008005D01*
X002956Y007971D01*
X002900Y007942D01*
X002842Y007919D01*
X002782Y007900D01*
X002720Y007888D01*
X002658Y007881D01*
X002595Y007879D01*
X002533Y007883D01*
X002471Y007893D01*
X002410Y007909D01*
X002351Y007930D01*
X002294Y007956D01*
X002240Y007988D01*
X002188Y008024D01*
X002141Y008064D01*
X002097Y008109D01*
X002057Y008158D01*
X002022Y008210D01*
X001992Y008265D01*
X001967Y008323D01*
X001948Y008382D01*
X001933Y008443D01*
X001925Y008505D01*
X001922Y008568D01*
X001599Y015607D02*
X001602Y015671D01*
X001611Y015735D01*
X001625Y015798D01*
X001646Y015860D01*
X001671Y015919D01*
X001702Y015975D01*
X001738Y016029D01*
X001779Y016079D01*
X001824Y016125D01*
X001873Y016167D01*
X001926Y016204D01*
X001982Y016237D01*
X002040Y016264D01*
X002101Y016285D01*
X002164Y016301D01*
X002227Y016311D01*
X002292Y016316D01*
X002356Y016314D01*
X002421Y016307D01*
X002484Y016294D01*
X002545Y016275D01*
X002605Y016251D01*
X002662Y016221D01*
X002717Y016186D01*
X002768Y016147D01*
X002815Y016103D01*
X002858Y016054D01*
X002896Y016003D01*
X002930Y015947D01*
X002958Y015889D01*
X002981Y015829D01*
X002999Y015767D01*
X003010Y015704D01*
X003016Y015639D01*
X003016Y015575D01*
X003010Y015510D01*
X002999Y015447D01*
X002981Y015385D01*
X002958Y015325D01*
X002930Y015267D01*
X002896Y015211D01*
X002858Y015160D01*
X002815Y015111D01*
X002768Y015067D01*
X002717Y015028D01*
X002663Y014993D01*
X002605Y014963D01*
X002545Y014939D01*
X002484Y014920D01*
X002421Y014907D01*
X002356Y014900D01*
X002292Y014898D01*
X002227Y014903D01*
X002164Y014913D01*
X002101Y014929D01*
X002040Y014950D01*
X001982Y014977D01*
X001926Y015010D01*
X001873Y015047D01*
X001824Y015089D01*
X001779Y015135D01*
X001738Y015185D01*
X001702Y015239D01*
X001671Y015295D01*
X001646Y015354D01*
X001625Y015416D01*
X001611Y015479D01*
X001602Y015543D01*
X001599Y015607D01*
X005343Y016123D02*
X005345Y016159D01*
X005351Y016194D01*
X005361Y016229D01*
X005375Y016262D01*
X005393Y016293D01*
X005414Y016322D01*
X005438Y016349D01*
X005466Y016372D01*
X005495Y016393D01*
X005527Y016410D01*
X005561Y016423D01*
X005595Y016432D01*
X005631Y016437D01*
X005667Y016438D01*
X005703Y016435D01*
X005738Y016428D01*
X005772Y016417D01*
X005805Y016402D01*
X005836Y016383D01*
X005864Y016361D01*
X005890Y016336D01*
X005913Y016308D01*
X005932Y016278D01*
X005948Y016246D01*
X005960Y016212D01*
X005968Y016177D01*
X005972Y016141D01*
X005972Y016105D01*
X005968Y016069D01*
X005960Y016034D01*
X005948Y016000D01*
X005932Y015968D01*
X005913Y015938D01*
X005890Y015910D01*
X005864Y015885D01*
X005836Y015863D01*
X005805Y015844D01*
X005772Y015829D01*
X005738Y015818D01*
X005703Y015811D01*
X005667Y015808D01*
X005631Y015809D01*
X005595Y015814D01*
X005561Y015823D01*
X005527Y015836D01*
X005495Y015853D01*
X005466Y015874D01*
X005438Y015897D01*
X005414Y015924D01*
X005393Y015953D01*
X005375Y015984D01*
X005361Y016017D01*
X005351Y016052D01*
X005345Y016087D01*
X005343Y016123D01*
X006368Y016136D02*
X006370Y016172D01*
X006376Y016207D01*
X006386Y016242D01*
X006400Y016275D01*
X006418Y016306D01*
X006439Y016335D01*
X006463Y016362D01*
X006491Y016385D01*
X006520Y016406D01*
X006552Y016423D01*
X006586Y016436D01*
X006620Y016445D01*
X006656Y016450D01*
X006692Y016451D01*
X006728Y016448D01*
X006763Y016441D01*
X006797Y016430D01*
X006830Y016415D01*
X006861Y016396D01*
X006889Y016374D01*
X006915Y016349D01*
X006938Y016321D01*
X006957Y016291D01*
X006973Y016259D01*
X006985Y016225D01*
X006993Y016190D01*
X006997Y016154D01*
X006997Y016118D01*
X006993Y016082D01*
X006985Y016047D01*
X006973Y016013D01*
X006957Y015981D01*
X006938Y015951D01*
X006915Y015923D01*
X006889Y015898D01*
X006861Y015876D01*
X006830Y015857D01*
X006797Y015842D01*
X006763Y015831D01*
X006728Y015824D01*
X006692Y015821D01*
X006656Y015822D01*
X006620Y015827D01*
X006586Y015836D01*
X006552Y015849D01*
X006520Y015866D01*
X006491Y015887D01*
X006463Y015910D01*
X006439Y015937D01*
X006418Y015966D01*
X006400Y015997D01*
X006386Y016030D01*
X006376Y016065D01*
X006370Y016100D01*
X006368Y016136D01*
X007394Y016138D02*
X007396Y016174D01*
X007402Y016209D01*
X007412Y016244D01*
X007426Y016277D01*
X007444Y016308D01*
X007465Y016337D01*
X007489Y016364D01*
X007517Y016387D01*
X007546Y016408D01*
X007578Y016425D01*
X007612Y016438D01*
X007646Y016447D01*
X007682Y016452D01*
X007718Y016453D01*
X007754Y016450D01*
X007789Y016443D01*
X007823Y016432D01*
X007856Y016417D01*
X007887Y016398D01*
X007915Y016376D01*
X007941Y016351D01*
X007964Y016323D01*
X007983Y016293D01*
X007999Y016261D01*
X008011Y016227D01*
X008019Y016192D01*
X008023Y016156D01*
X008023Y016120D01*
X008019Y016084D01*
X008011Y016049D01*
X007999Y016015D01*
X007983Y015983D01*
X007964Y015953D01*
X007941Y015925D01*
X007915Y015900D01*
X007887Y015878D01*
X007856Y015859D01*
X007823Y015844D01*
X007789Y015833D01*
X007754Y015826D01*
X007718Y015823D01*
X007682Y015824D01*
X007646Y015829D01*
X007612Y015838D01*
X007578Y015851D01*
X007546Y015868D01*
X007517Y015889D01*
X007489Y015912D01*
X007465Y015939D01*
X007444Y015968D01*
X007426Y015999D01*
X007412Y016032D01*
X007402Y016067D01*
X007396Y016102D01*
X007394Y016138D01*
X018764Y015607D02*
X018767Y015671D01*
X018776Y015735D01*
X018790Y015798D01*
X018811Y015860D01*
X018836Y015919D01*
X018867Y015975D01*
X018903Y016029D01*
X018944Y016079D01*
X018989Y016125D01*
X019038Y016167D01*
X019091Y016204D01*
X019147Y016237D01*
X019205Y016264D01*
X019266Y016285D01*
X019329Y016301D01*
X019392Y016311D01*
X019457Y016316D01*
X019521Y016314D01*
X019586Y016307D01*
X019649Y016294D01*
X019710Y016275D01*
X019770Y016251D01*
X019827Y016221D01*
X019882Y016186D01*
X019933Y016147D01*
X019980Y016103D01*
X020023Y016054D01*
X020061Y016003D01*
X020095Y015947D01*
X020123Y015889D01*
X020146Y015829D01*
X020164Y015767D01*
X020175Y015704D01*
X020181Y015639D01*
X020181Y015575D01*
X020175Y015510D01*
X020164Y015447D01*
X020146Y015385D01*
X020123Y015325D01*
X020095Y015267D01*
X020061Y015211D01*
X020023Y015160D01*
X019980Y015111D01*
X019933Y015067D01*
X019882Y015028D01*
X019828Y014993D01*
X019770Y014963D01*
X019710Y014939D01*
X019649Y014920D01*
X019586Y014907D01*
X019521Y014900D01*
X019457Y014898D01*
X019392Y014903D01*
X019329Y014913D01*
X019266Y014929D01*
X019205Y014950D01*
X019147Y014977D01*
X019091Y015010D01*
X019038Y015047D01*
X018989Y015089D01*
X018944Y015135D01*
X018903Y015185D01*
X018867Y015239D01*
X018836Y015295D01*
X018811Y015354D01*
X018790Y015416D01*
X018776Y015479D01*
X018767Y015543D01*
X018764Y015607D01*
X016271Y003167D02*
X016274Y003230D01*
X016282Y003292D01*
X016297Y003353D01*
X016316Y003412D01*
X016341Y003470D01*
X016371Y003525D01*
X016406Y003577D01*
X016446Y003626D01*
X016490Y003671D01*
X016537Y003711D01*
X016589Y003747D01*
X016643Y003779D01*
X016700Y003805D01*
X016759Y003826D01*
X016820Y003842D01*
X016882Y003852D01*
X016944Y003856D01*
X017007Y003854D01*
X017069Y003847D01*
X017131Y003835D01*
X017191Y003816D01*
X017249Y003793D01*
X017304Y003764D01*
X017357Y003730D01*
X017407Y003691D01*
X017453Y003649D01*
X017494Y003602D01*
X017532Y003551D01*
X017564Y003498D01*
X017592Y003441D01*
X017614Y003383D01*
X017631Y003323D01*
X017643Y003261D01*
X017648Y003198D01*
X017648Y003136D01*
X017643Y003073D01*
X017631Y003011D01*
X017614Y002951D01*
X017592Y002893D01*
X017564Y002836D01*
X017532Y002783D01*
X017494Y002732D01*
X017453Y002685D01*
X017407Y002643D01*
X017357Y002604D01*
X017305Y002570D01*
X017249Y002541D01*
X017191Y002518D01*
X017131Y002499D01*
X017069Y002487D01*
X017007Y002480D01*
X016944Y002478D01*
X016882Y002482D01*
X016820Y002492D01*
X016759Y002508D01*
X016700Y002529D01*
X016643Y002555D01*
X016589Y002587D01*
X016537Y002623D01*
X016490Y002663D01*
X016446Y002708D01*
X016406Y002757D01*
X016371Y002809D01*
X016341Y002864D01*
X016316Y002922D01*
X016297Y002981D01*
X016282Y003042D01*
X016274Y003104D01*
X016271Y003167D01*
X013950Y003212D02*
X013953Y003275D01*
X013961Y003337D01*
X013976Y003398D01*
X013995Y003457D01*
X014020Y003515D01*
X014050Y003570D01*
X014085Y003622D01*
X014125Y003671D01*
X014169Y003716D01*
X014216Y003756D01*
X014268Y003792D01*
X014322Y003824D01*
X014379Y003850D01*
X014438Y003871D01*
X014499Y003887D01*
X014561Y003897D01*
X014623Y003901D01*
X014686Y003899D01*
X014748Y003892D01*
X014810Y003880D01*
X014870Y003861D01*
X014928Y003838D01*
X014983Y003809D01*
X015036Y003775D01*
X015086Y003736D01*
X015132Y003694D01*
X015173Y003647D01*
X015211Y003596D01*
X015243Y003543D01*
X015271Y003486D01*
X015293Y003428D01*
X015310Y003368D01*
X015322Y003306D01*
X015327Y003243D01*
X015327Y003181D01*
X015322Y003118D01*
X015310Y003056D01*
X015293Y002996D01*
X015271Y002938D01*
X015243Y002881D01*
X015211Y002828D01*
X015173Y002777D01*
X015132Y002730D01*
X015086Y002688D01*
X015036Y002649D01*
X014984Y002615D01*
X014928Y002586D01*
X014870Y002563D01*
X014810Y002544D01*
X014748Y002532D01*
X014686Y002525D01*
X014623Y002523D01*
X014561Y002527D01*
X014499Y002537D01*
X014438Y002553D01*
X014379Y002574D01*
X014322Y002600D01*
X014268Y002632D01*
X014216Y002668D01*
X014169Y002708D01*
X014125Y002753D01*
X014085Y002802D01*
X014050Y002854D01*
X014020Y002909D01*
X013995Y002967D01*
X013976Y003026D01*
X013961Y003087D01*
X013953Y003149D01*
X013950Y003212D01*
X018764Y002379D02*
X018767Y002443D01*
X018776Y002507D01*
X018790Y002570D01*
X018811Y002632D01*
X018836Y002691D01*
X018867Y002747D01*
X018903Y002801D01*
X018944Y002851D01*
X018989Y002897D01*
X019038Y002939D01*
X019091Y002976D01*
X019147Y003009D01*
X019205Y003036D01*
X019266Y003057D01*
X019329Y003073D01*
X019392Y003083D01*
X019457Y003088D01*
X019521Y003086D01*
X019586Y003079D01*
X019649Y003066D01*
X019710Y003047D01*
X019770Y003023D01*
X019827Y002993D01*
X019882Y002958D01*
X019933Y002919D01*
X019980Y002875D01*
X020023Y002826D01*
X020061Y002775D01*
X020095Y002719D01*
X020123Y002661D01*
X020146Y002601D01*
X020164Y002539D01*
X020175Y002476D01*
X020181Y002411D01*
X020181Y002347D01*
X020175Y002282D01*
X020164Y002219D01*
X020146Y002157D01*
X020123Y002097D01*
X020095Y002039D01*
X020061Y001983D01*
X020023Y001932D01*
X019980Y001883D01*
X019933Y001839D01*
X019882Y001800D01*
X019828Y001765D01*
X019770Y001735D01*
X019710Y001711D01*
X019649Y001692D01*
X019586Y001679D01*
X019521Y001672D01*
X019457Y001670D01*
X019392Y001675D01*
X019329Y001685D01*
X019266Y001701D01*
X019205Y001722D01*
X019147Y001749D01*
X019091Y001782D01*
X019038Y001819D01*
X018989Y001861D01*
X018944Y001907D01*
X018903Y001957D01*
X018867Y002011D01*
X018836Y002067D01*
X018811Y002126D01*
X018790Y002188D01*
X018776Y002251D01*
X018767Y002315D01*
X018764Y002379D01*
D11*
X019473Y002379D03*
X019473Y015607D03*
X002308Y015607D03*
X002308Y002379D03*
D12*
X002625Y006444D03*
X002611Y008568D03*
X014639Y003212D03*
X016960Y003167D03*
D13*
X007709Y016138D03*
X006683Y016136D03*
X005658Y016123D03*
D14*
X006846Y008701D03*
X007346Y008701D03*
X007846Y008701D03*
X008846Y008701D03*
X009346Y008701D03*
X009946Y008701D03*
D15*
X008346Y005001D03*
D16*
X014877Y010207D03*
X014877Y010707D03*
X014877Y011207D03*
X014877Y011707D03*
X014877Y012207D03*
X014877Y012707D03*
X014877Y013207D03*
X014877Y013707D03*
X018499Y013707D03*
X018499Y013207D03*
X018499Y012707D03*
X018499Y012207D03*
X018499Y011707D03*
X018499Y011207D03*
X018499Y010707D03*
X018499Y010207D03*
D17*
X013480Y010606D03*
X013480Y011275D03*
X007453Y011685D03*
X006783Y011685D03*
D18*
X006127Y012294D03*
X005315Y012668D03*
X005295Y011920D03*
D19*
X008165Y011673D03*
X008165Y012697D03*
X010527Y012697D03*
X010527Y012166D03*
X010527Y011673D03*
D20*
X005177Y010544D03*
X005177Y008544D03*
X005188Y006362D03*
X005188Y004362D03*
X015722Y005365D03*
X015722Y007365D03*
X019162Y007461D03*
X019162Y005461D03*
D21*
X012373Y010610D03*
X012373Y011279D03*
X004451Y011963D03*
X004451Y012632D03*
D22*
X013196Y009260D03*
X014184Y009279D03*
D23*
X007715Y014489D03*
X006715Y014489D03*
X005715Y014489D03*
D24*
X014278Y008010D03*
X014220Y006642D03*
X017835Y006626D03*
X017777Y007959D03*
D25*
X017711Y005101D03*
X014177Y005109D03*
X002801Y004367D03*
X002863Y010805D03*
D26*
X011271Y012173D03*
X013531Y011874D03*
X016226Y012675D03*
X017519Y012720D03*
X017519Y011216D03*
X018210Y008858D03*
M02*
