%
M48
M72
T01C0.1417
T02C0.1378
T03C0.0630
T04C0.0551
T05C0.0433
T06C0.0394
T07C0.0591
T08C0.0787
T09C0.0315
%
T01
X231Y238
X231Y1561
X1947Y1561
X1947Y238
T02
X1696Y317
X1464Y321
X263Y644
X261Y857
T03
X566Y1612
X668Y1614
X771Y1614
T04
X518Y1054
X518Y854
X519Y636
X519Y436
X1572Y536
X1572Y736
X1916Y746
X1916Y546
T05
X1418Y928
X1320Y926
T06
X771Y1449
X671Y1449
X571Y1449
T07
X1428Y801
X1422Y664
X1784Y663
X1778Y796
T08
X1771Y510
X1418Y511
X280Y437
X286Y1080
T09
X1127Y1217
X1353Y1187
X1623Y1267
X1752Y1272
X1752Y1122
X1821Y886
M30
