G75*
G70*
%OFA0B0*%
%FSLAX24Y24*%
%IPPOS*%
%LPD*%
%AMOC8*
5,1,8,0,0,1.08239X$1,22.5*
%
%ADD10C,0.0000*%
%ADD11R,0.0827X0.0827*%
%ADD12R,0.1250X0.0400*%
%ADD13R,0.4000X0.4000*%
%ADD14R,0.0394X0.0433*%
%ADD15C,0.0650*%
%ADD16O,0.0594X0.1187*%
%ADD17C,0.0886*%
%ADD18C,0.1181*%
%ADD19C,0.0475*%
%ADD20C,0.0160*%
D10*
X001349Y001119D02*
X001349Y016867D01*
X021034Y016867D01*
X021034Y001119D01*
X001349Y001119D01*
X001900Y002379D02*
X001903Y002443D01*
X001912Y002507D01*
X001926Y002570D01*
X001947Y002632D01*
X001972Y002691D01*
X002003Y002747D01*
X002039Y002801D01*
X002080Y002851D01*
X002125Y002897D01*
X002174Y002939D01*
X002227Y002976D01*
X002283Y003009D01*
X002341Y003036D01*
X002402Y003057D01*
X002465Y003073D01*
X002528Y003083D01*
X002593Y003088D01*
X002657Y003086D01*
X002722Y003079D01*
X002785Y003066D01*
X002846Y003047D01*
X002906Y003023D01*
X002963Y002993D01*
X003018Y002958D01*
X003069Y002919D01*
X003116Y002875D01*
X003159Y002826D01*
X003197Y002775D01*
X003231Y002719D01*
X003259Y002661D01*
X003282Y002601D01*
X003300Y002539D01*
X003311Y002476D01*
X003317Y002411D01*
X003317Y002347D01*
X003311Y002282D01*
X003300Y002219D01*
X003282Y002157D01*
X003259Y002097D01*
X003231Y002039D01*
X003197Y001983D01*
X003159Y001932D01*
X003116Y001883D01*
X003069Y001839D01*
X003018Y001800D01*
X002964Y001765D01*
X002906Y001735D01*
X002846Y001711D01*
X002785Y001692D01*
X002722Y001679D01*
X002657Y001672D01*
X002593Y001670D01*
X002528Y001675D01*
X002465Y001685D01*
X002402Y001701D01*
X002341Y001722D01*
X002283Y001749D01*
X002227Y001782D01*
X002174Y001819D01*
X002125Y001861D01*
X002080Y001907D01*
X002039Y001957D01*
X002003Y002011D01*
X001972Y002067D01*
X001947Y002126D01*
X001926Y002188D01*
X001912Y002251D01*
X001903Y002315D01*
X001900Y002379D01*
X004433Y003167D02*
X004436Y003230D01*
X004444Y003292D01*
X004459Y003353D01*
X004478Y003412D01*
X004503Y003470D01*
X004533Y003525D01*
X004568Y003577D01*
X004608Y003626D01*
X004652Y003671D01*
X004699Y003711D01*
X004751Y003747D01*
X004805Y003779D01*
X004862Y003805D01*
X004921Y003826D01*
X004982Y003842D01*
X005044Y003852D01*
X005106Y003856D01*
X005169Y003854D01*
X005231Y003847D01*
X005293Y003835D01*
X005353Y003816D01*
X005411Y003793D01*
X005466Y003764D01*
X005519Y003730D01*
X005569Y003691D01*
X005615Y003649D01*
X005656Y003602D01*
X005694Y003551D01*
X005726Y003498D01*
X005754Y003441D01*
X005776Y003383D01*
X005793Y003323D01*
X005805Y003261D01*
X005810Y003198D01*
X005810Y003136D01*
X005805Y003073D01*
X005793Y003011D01*
X005776Y002951D01*
X005754Y002893D01*
X005726Y002836D01*
X005694Y002783D01*
X005656Y002732D01*
X005615Y002685D01*
X005569Y002643D01*
X005519Y002604D01*
X005467Y002570D01*
X005411Y002541D01*
X005353Y002518D01*
X005293Y002499D01*
X005231Y002487D01*
X005169Y002480D01*
X005106Y002478D01*
X005044Y002482D01*
X004982Y002492D01*
X004921Y002508D01*
X004862Y002529D01*
X004805Y002555D01*
X004751Y002587D01*
X004699Y002623D01*
X004652Y002663D01*
X004608Y002708D01*
X004568Y002757D01*
X004533Y002809D01*
X004503Y002864D01*
X004478Y002922D01*
X004459Y002981D01*
X004444Y003042D01*
X004436Y003104D01*
X004433Y003167D01*
X006755Y003212D02*
X006758Y003275D01*
X006766Y003337D01*
X006781Y003398D01*
X006800Y003457D01*
X006825Y003515D01*
X006855Y003570D01*
X006890Y003622D01*
X006930Y003671D01*
X006974Y003716D01*
X007021Y003756D01*
X007073Y003792D01*
X007127Y003824D01*
X007184Y003850D01*
X007243Y003871D01*
X007304Y003887D01*
X007366Y003897D01*
X007428Y003901D01*
X007491Y003899D01*
X007553Y003892D01*
X007615Y003880D01*
X007675Y003861D01*
X007733Y003838D01*
X007788Y003809D01*
X007841Y003775D01*
X007891Y003736D01*
X007937Y003694D01*
X007978Y003647D01*
X008016Y003596D01*
X008048Y003543D01*
X008076Y003486D01*
X008098Y003428D01*
X008115Y003368D01*
X008127Y003306D01*
X008132Y003243D01*
X008132Y003181D01*
X008127Y003118D01*
X008115Y003056D01*
X008098Y002996D01*
X008076Y002938D01*
X008048Y002881D01*
X008016Y002828D01*
X007978Y002777D01*
X007937Y002730D01*
X007891Y002688D01*
X007841Y002649D01*
X007789Y002615D01*
X007733Y002586D01*
X007675Y002563D01*
X007615Y002544D01*
X007553Y002532D01*
X007491Y002525D01*
X007428Y002523D01*
X007366Y002527D01*
X007304Y002537D01*
X007243Y002553D01*
X007184Y002574D01*
X007127Y002600D01*
X007073Y002632D01*
X007021Y002668D01*
X006974Y002708D01*
X006930Y002753D01*
X006890Y002802D01*
X006855Y002854D01*
X006825Y002909D01*
X006800Y002967D01*
X006781Y003026D01*
X006766Y003087D01*
X006758Y003149D01*
X006755Y003212D01*
X018768Y006444D02*
X018771Y006507D01*
X018779Y006569D01*
X018794Y006630D01*
X018813Y006689D01*
X018838Y006747D01*
X018868Y006802D01*
X018903Y006854D01*
X018943Y006903D01*
X018987Y006948D01*
X019034Y006988D01*
X019086Y007024D01*
X019140Y007056D01*
X019197Y007082D01*
X019256Y007103D01*
X019317Y007119D01*
X019379Y007129D01*
X019441Y007133D01*
X019504Y007131D01*
X019566Y007124D01*
X019628Y007112D01*
X019688Y007093D01*
X019746Y007070D01*
X019801Y007041D01*
X019854Y007007D01*
X019904Y006968D01*
X019950Y006926D01*
X019991Y006879D01*
X020029Y006828D01*
X020061Y006775D01*
X020089Y006718D01*
X020111Y006660D01*
X020128Y006600D01*
X020140Y006538D01*
X020145Y006475D01*
X020145Y006413D01*
X020140Y006350D01*
X020128Y006288D01*
X020111Y006228D01*
X020089Y006170D01*
X020061Y006113D01*
X020029Y006060D01*
X019991Y006009D01*
X019950Y005962D01*
X019904Y005920D01*
X019854Y005881D01*
X019802Y005847D01*
X019746Y005818D01*
X019688Y005795D01*
X019628Y005776D01*
X019566Y005764D01*
X019504Y005757D01*
X019441Y005755D01*
X019379Y005759D01*
X019317Y005769D01*
X019256Y005785D01*
X019197Y005806D01*
X019140Y005832D01*
X019086Y005864D01*
X019034Y005900D01*
X018987Y005940D01*
X018943Y005985D01*
X018903Y006034D01*
X018868Y006086D01*
X018838Y006141D01*
X018813Y006199D01*
X018794Y006258D01*
X018779Y006319D01*
X018771Y006381D01*
X018768Y006444D01*
X018782Y008568D02*
X018785Y008631D01*
X018793Y008693D01*
X018808Y008754D01*
X018827Y008813D01*
X018852Y008871D01*
X018882Y008926D01*
X018917Y008978D01*
X018957Y009027D01*
X019001Y009072D01*
X019048Y009112D01*
X019100Y009148D01*
X019154Y009180D01*
X019211Y009206D01*
X019270Y009227D01*
X019331Y009243D01*
X019393Y009253D01*
X019455Y009257D01*
X019518Y009255D01*
X019580Y009248D01*
X019642Y009236D01*
X019702Y009217D01*
X019760Y009194D01*
X019815Y009165D01*
X019868Y009131D01*
X019918Y009092D01*
X019964Y009050D01*
X020005Y009003D01*
X020043Y008952D01*
X020075Y008899D01*
X020103Y008842D01*
X020125Y008784D01*
X020142Y008724D01*
X020154Y008662D01*
X020159Y008599D01*
X020159Y008537D01*
X020154Y008474D01*
X020142Y008412D01*
X020125Y008352D01*
X020103Y008294D01*
X020075Y008237D01*
X020043Y008184D01*
X020005Y008133D01*
X019964Y008086D01*
X019918Y008044D01*
X019868Y008005D01*
X019816Y007971D01*
X019760Y007942D01*
X019702Y007919D01*
X019642Y007900D01*
X019580Y007888D01*
X019518Y007881D01*
X019455Y007879D01*
X019393Y007883D01*
X019331Y007893D01*
X019270Y007909D01*
X019211Y007930D01*
X019154Y007956D01*
X019100Y007988D01*
X019048Y008024D01*
X019001Y008064D01*
X018957Y008109D01*
X018917Y008158D01*
X018882Y008210D01*
X018852Y008265D01*
X018827Y008323D01*
X018808Y008382D01*
X018793Y008443D01*
X018785Y008505D01*
X018782Y008568D01*
X019065Y002379D02*
X019068Y002443D01*
X019077Y002507D01*
X019091Y002570D01*
X019112Y002632D01*
X019137Y002691D01*
X019168Y002747D01*
X019204Y002801D01*
X019245Y002851D01*
X019290Y002897D01*
X019339Y002939D01*
X019392Y002976D01*
X019448Y003009D01*
X019506Y003036D01*
X019567Y003057D01*
X019630Y003073D01*
X019693Y003083D01*
X019758Y003088D01*
X019822Y003086D01*
X019887Y003079D01*
X019950Y003066D01*
X020011Y003047D01*
X020071Y003023D01*
X020128Y002993D01*
X020183Y002958D01*
X020234Y002919D01*
X020281Y002875D01*
X020324Y002826D01*
X020362Y002775D01*
X020396Y002719D01*
X020424Y002661D01*
X020447Y002601D01*
X020465Y002539D01*
X020476Y002476D01*
X020482Y002411D01*
X020482Y002347D01*
X020476Y002282D01*
X020465Y002219D01*
X020447Y002157D01*
X020424Y002097D01*
X020396Y002039D01*
X020362Y001983D01*
X020324Y001932D01*
X020281Y001883D01*
X020234Y001839D01*
X020183Y001800D01*
X020129Y001765D01*
X020071Y001735D01*
X020011Y001711D01*
X019950Y001692D01*
X019887Y001679D01*
X019822Y001672D01*
X019758Y001670D01*
X019693Y001675D01*
X019630Y001685D01*
X019567Y001701D01*
X019506Y001722D01*
X019448Y001749D01*
X019392Y001782D01*
X019339Y001819D01*
X019290Y001861D01*
X019245Y001907D01*
X019204Y001957D01*
X019168Y002011D01*
X019137Y002067D01*
X019112Y002126D01*
X019091Y002188D01*
X019077Y002251D01*
X019068Y002315D01*
X019065Y002379D01*
X019065Y015607D02*
X019068Y015671D01*
X019077Y015735D01*
X019091Y015798D01*
X019112Y015860D01*
X019137Y015919D01*
X019168Y015975D01*
X019204Y016029D01*
X019245Y016079D01*
X019290Y016125D01*
X019339Y016167D01*
X019392Y016204D01*
X019448Y016237D01*
X019506Y016264D01*
X019567Y016285D01*
X019630Y016301D01*
X019693Y016311D01*
X019758Y016316D01*
X019822Y016314D01*
X019887Y016307D01*
X019950Y016294D01*
X020011Y016275D01*
X020071Y016251D01*
X020128Y016221D01*
X020183Y016186D01*
X020234Y016147D01*
X020281Y016103D01*
X020324Y016054D01*
X020362Y016003D01*
X020396Y015947D01*
X020424Y015889D01*
X020447Y015829D01*
X020465Y015767D01*
X020476Y015704D01*
X020482Y015639D01*
X020482Y015575D01*
X020476Y015510D01*
X020465Y015447D01*
X020447Y015385D01*
X020424Y015325D01*
X020396Y015267D01*
X020362Y015211D01*
X020324Y015160D01*
X020281Y015111D01*
X020234Y015067D01*
X020183Y015028D01*
X020129Y014993D01*
X020071Y014963D01*
X020011Y014939D01*
X019950Y014920D01*
X019887Y014907D01*
X019822Y014900D01*
X019758Y014898D01*
X019693Y014903D01*
X019630Y014913D01*
X019567Y014929D01*
X019506Y014950D01*
X019448Y014977D01*
X019392Y015010D01*
X019339Y015047D01*
X019290Y015089D01*
X019245Y015135D01*
X019204Y015185D01*
X019168Y015239D01*
X019137Y015295D01*
X019112Y015354D01*
X019091Y015416D01*
X019077Y015479D01*
X019068Y015543D01*
X019065Y015607D01*
X016109Y016123D02*
X016111Y016159D01*
X016117Y016194D01*
X016127Y016229D01*
X016141Y016262D01*
X016159Y016293D01*
X016180Y016322D01*
X016204Y016349D01*
X016232Y016372D01*
X016261Y016393D01*
X016293Y016410D01*
X016327Y016423D01*
X016361Y016432D01*
X016397Y016437D01*
X016433Y016438D01*
X016469Y016435D01*
X016504Y016428D01*
X016538Y016417D01*
X016571Y016402D01*
X016602Y016383D01*
X016630Y016361D01*
X016656Y016336D01*
X016679Y016308D01*
X016698Y016278D01*
X016714Y016246D01*
X016726Y016212D01*
X016734Y016177D01*
X016738Y016141D01*
X016738Y016105D01*
X016734Y016069D01*
X016726Y016034D01*
X016714Y016000D01*
X016698Y015968D01*
X016679Y015938D01*
X016656Y015910D01*
X016630Y015885D01*
X016602Y015863D01*
X016571Y015844D01*
X016538Y015829D01*
X016504Y015818D01*
X016469Y015811D01*
X016433Y015808D01*
X016397Y015809D01*
X016361Y015814D01*
X016327Y015823D01*
X016293Y015836D01*
X016261Y015853D01*
X016232Y015874D01*
X016204Y015897D01*
X016180Y015924D01*
X016159Y015953D01*
X016141Y015984D01*
X016127Y016017D01*
X016117Y016052D01*
X016111Y016087D01*
X016109Y016123D01*
X015084Y016136D02*
X015086Y016172D01*
X015092Y016207D01*
X015102Y016242D01*
X015116Y016275D01*
X015134Y016306D01*
X015155Y016335D01*
X015179Y016362D01*
X015207Y016385D01*
X015236Y016406D01*
X015268Y016423D01*
X015302Y016436D01*
X015336Y016445D01*
X015372Y016450D01*
X015408Y016451D01*
X015444Y016448D01*
X015479Y016441D01*
X015513Y016430D01*
X015546Y016415D01*
X015577Y016396D01*
X015605Y016374D01*
X015631Y016349D01*
X015654Y016321D01*
X015673Y016291D01*
X015689Y016259D01*
X015701Y016225D01*
X015709Y016190D01*
X015713Y016154D01*
X015713Y016118D01*
X015709Y016082D01*
X015701Y016047D01*
X015689Y016013D01*
X015673Y015981D01*
X015654Y015951D01*
X015631Y015923D01*
X015605Y015898D01*
X015577Y015876D01*
X015546Y015857D01*
X015513Y015842D01*
X015479Y015831D01*
X015444Y015824D01*
X015408Y015821D01*
X015372Y015822D01*
X015336Y015827D01*
X015302Y015836D01*
X015268Y015849D01*
X015236Y015866D01*
X015207Y015887D01*
X015179Y015910D01*
X015155Y015937D01*
X015134Y015966D01*
X015116Y015997D01*
X015102Y016030D01*
X015092Y016065D01*
X015086Y016100D01*
X015084Y016136D01*
X014059Y016138D02*
X014061Y016174D01*
X014067Y016209D01*
X014077Y016244D01*
X014091Y016277D01*
X014109Y016308D01*
X014130Y016337D01*
X014154Y016364D01*
X014182Y016387D01*
X014211Y016408D01*
X014243Y016425D01*
X014277Y016438D01*
X014311Y016447D01*
X014347Y016452D01*
X014383Y016453D01*
X014419Y016450D01*
X014454Y016443D01*
X014488Y016432D01*
X014521Y016417D01*
X014552Y016398D01*
X014580Y016376D01*
X014606Y016351D01*
X014629Y016323D01*
X014648Y016293D01*
X014664Y016261D01*
X014676Y016227D01*
X014684Y016192D01*
X014688Y016156D01*
X014688Y016120D01*
X014684Y016084D01*
X014676Y016049D01*
X014664Y016015D01*
X014648Y015983D01*
X014629Y015953D01*
X014606Y015925D01*
X014580Y015900D01*
X014552Y015878D01*
X014521Y015859D01*
X014488Y015844D01*
X014454Y015833D01*
X014419Y015826D01*
X014383Y015823D01*
X014347Y015824D01*
X014311Y015829D01*
X014277Y015838D01*
X014243Y015851D01*
X014211Y015868D01*
X014182Y015889D01*
X014154Y015912D01*
X014130Y015939D01*
X014109Y015968D01*
X014091Y015999D01*
X014077Y016032D01*
X014067Y016067D01*
X014061Y016102D01*
X014059Y016138D01*
X001900Y015607D02*
X001903Y015671D01*
X001912Y015735D01*
X001926Y015798D01*
X001947Y015860D01*
X001972Y015919D01*
X002003Y015975D01*
X002039Y016029D01*
X002080Y016079D01*
X002125Y016125D01*
X002174Y016167D01*
X002227Y016204D01*
X002283Y016237D01*
X002341Y016264D01*
X002402Y016285D01*
X002465Y016301D01*
X002528Y016311D01*
X002593Y016316D01*
X002657Y016314D01*
X002722Y016307D01*
X002785Y016294D01*
X002846Y016275D01*
X002906Y016251D01*
X002963Y016221D01*
X003018Y016186D01*
X003069Y016147D01*
X003116Y016103D01*
X003159Y016054D01*
X003197Y016003D01*
X003231Y015947D01*
X003259Y015889D01*
X003282Y015829D01*
X003300Y015767D01*
X003311Y015704D01*
X003317Y015639D01*
X003317Y015575D01*
X003311Y015510D01*
X003300Y015447D01*
X003282Y015385D01*
X003259Y015325D01*
X003231Y015267D01*
X003197Y015211D01*
X003159Y015160D01*
X003116Y015111D01*
X003069Y015067D01*
X003018Y015028D01*
X002964Y014993D01*
X002906Y014963D01*
X002846Y014939D01*
X002785Y014920D01*
X002722Y014907D01*
X002657Y014900D01*
X002593Y014898D01*
X002528Y014903D01*
X002465Y014913D01*
X002402Y014929D01*
X002341Y014950D01*
X002283Y014977D01*
X002227Y015010D01*
X002174Y015047D01*
X002125Y015089D01*
X002080Y015135D01*
X002039Y015185D01*
X002003Y015239D01*
X001972Y015295D01*
X001947Y015354D01*
X001926Y015416D01*
X001912Y015479D01*
X001903Y015543D01*
X001900Y015607D01*
D11*
X002920Y007461D03*
X002920Y005461D03*
X006361Y005365D03*
X006361Y007365D03*
X016894Y006362D03*
X016894Y004362D03*
X016906Y008544D03*
X016906Y010544D03*
D12*
X014876Y006478D03*
X014876Y005978D03*
X014876Y005478D03*
X014876Y004478D03*
X014876Y003978D03*
X014876Y003378D03*
D13*
X011176Y004978D03*
D14*
X002856Y008771D03*
X002187Y008771D03*
D15*
X007898Y009279D03*
X008886Y009260D03*
D16*
X014368Y014489D03*
X015368Y014489D03*
X016368Y014489D03*
D17*
X007804Y008010D03*
X007863Y006642D03*
X004247Y006626D03*
X004305Y007959D03*
D18*
X004372Y005101D03*
X007906Y005109D03*
X019281Y004367D03*
X019220Y010805D03*
D19*
X010811Y012173D03*
X008552Y011874D03*
X005856Y012675D03*
X004563Y012720D03*
X004563Y011216D03*
X003873Y008858D03*
D20*
X003521Y008762D01*
X003306Y008795D01*
X002856Y008771D01*
X002521Y009076D02*
X002593Y009148D01*
X003119Y009148D01*
X003213Y009054D01*
X003213Y009035D01*
X003324Y009035D01*
X003405Y009035D01*
X003419Y009021D01*
X003505Y009008D01*
X003536Y009083D01*
X003648Y009195D01*
X003794Y009256D01*
X003952Y009256D01*
X004098Y009195D01*
X004210Y009083D01*
X004270Y008937D01*
X004270Y008779D01*
X004210Y008633D01*
X004098Y008521D01*
X003952Y008461D01*
X003794Y008461D01*
X003648Y008521D01*
X003633Y008536D01*
X003620Y008522D01*
X003503Y008522D01*
X003422Y008522D01*
X003407Y008537D01*
X003294Y008554D01*
X003213Y008550D01*
X003213Y008489D01*
X003119Y008395D01*
X002593Y008395D01*
X002521Y008466D01*
X002450Y008395D01*
X002134Y008395D01*
X002131Y007935D01*
X002135Y003913D01*
X002414Y003895D01*
X002416Y003895D01*
X002425Y003894D01*
X002512Y003889D01*
X002514Y003887D01*
X002938Y003851D01*
X002965Y003851D01*
X002975Y003848D01*
X003036Y003843D01*
X003056Y003823D01*
X003529Y003676D01*
X003592Y003676D01*
X003620Y003647D01*
X003733Y003535D01*
X003733Y003498D01*
X003954Y003100D01*
X003954Y003399D01*
X004131Y003829D01*
X004460Y004158D01*
X004890Y004336D01*
X005355Y004336D01*
X005785Y004158D01*
X006114Y003829D01*
X006275Y003439D01*
X006275Y003445D01*
X006453Y003874D01*
X006782Y004203D01*
X007211Y004381D01*
X007676Y004381D01*
X008106Y004203D01*
X008435Y003874D01*
X008613Y003445D01*
X008613Y002979D01*
X008435Y002550D01*
X008106Y002221D01*
X007676Y002043D01*
X007211Y002043D01*
X006782Y002221D01*
X006453Y002550D01*
X006291Y002939D01*
X006291Y002934D01*
X006114Y002505D01*
X005785Y002176D01*
X005463Y002042D01*
X005481Y002042D01*
X013250Y002010D01*
X013256Y002803D01*
X013251Y002798D01*
X011256Y002798D01*
X011256Y004898D01*
X011097Y004898D01*
X011097Y002798D01*
X009102Y002798D01*
X008996Y002904D01*
X008996Y004898D01*
X011096Y004898D01*
X011096Y005058D01*
X008996Y005058D01*
X008996Y007053D01*
X009102Y007158D01*
X011097Y007158D01*
X011097Y005058D01*
X011256Y005058D01*
X011256Y007158D01*
X013251Y007158D01*
X013286Y007123D01*
X013290Y007643D01*
X013290Y007743D01*
X013290Y007744D01*
X013430Y007884D01*
X013532Y007884D01*
X015626Y007894D01*
X015618Y009453D01*
X008790Y011550D01*
X008777Y011537D01*
X008631Y011476D01*
X008473Y011476D01*
X008326Y011537D01*
X008215Y011649D01*
X008154Y011795D01*
X008154Y011953D01*
X008215Y012099D01*
X008326Y012211D01*
X008473Y012271D01*
X008631Y012271D01*
X008777Y012211D01*
X008889Y012099D01*
X008925Y012010D01*
X015893Y009870D01*
X015957Y009870D01*
X016097Y009730D01*
X016097Y009730D01*
X016097Y009730D01*
X016097Y009627D01*
X016106Y007896D01*
X018480Y007907D01*
X018302Y008335D01*
X018302Y008800D01*
X018480Y009230D01*
X018809Y009559D01*
X019239Y009736D01*
X019704Y009736D01*
X020134Y009559D01*
X020462Y009230D01*
X020554Y009007D01*
X020554Y014706D01*
X020448Y014599D01*
X020011Y014418D01*
X019538Y014418D01*
X019101Y014599D01*
X018767Y014934D01*
X018586Y015370D01*
X018586Y015843D01*
X018767Y016280D01*
X018873Y016387D01*
X017175Y016387D01*
X017219Y016282D01*
X017219Y015965D01*
X017098Y015673D01*
X016874Y015450D01*
X016582Y015329D01*
X016266Y015329D01*
X015974Y015450D01*
X015906Y015518D01*
X015850Y015462D01*
X015557Y015341D01*
X015241Y015341D01*
X014949Y015462D01*
X014885Y015526D01*
X014824Y015464D01*
X014532Y015343D01*
X014216Y015343D01*
X013923Y015464D01*
X013700Y015688D01*
X013579Y015980D01*
X013579Y016297D01*
X013616Y016387D01*
X003510Y016387D01*
X003617Y016280D01*
X003798Y015843D01*
X003798Y015370D01*
X003617Y014934D01*
X003282Y014599D01*
X002846Y014418D01*
X002373Y014418D01*
X001936Y014599D01*
X001829Y014706D01*
X001829Y009289D01*
X001999Y009289D01*
X002067Y009221D01*
X002143Y009148D01*
X002450Y009148D01*
X002521Y009076D01*
X002187Y008771D02*
X001899Y009049D01*
X001891Y007936D01*
X001895Y003688D01*
X002406Y003655D01*
X002928Y003611D01*
X003493Y003436D01*
X003773Y002930D01*
X004219Y001847D01*
X005477Y001802D01*
X014574Y001765D01*
X014876Y003378D01*
X015053Y003018D02*
X014814Y001743D01*
X014814Y001666D01*
X014747Y001599D01*
X018873Y001599D01*
X018767Y001705D01*
X018586Y002142D01*
X018586Y002615D01*
X018767Y003052D01*
X019101Y003386D01*
X019538Y003567D01*
X020011Y003567D01*
X020448Y003386D01*
X020554Y003280D01*
X020554Y006038D01*
X020448Y005781D01*
X020119Y005453D01*
X019690Y005275D01*
X019225Y005275D01*
X018795Y005453D01*
X018466Y005781D01*
X018288Y006211D01*
X018288Y006676D01*
X018466Y007106D01*
X018795Y007435D01*
X018974Y007508D01*
X018809Y007577D01*
X018718Y007668D01*
X013530Y007644D01*
X013490Y002009D01*
X014375Y002006D01*
X014565Y003018D01*
X014185Y003018D01*
X014091Y003112D01*
X014091Y003644D01*
X014111Y003664D01*
X014071Y003704D01*
X014071Y003958D01*
X014856Y003958D01*
X014856Y003998D01*
X014071Y003998D01*
X014071Y004253D01*
X014071Y004458D01*
X014856Y004458D01*
X014856Y004498D01*
X014071Y004498D01*
X014071Y004753D01*
X014177Y004858D01*
X014856Y004858D01*
X014856Y004498D01*
X014896Y004498D01*
X014896Y004858D01*
X015576Y004858D01*
X015681Y004753D01*
X015681Y004498D01*
X014897Y004498D01*
X014897Y004458D01*
X015681Y004458D01*
X015681Y004253D01*
X015681Y003998D01*
X014897Y003998D01*
X014897Y003958D01*
X015681Y003958D01*
X015681Y003704D01*
X015642Y003664D01*
X015661Y003644D01*
X015661Y003112D01*
X015568Y003018D01*
X015053Y003018D01*
X015024Y002863D02*
X018688Y002863D01*
X018754Y003021D02*
X015571Y003021D01*
X015661Y003180D02*
X018895Y003180D01*
X019053Y003338D02*
X015661Y003338D01*
X015661Y003497D02*
X019368Y003497D01*
X020181Y003497D02*
X020554Y003497D01*
X020554Y003655D02*
X015650Y003655D01*
X015681Y003814D02*
X016361Y003814D01*
X016406Y003769D02*
X016301Y003874D01*
X016301Y004304D01*
X016836Y004304D01*
X016836Y004420D01*
X016301Y004420D01*
X016301Y004850D01*
X016406Y004955D01*
X016836Y004955D01*
X016836Y004420D01*
X016952Y004420D01*
X016952Y004955D01*
X017382Y004955D01*
X017488Y004850D01*
X017488Y004420D01*
X016952Y004420D01*
X016952Y004304D01*
X016836Y004304D01*
X016836Y003769D01*
X016406Y003769D01*
X016301Y003973D02*
X014897Y003973D01*
X014896Y003998D02*
X014896Y004358D01*
X014896Y004458D01*
X014856Y004458D01*
X014856Y004358D01*
X014856Y003998D01*
X014896Y003998D01*
X014856Y003973D02*
X013504Y003973D01*
X013505Y004131D02*
X014071Y004131D01*
X014071Y004290D02*
X013506Y004290D01*
X013507Y004448D02*
X014071Y004448D01*
X014071Y004607D02*
X013508Y004607D01*
X013509Y004765D02*
X014084Y004765D01*
X014177Y005098D02*
X014071Y005204D01*
X014071Y005458D01*
X014856Y005458D01*
X014856Y005498D01*
X014071Y005498D01*
X014071Y005704D01*
X014071Y005958D01*
X014856Y005958D01*
X014856Y005998D01*
X014071Y005998D01*
X014071Y006204D01*
X014071Y006458D01*
X014856Y006458D01*
X014856Y006498D01*
X014071Y006498D01*
X014071Y006753D01*
X014177Y006858D01*
X014856Y006858D01*
X014856Y006498D01*
X014896Y006498D01*
X014896Y006858D01*
X015576Y006858D01*
X015681Y006753D01*
X015681Y006498D01*
X014897Y006498D01*
X014897Y006458D01*
X015681Y006458D01*
X015681Y006204D01*
X015681Y005998D01*
X014897Y005998D01*
X014897Y005958D01*
X015681Y005958D01*
X015681Y005704D01*
X015681Y005498D01*
X014897Y005498D01*
X014897Y005458D01*
X015681Y005458D01*
X015681Y005204D01*
X015576Y005098D01*
X014896Y005098D01*
X014896Y005458D01*
X014856Y005458D01*
X014856Y005098D01*
X014177Y005098D01*
X014071Y005241D02*
X013513Y005241D01*
X013514Y005399D02*
X014071Y005399D01*
X014071Y005558D02*
X013515Y005558D01*
X013516Y005716D02*
X014071Y005716D01*
X014071Y005875D02*
X013517Y005875D01*
X013518Y006034D02*
X014071Y006034D01*
X014071Y006192D02*
X013519Y006192D01*
X013521Y006351D02*
X014071Y006351D01*
X014071Y006509D02*
X013522Y006509D01*
X013523Y006668D02*
X014071Y006668D01*
X014145Y006826D02*
X013524Y006826D01*
X013525Y006985D02*
X018416Y006985D01*
X018350Y006826D02*
X017488Y006826D01*
X017488Y006850D02*
X017488Y006420D01*
X016952Y006420D01*
X016952Y006955D01*
X017382Y006955D01*
X017488Y006850D01*
X017488Y006668D02*
X018288Y006668D01*
X018288Y006509D02*
X017488Y006509D01*
X017488Y006304D02*
X017488Y005874D01*
X017382Y005769D01*
X016952Y005769D01*
X016952Y006304D01*
X016836Y006304D01*
X016836Y006420D01*
X016301Y006420D01*
X016301Y006850D01*
X016406Y006955D01*
X016836Y006955D01*
X016836Y006420D01*
X016952Y006420D01*
X016952Y006304D01*
X017488Y006304D01*
X017488Y006192D02*
X018296Y006192D01*
X018288Y006351D02*
X016952Y006351D01*
X016836Y006351D02*
X015681Y006351D01*
X015681Y006509D02*
X016301Y006509D01*
X016301Y006668D02*
X015681Y006668D01*
X015608Y006826D02*
X016301Y006826D01*
X016366Y006899D02*
X016042Y007260D01*
X016803Y007228D01*
X016836Y006826D02*
X016952Y006826D01*
X016952Y006668D02*
X016836Y006668D01*
X016836Y006509D02*
X016952Y006509D01*
X016836Y006304D02*
X016301Y006304D01*
X016301Y005874D01*
X016406Y005769D01*
X016836Y005769D01*
X016836Y006304D01*
X016836Y006192D02*
X016952Y006192D01*
X016952Y006034D02*
X016836Y006034D01*
X016836Y005875D02*
X016952Y005875D01*
X017488Y005875D02*
X018427Y005875D01*
X018362Y006034D02*
X017488Y006034D01*
X018531Y005716D02*
X015681Y005716D01*
X015681Y005558D02*
X018690Y005558D01*
X018923Y005399D02*
X015681Y005399D01*
X015681Y005241D02*
X020554Y005241D01*
X020554Y005399D02*
X019991Y005399D01*
X020225Y005558D02*
X020554Y005558D01*
X020554Y005716D02*
X020383Y005716D01*
X020487Y005875D02*
X020554Y005875D01*
X020554Y006034D02*
X020553Y006034D01*
X020554Y005082D02*
X013512Y005082D01*
X013511Y004924D02*
X016375Y004924D01*
X016301Y004765D02*
X015669Y004765D01*
X015681Y004607D02*
X016301Y004607D01*
X016301Y004448D02*
X015681Y004448D01*
X015681Y004290D02*
X016301Y004290D01*
X016301Y004131D02*
X015681Y004131D01*
X014896Y004131D02*
X014856Y004131D01*
X014856Y004290D02*
X014896Y004290D01*
X014896Y004448D02*
X014856Y004448D01*
X014856Y004607D02*
X014896Y004607D01*
X014896Y004765D02*
X014856Y004765D01*
X014856Y005241D02*
X014896Y005241D01*
X014896Y005399D02*
X014856Y005399D01*
X014856Y005498D02*
X014896Y005498D01*
X014896Y005598D01*
X014896Y005958D01*
X014856Y005958D01*
X014856Y005598D01*
X014856Y005498D01*
X014856Y005558D02*
X014896Y005558D01*
X014896Y005716D02*
X014856Y005716D01*
X014856Y005875D02*
X014896Y005875D01*
X014896Y005998D02*
X014896Y006098D01*
X014896Y006458D01*
X014856Y006458D01*
X014856Y006098D01*
X014856Y005998D01*
X014896Y005998D01*
X014896Y006034D02*
X014856Y006034D01*
X014856Y006192D02*
X014896Y006192D01*
X014896Y006351D02*
X014856Y006351D01*
X014856Y006509D02*
X014896Y006509D01*
X014896Y006668D02*
X014856Y006668D01*
X014856Y006826D02*
X014896Y006826D01*
X015762Y006936D02*
X016366Y006899D01*
X015872Y006836D02*
X015762Y006936D01*
X015872Y006836D02*
X015857Y009630D01*
X008552Y011874D01*
X008281Y011583D02*
X001829Y011583D01*
X001829Y011741D02*
X008176Y011741D01*
X008154Y011900D02*
X001829Y011900D01*
X001829Y012058D02*
X008198Y012058D01*
X008341Y012217D02*
X001829Y012217D01*
X001829Y012375D02*
X004358Y012375D01*
X004338Y012383D02*
X004226Y012495D01*
X004166Y012641D01*
X004166Y012799D01*
X004226Y012945D01*
X004338Y013057D01*
X004484Y013118D01*
X004643Y013118D01*
X004706Y013092D01*
X005842Y013799D01*
X005893Y013850D01*
X005924Y013850D01*
X006001Y013850D01*
X006028Y013850D01*
X006092Y013850D01*
X006119Y013823D01*
X010571Y012495D01*
X010586Y012510D01*
X010732Y012571D01*
X010890Y012571D01*
X011036Y012510D01*
X011148Y012399D01*
X011209Y012253D01*
X011209Y012094D01*
X011148Y011948D01*
X011036Y011836D01*
X010890Y011776D01*
X010732Y011776D01*
X010586Y011836D01*
X010474Y011948D01*
X010439Y012034D01*
X006028Y013349D01*
X004961Y012685D01*
X004961Y012641D01*
X004900Y012495D01*
X004789Y012383D01*
X004643Y012323D01*
X004484Y012323D01*
X004338Y012383D01*
X004210Y012534D02*
X001829Y012534D01*
X001829Y012692D02*
X004166Y012692D01*
X004187Y012851D02*
X001829Y012851D01*
X001829Y013009D02*
X004291Y013009D01*
X004563Y012720D02*
X005993Y013610D01*
X010811Y012173D01*
X010523Y011900D02*
X009285Y011900D01*
X008905Y012058D02*
X010358Y012058D01*
X010317Y011583D02*
X020554Y011583D01*
X020554Y011741D02*
X009801Y011741D01*
X009826Y012217D02*
X008762Y012217D01*
X008762Y012534D02*
X004916Y012534D01*
X004973Y012692D02*
X008231Y012692D01*
X008315Y013168D02*
X020554Y013168D01*
X020554Y013009D02*
X008847Y013009D01*
X009379Y012851D02*
X020554Y012851D01*
X020554Y012692D02*
X009910Y012692D01*
X009294Y012375D02*
X004769Y012375D01*
X005227Y012851D02*
X007699Y012851D01*
X007167Y013009D02*
X005482Y013009D01*
X005737Y013168D02*
X006635Y013168D01*
X007251Y013485D02*
X020554Y013485D01*
X020554Y013327D02*
X007783Y013327D01*
X006720Y013644D02*
X020554Y013644D01*
X020554Y013802D02*
X016624Y013802D01*
X016557Y013735D02*
X016179Y013735D01*
X015911Y014003D01*
X015911Y014975D01*
X016179Y015242D01*
X016557Y015242D01*
X016825Y014975D01*
X016825Y014003D01*
X016557Y013735D01*
X016783Y013961D02*
X020554Y013961D01*
X020554Y014119D02*
X016825Y014119D01*
X016825Y014278D02*
X020554Y014278D01*
X020554Y014436D02*
X020055Y014436D01*
X020437Y014595D02*
X020554Y014595D01*
X019494Y014436D02*
X016825Y014436D01*
X016825Y014595D02*
X019112Y014595D01*
X018947Y014753D02*
X016825Y014753D01*
X016825Y014912D02*
X018788Y014912D01*
X018710Y015071D02*
X016729Y015071D01*
X016570Y015229D02*
X018644Y015229D01*
X018586Y015388D02*
X016725Y015388D01*
X016971Y015546D02*
X018586Y015546D01*
X018586Y015705D02*
X017111Y015705D01*
X017177Y015863D02*
X018594Y015863D01*
X018660Y016022D02*
X017219Y016022D01*
X017219Y016180D02*
X018725Y016180D01*
X018825Y016339D02*
X017195Y016339D01*
X016123Y015388D02*
X015671Y015388D01*
X015557Y015242D02*
X015825Y014975D01*
X015825Y014003D01*
X015557Y013735D01*
X015179Y013735D01*
X014911Y014003D01*
X014911Y014975D01*
X015179Y015242D01*
X015557Y015242D01*
X015570Y015229D02*
X016165Y015229D01*
X016007Y015071D02*
X015729Y015071D01*
X015825Y014912D02*
X015911Y014912D01*
X015911Y014753D02*
X015825Y014753D01*
X015825Y014595D02*
X015911Y014595D01*
X015911Y014436D02*
X015825Y014436D01*
X015825Y014278D02*
X015911Y014278D01*
X015911Y014119D02*
X015825Y014119D01*
X015783Y013961D02*
X015953Y013961D01*
X016111Y013802D02*
X015624Y013802D01*
X015111Y013802D02*
X014624Y013802D01*
X014557Y013735D02*
X014179Y013735D01*
X013911Y014003D01*
X013911Y014975D01*
X014179Y015242D01*
X014557Y015242D01*
X014825Y014975D01*
X014825Y014003D01*
X014557Y013735D01*
X014783Y013961D02*
X014953Y013961D01*
X014911Y014119D02*
X014825Y014119D01*
X014825Y014278D02*
X014911Y014278D01*
X014911Y014436D02*
X014825Y014436D01*
X014825Y014595D02*
X014911Y014595D01*
X014911Y014753D02*
X014825Y014753D01*
X014825Y014912D02*
X014911Y014912D01*
X015007Y015071D02*
X014729Y015071D01*
X014570Y015229D02*
X015165Y015229D01*
X015128Y015388D02*
X014638Y015388D01*
X014165Y015229D02*
X003739Y015229D01*
X003798Y015388D02*
X014109Y015388D01*
X013842Y015546D02*
X003798Y015546D01*
X003798Y015705D02*
X013693Y015705D01*
X013627Y015863D02*
X003789Y015863D01*
X003724Y016022D02*
X013579Y016022D01*
X013579Y016180D02*
X003658Y016180D01*
X003558Y016339D02*
X013596Y016339D01*
X014007Y015071D02*
X003674Y015071D01*
X003595Y014912D02*
X013911Y014912D01*
X013911Y014753D02*
X003437Y014753D01*
X003272Y014595D02*
X013911Y014595D01*
X013911Y014436D02*
X002889Y014436D01*
X002329Y014436D02*
X001829Y014436D01*
X001829Y014278D02*
X013911Y014278D01*
X013911Y014119D02*
X001829Y014119D01*
X001829Y013961D02*
X013953Y013961D01*
X014111Y013802D02*
X006188Y013802D01*
X005845Y013802D02*
X001829Y013802D01*
X001829Y013644D02*
X005592Y013644D01*
X005338Y013485D02*
X001829Y013485D01*
X001829Y013327D02*
X005083Y013327D01*
X004829Y013168D02*
X001829Y013168D01*
X001829Y014595D02*
X001946Y014595D01*
X001829Y011424D02*
X009199Y011424D01*
X009715Y011266D02*
X001829Y011266D01*
X001829Y011107D02*
X010231Y011107D01*
X010748Y010948D02*
X001829Y010948D01*
X001829Y010790D02*
X011264Y010790D01*
X011780Y010631D02*
X001829Y010631D01*
X001829Y010473D02*
X012296Y010473D01*
X012382Y010948D02*
X016312Y010948D01*
X016312Y011031D02*
X016418Y011137D01*
X016848Y011137D01*
X016848Y010602D01*
X016963Y010602D01*
X016963Y011137D01*
X017394Y011137D01*
X017499Y011031D01*
X017499Y010601D01*
X016964Y010601D01*
X016964Y010486D01*
X017499Y010486D01*
X017499Y010056D01*
X017394Y009950D01*
X016963Y009950D01*
X016963Y010485D01*
X016848Y010485D01*
X016848Y009950D01*
X016418Y009950D01*
X016312Y010056D01*
X016312Y010486D01*
X016848Y010486D01*
X016848Y010601D01*
X016312Y010601D01*
X016312Y011031D01*
X016388Y011107D02*
X011866Y011107D01*
X011350Y011266D02*
X020554Y011266D01*
X020554Y011424D02*
X010833Y011424D01*
X011099Y011900D02*
X020554Y011900D01*
X020554Y012058D02*
X011194Y012058D01*
X011209Y012217D02*
X020554Y012217D01*
X020554Y012375D02*
X011158Y012375D01*
X010980Y012534D02*
X020554Y012534D01*
X020554Y011107D02*
X017423Y011107D01*
X017499Y010948D02*
X020554Y010948D01*
X020554Y010790D02*
X017499Y010790D01*
X017499Y010631D02*
X020554Y010631D01*
X020554Y010473D02*
X017499Y010473D01*
X017499Y010314D02*
X020554Y010314D01*
X020554Y010156D02*
X017499Y010156D01*
X017441Y009997D02*
X020554Y009997D01*
X020554Y009839D02*
X015988Y009839D01*
X016097Y009680D02*
X019103Y009680D01*
X018772Y009522D02*
X016098Y009522D01*
X016099Y009363D02*
X018614Y009363D01*
X018470Y009204D02*
X016099Y009204D01*
X016100Y009046D02*
X016327Y009046D01*
X016312Y009031D02*
X016418Y009137D01*
X016848Y009137D01*
X016848Y008602D01*
X016963Y008602D01*
X016963Y009137D01*
X017394Y009137D01*
X017499Y009031D01*
X017499Y008601D01*
X016964Y008601D01*
X016964Y008486D01*
X017499Y008486D01*
X017499Y008056D01*
X017394Y007950D01*
X016963Y007950D01*
X016963Y008485D01*
X016848Y008485D01*
X016848Y007950D01*
X016418Y007950D01*
X016312Y008056D01*
X016312Y008486D01*
X016848Y008486D01*
X016848Y008601D01*
X016312Y008601D01*
X016312Y009031D01*
X016312Y008887D02*
X016101Y008887D01*
X016102Y008729D02*
X016312Y008729D01*
X016103Y008570D02*
X016848Y008570D01*
X016964Y008570D02*
X018302Y008570D01*
X018302Y008412D02*
X017499Y008412D01*
X017499Y008253D02*
X018336Y008253D01*
X018402Y008095D02*
X017499Y008095D01*
X016963Y008095D02*
X016848Y008095D01*
X016848Y008253D02*
X016963Y008253D01*
X016963Y008412D02*
X016848Y008412D01*
X016848Y008729D02*
X016963Y008729D01*
X016963Y008887D02*
X016848Y008887D01*
X016848Y009046D02*
X016963Y009046D01*
X017484Y009046D02*
X018404Y009046D01*
X018339Y008887D02*
X017499Y008887D01*
X017499Y008729D02*
X018302Y008729D01*
X018468Y007936D02*
X016106Y007936D01*
X016105Y008095D02*
X016312Y008095D01*
X016312Y008253D02*
X016104Y008253D01*
X016104Y008412D02*
X016312Y008412D01*
X015624Y008412D02*
X008255Y008412D01*
X008316Y008352D02*
X008407Y008130D01*
X008407Y007890D01*
X008316Y007669D01*
X008146Y007499D01*
X007924Y007407D01*
X007684Y007407D01*
X007463Y007499D01*
X007293Y007669D01*
X007201Y007890D01*
X007201Y008130D01*
X007293Y008352D01*
X007463Y008521D01*
X007684Y008613D01*
X007924Y008613D01*
X008146Y008521D01*
X008316Y008352D01*
X008356Y008253D02*
X015625Y008253D01*
X015625Y008095D02*
X008407Y008095D01*
X008407Y007936D02*
X015626Y007936D01*
X015623Y008570D02*
X008027Y008570D01*
X007999Y008775D02*
X008184Y008851D01*
X008326Y008993D01*
X008401Y009176D01*
X008401Y009163D01*
X008475Y008985D01*
X008612Y008849D01*
X008790Y008775D01*
X008983Y008775D01*
X009161Y008849D01*
X009297Y008985D01*
X009371Y009163D01*
X009371Y009356D01*
X009297Y009534D01*
X009161Y009671D01*
X008983Y009744D01*
X008790Y009744D01*
X008612Y009671D01*
X008475Y009534D01*
X008403Y009359D01*
X008403Y009380D01*
X008326Y009565D01*
X008184Y009707D01*
X007999Y009784D01*
X007926Y009784D01*
X007926Y009308D01*
X007870Y009308D01*
X007870Y009784D01*
X007798Y009784D01*
X007612Y009707D01*
X007470Y009565D01*
X007393Y009380D01*
X007393Y009308D01*
X007870Y009308D01*
X007870Y009251D01*
X007870Y008775D01*
X007798Y008775D01*
X007612Y008851D01*
X007470Y008993D01*
X007393Y009179D01*
X007393Y009251D01*
X007870Y009251D01*
X007926Y009251D01*
X007926Y008775D01*
X007999Y008775D01*
X007926Y008887D02*
X007870Y008887D01*
X007870Y009046D02*
X007926Y009046D01*
X007926Y009204D02*
X007870Y009204D01*
X007901Y009256D02*
X007898Y009279D01*
X007926Y009363D02*
X007870Y009363D01*
X007870Y009522D02*
X007926Y009522D01*
X007926Y009680D02*
X007870Y009680D01*
X007585Y009680D02*
X001829Y009680D01*
X001829Y009522D02*
X007452Y009522D01*
X007393Y009363D02*
X001829Y009363D01*
X002084Y009204D02*
X003670Y009204D01*
X003520Y009046D02*
X003213Y009046D01*
X003136Y008412D02*
X007353Y008412D01*
X007252Y008253D02*
X002133Y008253D01*
X002132Y008095D02*
X007201Y008095D01*
X007201Y007936D02*
X006842Y007936D01*
X006840Y007938D02*
X006934Y007844D01*
X006934Y006885D01*
X006840Y006791D01*
X005881Y006791D01*
X005787Y006885D01*
X005787Y007844D01*
X005881Y007938D01*
X006840Y007938D01*
X006934Y007778D02*
X007248Y007778D01*
X007343Y007619D02*
X006934Y007619D01*
X006934Y007460D02*
X007556Y007460D01*
X007743Y007244D02*
X007983Y007244D01*
X008204Y007153D01*
X008374Y006983D01*
X008466Y006761D01*
X008466Y006522D01*
X008374Y006300D01*
X008204Y006130D01*
X007983Y006039D01*
X007743Y006039D01*
X007521Y006130D01*
X007352Y006300D01*
X007260Y006522D01*
X007260Y006761D01*
X007352Y006983D01*
X007521Y007153D01*
X007743Y007244D01*
X007512Y007143D02*
X006934Y007143D01*
X006934Y006985D02*
X007353Y006985D01*
X007287Y006826D02*
X006875Y006826D01*
X007260Y006668D02*
X002132Y006668D01*
X002132Y006826D02*
X005846Y006826D01*
X005787Y006985D02*
X003514Y006985D01*
X003514Y006973D02*
X003408Y006868D01*
X002978Y006868D01*
X002978Y007403D01*
X002862Y007403D01*
X002862Y006868D01*
X002432Y006868D01*
X002327Y006973D01*
X002327Y007403D01*
X002862Y007403D01*
X002862Y007519D01*
X002327Y007519D01*
X002327Y007949D01*
X002432Y008055D01*
X002862Y008055D01*
X002862Y007519D01*
X002978Y007519D01*
X002978Y007403D01*
X003514Y007403D01*
X003514Y006973D01*
X003514Y007143D02*
X005787Y007143D01*
X005787Y007302D02*
X003514Y007302D01*
X003514Y007519D02*
X002978Y007519D01*
X002978Y008055D01*
X003408Y008055D01*
X003514Y007949D01*
X003514Y007519D01*
X003514Y007619D02*
X005787Y007619D01*
X005787Y007460D02*
X002978Y007460D01*
X002862Y007460D02*
X002131Y007460D01*
X002132Y007302D02*
X002327Y007302D01*
X002327Y007143D02*
X002132Y007143D01*
X002132Y006985D02*
X002327Y006985D01*
X002132Y006509D02*
X007265Y006509D01*
X007331Y006351D02*
X002133Y006351D01*
X002133Y006192D02*
X007459Y006192D01*
X007757Y005859D02*
X008055Y005859D01*
X008331Y005745D01*
X008542Y005534D01*
X008656Y005258D01*
X008656Y004959D01*
X008542Y004683D01*
X008331Y004472D01*
X008055Y004358D01*
X007757Y004358D01*
X007481Y004472D01*
X007270Y004683D01*
X007155Y004959D01*
X007155Y005258D01*
X007270Y005534D01*
X007481Y005745D01*
X007757Y005859D01*
X007453Y005716D02*
X006934Y005716D01*
X006934Y005844D02*
X006934Y004885D01*
X006840Y004791D01*
X005881Y004791D01*
X005787Y004885D01*
X005787Y005844D01*
X005881Y005938D01*
X006840Y005938D01*
X006934Y005844D01*
X006903Y005875D02*
X008996Y005875D01*
X008996Y005716D02*
X008359Y005716D01*
X008518Y005558D02*
X008996Y005558D01*
X008996Y005399D02*
X008598Y005399D01*
X008656Y005241D02*
X008996Y005241D01*
X008996Y005082D02*
X008656Y005082D01*
X008642Y004924D02*
X011096Y004924D01*
X011176Y004978D02*
X008553Y006632D01*
X008461Y006510D01*
X009118Y007049D01*
X009106Y002903D01*
X012996Y002951D01*
X013255Y002704D02*
X008499Y002704D01*
X008564Y002863D02*
X009037Y002863D01*
X008996Y003021D02*
X008613Y003021D01*
X008613Y003180D02*
X008996Y003180D01*
X008996Y003338D02*
X008613Y003338D01*
X008591Y003497D02*
X008996Y003497D01*
X008996Y003655D02*
X008525Y003655D01*
X008460Y003814D02*
X008996Y003814D01*
X008996Y003973D02*
X008336Y003973D01*
X008178Y004131D02*
X008996Y004131D01*
X008996Y004290D02*
X007897Y004290D01*
X007539Y004448D02*
X002135Y004448D01*
X002135Y004290D02*
X004779Y004290D01*
X004434Y004131D02*
X002135Y004131D01*
X002135Y003973D02*
X004275Y003973D01*
X004125Y003814D02*
X003084Y003814D01*
X003612Y003655D02*
X004060Y003655D01*
X003994Y003497D02*
X003733Y003497D01*
X003821Y003338D02*
X003954Y003338D01*
X003954Y003180D02*
X003909Y003180D01*
X005466Y004290D02*
X006991Y004290D01*
X006710Y004131D02*
X005811Y004131D01*
X005970Y003973D02*
X006551Y003973D01*
X006428Y003814D02*
X006120Y003814D01*
X006185Y003655D02*
X006362Y003655D01*
X006296Y003497D02*
X006251Y003497D01*
X006262Y002863D02*
X006323Y002863D01*
X006389Y002704D02*
X006196Y002704D01*
X006131Y002546D02*
X006457Y002546D01*
X006616Y002387D02*
X005996Y002387D01*
X005837Y002229D02*
X006774Y002229D01*
X007146Y002070D02*
X005529Y002070D01*
X007741Y002070D02*
X013251Y002070D01*
X013252Y002229D02*
X008113Y002229D01*
X008272Y002387D02*
X013253Y002387D01*
X013254Y002546D02*
X008431Y002546D01*
X008273Y004448D02*
X008996Y004448D01*
X008996Y004607D02*
X008466Y004607D01*
X008576Y004765D02*
X008996Y004765D01*
X008996Y006034D02*
X003429Y006034D01*
X003408Y006055D02*
X003514Y005949D01*
X003514Y005519D01*
X002978Y005519D01*
X002978Y005403D01*
X002862Y005403D01*
X002862Y004868D01*
X002432Y004868D01*
X002327Y004973D01*
X002327Y005403D01*
X002862Y005403D01*
X002862Y005519D01*
X002327Y005519D01*
X002327Y005949D01*
X002432Y006055D01*
X002862Y006055D01*
X002862Y005519D01*
X002978Y005519D01*
X002978Y006055D01*
X003408Y006055D01*
X003514Y005875D02*
X005818Y005875D01*
X005787Y005716D02*
X003514Y005716D01*
X003514Y005558D02*
X005787Y005558D01*
X005787Y005399D02*
X003514Y005399D01*
X003514Y005403D02*
X003514Y004973D01*
X003408Y004868D01*
X002978Y004868D01*
X002978Y005403D01*
X003514Y005403D01*
X003514Y005241D02*
X005787Y005241D01*
X005787Y005082D02*
X003514Y005082D01*
X003464Y004924D02*
X005787Y004924D01*
X006934Y004924D02*
X007170Y004924D01*
X007155Y005082D02*
X006934Y005082D01*
X006934Y005241D02*
X007155Y005241D01*
X007214Y005399D02*
X006934Y005399D01*
X006934Y005558D02*
X007294Y005558D01*
X007236Y004765D02*
X002134Y004765D01*
X002134Y004607D02*
X007346Y004607D01*
X008266Y006192D02*
X008996Y006192D01*
X008996Y006351D02*
X008395Y006351D01*
X008460Y006509D02*
X008996Y006509D01*
X008996Y006668D02*
X008466Y006668D01*
X008439Y006826D02*
X008996Y006826D01*
X008996Y006985D02*
X008372Y006985D01*
X008213Y007143D02*
X009087Y007143D01*
X009118Y007049D02*
X012705Y007029D01*
X013266Y007143D02*
X013286Y007143D01*
X013287Y007302D02*
X006934Y007302D01*
X008053Y007460D02*
X013288Y007460D01*
X013289Y007619D02*
X008266Y007619D01*
X008361Y007778D02*
X013324Y007778D01*
X013529Y007619D02*
X018767Y007619D01*
X018858Y007460D02*
X013528Y007460D01*
X013527Y007302D02*
X018662Y007302D01*
X018504Y007143D02*
X013526Y007143D01*
X015622Y008729D02*
X004250Y008729D01*
X004270Y008887D02*
X007576Y008887D01*
X007448Y009046D02*
X004225Y009046D01*
X004075Y009204D02*
X007393Y009204D01*
X007091Y009567D02*
X004563Y011216D01*
X004556Y011216D01*
X005856Y012675D01*
X005991Y013327D02*
X006104Y013327D01*
X001829Y010314D02*
X012812Y010314D01*
X012898Y010790D02*
X016312Y010790D01*
X016312Y010631D02*
X013415Y010631D01*
X013329Y010156D02*
X001829Y010156D01*
X001829Y009997D02*
X013845Y009997D01*
X013931Y010473D02*
X016312Y010473D01*
X016312Y010314D02*
X014447Y010314D01*
X014963Y010156D02*
X016312Y010156D01*
X016371Y009997D02*
X015479Y009997D01*
X015393Y009522D02*
X009303Y009522D01*
X009368Y009363D02*
X015619Y009363D01*
X015619Y009204D02*
X009371Y009204D01*
X009322Y009046D02*
X015620Y009046D01*
X015621Y008887D02*
X009200Y008887D01*
X008573Y008887D02*
X008220Y008887D01*
X008348Y009046D02*
X008450Y009046D01*
X008404Y009363D02*
X008403Y009363D01*
X008344Y009522D02*
X008470Y009522D01*
X008634Y009680D02*
X008211Y009680D01*
X009138Y009680D02*
X014877Y009680D01*
X014361Y009839D02*
X001829Y009839D01*
X002467Y008412D02*
X002576Y008412D01*
X002327Y007936D02*
X002131Y007936D01*
X002131Y007778D02*
X002327Y007778D01*
X002327Y007619D02*
X002131Y007619D01*
X002862Y007619D02*
X002978Y007619D01*
X002978Y007778D02*
X002862Y007778D01*
X002862Y007936D02*
X002978Y007936D01*
X003514Y007936D02*
X005879Y007936D01*
X005787Y007778D02*
X003514Y007778D01*
X002978Y007302D02*
X002862Y007302D01*
X002862Y007143D02*
X002978Y007143D01*
X002978Y006985D02*
X002862Y006985D01*
X002862Y006034D02*
X002978Y006034D01*
X002978Y005875D02*
X002862Y005875D01*
X002862Y005716D02*
X002978Y005716D01*
X002978Y005558D02*
X002862Y005558D01*
X002862Y005399D02*
X002978Y005399D01*
X002978Y005241D02*
X002862Y005241D01*
X002862Y005082D02*
X002978Y005082D01*
X002978Y004924D02*
X002862Y004924D01*
X002376Y004924D02*
X002134Y004924D01*
X002134Y005082D02*
X002327Y005082D01*
X002327Y005241D02*
X002134Y005241D01*
X002134Y005399D02*
X002327Y005399D01*
X002327Y005558D02*
X002133Y005558D01*
X002133Y005716D02*
X002327Y005716D01*
X002327Y005875D02*
X002133Y005875D01*
X002133Y006034D02*
X002411Y006034D01*
X004744Y006929D02*
X004744Y007550D01*
X004305Y007959D01*
X004147Y008570D02*
X007581Y008570D01*
X011097Y007143D02*
X011256Y007143D01*
X011256Y006985D02*
X011097Y006985D01*
X011097Y006826D02*
X011256Y006826D01*
X011256Y006668D02*
X011097Y006668D01*
X011097Y006509D02*
X011256Y006509D01*
X011256Y006351D02*
X011097Y006351D01*
X011097Y006192D02*
X011256Y006192D01*
X011256Y006034D02*
X011097Y006034D01*
X011097Y005875D02*
X011256Y005875D01*
X011256Y005716D02*
X011097Y005716D01*
X011097Y005558D02*
X011256Y005558D01*
X011256Y005399D02*
X011097Y005399D01*
X011097Y005241D02*
X011256Y005241D01*
X011256Y005082D02*
X011097Y005082D01*
X011097Y004765D02*
X011256Y004765D01*
X011256Y004607D02*
X011097Y004607D01*
X011097Y004448D02*
X011256Y004448D01*
X011256Y004290D02*
X011097Y004290D01*
X011097Y004131D02*
X011256Y004131D01*
X011256Y003973D02*
X011097Y003973D01*
X011097Y003814D02*
X011256Y003814D01*
X011256Y003655D02*
X011097Y003655D01*
X011097Y003497D02*
X011256Y003497D01*
X011256Y003338D02*
X011097Y003338D01*
X011097Y003180D02*
X011256Y003180D01*
X011256Y003021D02*
X011097Y003021D01*
X011097Y002863D02*
X011256Y002863D01*
X013496Y002863D02*
X014536Y002863D01*
X014506Y002704D02*
X013495Y002704D01*
X013494Y002546D02*
X014476Y002546D01*
X014446Y002387D02*
X013493Y002387D01*
X013492Y002229D02*
X014417Y002229D01*
X014387Y002070D02*
X013491Y002070D01*
X013497Y003021D02*
X014182Y003021D01*
X014091Y003180D02*
X013498Y003180D01*
X013499Y003338D02*
X014091Y003338D01*
X014091Y003497D02*
X013501Y003497D01*
X013502Y003655D02*
X014102Y003655D01*
X014071Y003814D02*
X013503Y003814D01*
X014994Y002704D02*
X018623Y002704D01*
X018586Y002546D02*
X014965Y002546D01*
X014935Y002387D02*
X018586Y002387D01*
X018586Y002229D02*
X014905Y002229D01*
X014875Y002070D02*
X018616Y002070D01*
X018681Y001911D02*
X014846Y001911D01*
X014816Y001753D02*
X018747Y001753D01*
X020496Y003338D02*
X020554Y003338D01*
X020554Y003814D02*
X017427Y003814D01*
X017382Y003769D02*
X017488Y003874D01*
X017488Y004304D01*
X016952Y004304D01*
X016952Y003769D01*
X017382Y003769D01*
X017488Y003973D02*
X020554Y003973D01*
X020554Y004131D02*
X017488Y004131D01*
X017488Y004290D02*
X020554Y004290D01*
X020554Y004448D02*
X017488Y004448D01*
X017488Y004607D02*
X020554Y004607D01*
X020554Y004765D02*
X017488Y004765D01*
X017414Y004924D02*
X020554Y004924D01*
X016952Y004924D02*
X016836Y004924D01*
X016836Y004765D02*
X016952Y004765D01*
X016952Y004607D02*
X016836Y004607D01*
X016836Y004448D02*
X016952Y004448D01*
X016952Y004290D02*
X016836Y004290D01*
X016836Y004131D02*
X016952Y004131D01*
X016952Y003973D02*
X016836Y003973D01*
X016836Y003814D02*
X016952Y003814D01*
X016301Y005875D02*
X015681Y005875D01*
X015681Y006034D02*
X016301Y006034D01*
X016301Y006192D02*
X015681Y006192D01*
X019840Y009680D02*
X020554Y009680D01*
X020554Y009522D02*
X020171Y009522D01*
X020329Y009363D02*
X020554Y009363D01*
X020554Y009204D02*
X020473Y009204D01*
X020538Y009046D02*
X020554Y009046D01*
X016963Y009997D02*
X016848Y009997D01*
X016848Y010156D02*
X016963Y010156D01*
X016963Y010314D02*
X016848Y010314D01*
X016848Y010473D02*
X016963Y010473D01*
X016963Y010631D02*
X016848Y010631D01*
X016848Y010790D02*
X016963Y010790D01*
X016963Y010948D02*
X016848Y010948D01*
X016848Y011107D02*
X016963Y011107D01*
X010643Y012534D02*
X010442Y012534D01*
M02*
