%
M48
M72
T01C0.1417
T02C0.1378
T03C0.0630
T04C0.0551
T05C0.0394
T06C0.0400
T07C0.0350
T08C0.0320
T09C0.0315
T10C0.0591
T11C0.0787
T12C0.0236
T13C0.0709
%
T01
X292Y230
X297Y1709
X2408Y1709
X2403Y230
T02
X2254Y427
X2013Y242
X324Y636
X323Y849
T03
X627Y1753
X734Y1758
X846Y1761
T04
X579Y1046
X579Y846
X580Y628
X580Y428
X2006Y447
X2006Y647
X2370Y613
X2370Y813
T05
X1050Y1609
X1050Y1709
X832Y1613
X732Y1613
X632Y1613
T06
X2137Y1587
X2137Y1687
X2137Y1487
T07
X2310Y1473
X2410Y1473
X763Y891
X763Y491
T08
X1451Y1348
X1376Y1398
X1451Y1448
X1986Y1538
X2061Y1588
X1986Y1638
T09
X1509Y1581
X1409Y1581
X1309Y1581
X1209Y1581
T10
X2216Y862
X2222Y728
X1832Y573
X1836Y446
T11
X1842Y293
X2220Y589
X324Y436
X328Y1047
T12
X275Y1327
X387Y1800
X1099Y1424
X1096Y1319
X1287Y1385
X1275Y1209
X1077Y1079
X936Y994
X1262Y962
X1415Y874
X1551Y864
X1652Y854
X1824Y768
X1873Y684
X1755Y670
X1999Y776
X1997Y1017
X2053Y1033
X1844Y1104
X1783Y1188
X1731Y1255
X1808Y1277
X1855Y1336
X1915Y1381
X1998Y1222
X2142Y1275
X1808Y1590
X1668Y1687
X1613Y1627
X1704Y1439
X1664Y1320
X1578Y1269
X1649Y1231
X1313Y765
X1673Y325
X802Y216
X2004Y1718
X1948Y1784
X2261Y1768
T13
X774Y1030
X771Y354
M30
