G75*
G70*
%OFA0B0*%
%FSLAX24Y24*%
%IPPOS*%
%LPD*%
%AMOC8*
5,1,8,0,0,1.08239X$1,22.5*
%
%ADD10C,0.0000*%
%ADD11C,0.0060*%
%ADD12C,0.0040*%
%ADD13C,0.0030*%
%ADD14C,0.0050*%
D10*
X001663Y001038D02*
X001715Y018350D01*
X025337Y018350D01*
X025285Y001038D01*
X025211Y001058D02*
X001663Y001038D01*
X002214Y002298D02*
X002217Y002362D01*
X002226Y002426D01*
X002240Y002489D01*
X002261Y002551D01*
X002286Y002610D01*
X002317Y002666D01*
X002353Y002720D01*
X002394Y002770D01*
X002439Y002816D01*
X002488Y002858D01*
X002541Y002895D01*
X002597Y002928D01*
X002655Y002955D01*
X002716Y002976D01*
X002779Y002992D01*
X002842Y003002D01*
X002907Y003007D01*
X002971Y003005D01*
X003036Y002998D01*
X003099Y002985D01*
X003160Y002966D01*
X003220Y002942D01*
X003277Y002912D01*
X003332Y002877D01*
X003383Y002838D01*
X003430Y002794D01*
X003473Y002745D01*
X003511Y002694D01*
X003545Y002638D01*
X003573Y002580D01*
X003596Y002520D01*
X003614Y002458D01*
X003625Y002395D01*
X003631Y002330D01*
X003631Y002266D01*
X003625Y002201D01*
X003614Y002138D01*
X003596Y002076D01*
X003573Y002016D01*
X003545Y001958D01*
X003511Y001902D01*
X003473Y001851D01*
X003430Y001802D01*
X003383Y001758D01*
X003332Y001719D01*
X003278Y001684D01*
X003220Y001654D01*
X003160Y001630D01*
X003099Y001611D01*
X003036Y001598D01*
X002971Y001591D01*
X002907Y001589D01*
X002842Y001594D01*
X002779Y001604D01*
X002716Y001620D01*
X002655Y001641D01*
X002597Y001668D01*
X002541Y001701D01*
X002488Y001738D01*
X002439Y001780D01*
X002394Y001826D01*
X002353Y001876D01*
X002317Y001930D01*
X002286Y001986D01*
X002261Y002045D01*
X002240Y002107D01*
X002226Y002170D01*
X002217Y002234D01*
X002214Y002298D01*
X002551Y006363D02*
X002554Y006426D01*
X002562Y006488D01*
X002577Y006549D01*
X002596Y006608D01*
X002621Y006666D01*
X002651Y006721D01*
X002686Y006773D01*
X002726Y006822D01*
X002770Y006867D01*
X002817Y006907D01*
X002869Y006943D01*
X002923Y006975D01*
X002980Y007001D01*
X003039Y007022D01*
X003100Y007038D01*
X003162Y007048D01*
X003224Y007052D01*
X003287Y007050D01*
X003349Y007043D01*
X003411Y007031D01*
X003471Y007012D01*
X003529Y006989D01*
X003584Y006960D01*
X003637Y006926D01*
X003687Y006887D01*
X003733Y006845D01*
X003774Y006798D01*
X003812Y006747D01*
X003844Y006694D01*
X003872Y006637D01*
X003894Y006579D01*
X003911Y006519D01*
X003923Y006457D01*
X003928Y006394D01*
X003928Y006332D01*
X003923Y006269D01*
X003911Y006207D01*
X003894Y006147D01*
X003872Y006089D01*
X003844Y006032D01*
X003812Y005979D01*
X003774Y005928D01*
X003733Y005881D01*
X003687Y005839D01*
X003637Y005800D01*
X003585Y005766D01*
X003529Y005737D01*
X003471Y005714D01*
X003411Y005695D01*
X003349Y005683D01*
X003287Y005676D01*
X003224Y005674D01*
X003162Y005678D01*
X003100Y005688D01*
X003039Y005704D01*
X002980Y005725D01*
X002923Y005751D01*
X002869Y005783D01*
X002817Y005819D01*
X002770Y005859D01*
X002726Y005904D01*
X002686Y005953D01*
X002651Y006005D01*
X002621Y006060D01*
X002596Y006118D01*
X002577Y006177D01*
X002562Y006238D01*
X002554Y006300D01*
X002551Y006363D01*
X002537Y008487D02*
X002540Y008550D01*
X002548Y008612D01*
X002563Y008673D01*
X002582Y008732D01*
X002607Y008790D01*
X002637Y008845D01*
X002672Y008897D01*
X002712Y008946D01*
X002756Y008991D01*
X002803Y009031D01*
X002855Y009067D01*
X002909Y009099D01*
X002966Y009125D01*
X003025Y009146D01*
X003086Y009162D01*
X003148Y009172D01*
X003210Y009176D01*
X003273Y009174D01*
X003335Y009167D01*
X003397Y009155D01*
X003457Y009136D01*
X003515Y009113D01*
X003570Y009084D01*
X003623Y009050D01*
X003673Y009011D01*
X003719Y008969D01*
X003760Y008922D01*
X003798Y008871D01*
X003830Y008818D01*
X003858Y008761D01*
X003880Y008703D01*
X003897Y008643D01*
X003909Y008581D01*
X003914Y008518D01*
X003914Y008456D01*
X003909Y008393D01*
X003897Y008331D01*
X003880Y008271D01*
X003858Y008213D01*
X003830Y008156D01*
X003798Y008103D01*
X003760Y008052D01*
X003719Y008005D01*
X003673Y007963D01*
X003623Y007924D01*
X003571Y007890D01*
X003515Y007861D01*
X003457Y007838D01*
X003397Y007819D01*
X003335Y007807D01*
X003273Y007800D01*
X003210Y007798D01*
X003148Y007802D01*
X003086Y007812D01*
X003025Y007828D01*
X002966Y007849D01*
X002909Y007875D01*
X002855Y007907D01*
X002803Y007943D01*
X002756Y007983D01*
X002712Y008028D01*
X002672Y008077D01*
X002637Y008129D01*
X002607Y008184D01*
X002582Y008242D01*
X002563Y008301D01*
X002548Y008362D01*
X002540Y008424D01*
X002537Y008487D01*
X002266Y017090D02*
X002269Y017154D01*
X002278Y017218D01*
X002292Y017281D01*
X002313Y017343D01*
X002338Y017402D01*
X002369Y017458D01*
X002405Y017512D01*
X002446Y017562D01*
X002491Y017608D01*
X002540Y017650D01*
X002593Y017687D01*
X002649Y017720D01*
X002707Y017747D01*
X002768Y017768D01*
X002831Y017784D01*
X002894Y017794D01*
X002959Y017799D01*
X003023Y017797D01*
X003088Y017790D01*
X003151Y017777D01*
X003212Y017758D01*
X003272Y017734D01*
X003329Y017704D01*
X003384Y017669D01*
X003435Y017630D01*
X003482Y017586D01*
X003525Y017537D01*
X003563Y017486D01*
X003597Y017430D01*
X003625Y017372D01*
X003648Y017312D01*
X003666Y017250D01*
X003677Y017187D01*
X003683Y017122D01*
X003683Y017058D01*
X003677Y016993D01*
X003666Y016930D01*
X003648Y016868D01*
X003625Y016808D01*
X003597Y016750D01*
X003563Y016694D01*
X003525Y016643D01*
X003482Y016594D01*
X003435Y016550D01*
X003384Y016511D01*
X003330Y016476D01*
X003272Y016446D01*
X003212Y016422D01*
X003151Y016403D01*
X003088Y016390D01*
X003023Y016383D01*
X002959Y016381D01*
X002894Y016386D01*
X002831Y016396D01*
X002768Y016412D01*
X002707Y016433D01*
X002649Y016460D01*
X002593Y016493D01*
X002540Y016530D01*
X002491Y016572D01*
X002446Y016618D01*
X002405Y016668D01*
X002369Y016722D01*
X002338Y016778D01*
X002313Y016837D01*
X002292Y016899D01*
X002278Y016962D01*
X002269Y017026D01*
X002266Y017090D01*
X005954Y017526D02*
X005956Y017562D01*
X005962Y017597D01*
X005972Y017632D01*
X005986Y017665D01*
X006004Y017696D01*
X006025Y017725D01*
X006049Y017752D01*
X006077Y017775D01*
X006106Y017796D01*
X006138Y017813D01*
X006172Y017826D01*
X006206Y017835D01*
X006242Y017840D01*
X006278Y017841D01*
X006314Y017838D01*
X006349Y017831D01*
X006383Y017820D01*
X006416Y017805D01*
X006447Y017786D01*
X006475Y017764D01*
X006501Y017739D01*
X006524Y017711D01*
X006543Y017681D01*
X006559Y017649D01*
X006571Y017615D01*
X006579Y017580D01*
X006583Y017544D01*
X006583Y017508D01*
X006579Y017472D01*
X006571Y017437D01*
X006559Y017403D01*
X006543Y017371D01*
X006524Y017341D01*
X006501Y017313D01*
X006475Y017288D01*
X006447Y017266D01*
X006416Y017247D01*
X006383Y017232D01*
X006349Y017221D01*
X006314Y017214D01*
X006278Y017211D01*
X006242Y017212D01*
X006206Y017217D01*
X006172Y017226D01*
X006138Y017239D01*
X006106Y017256D01*
X006077Y017277D01*
X006049Y017300D01*
X006025Y017327D01*
X006004Y017356D01*
X005986Y017387D01*
X005972Y017420D01*
X005962Y017455D01*
X005956Y017490D01*
X005954Y017526D01*
X007023Y017575D02*
X007025Y017611D01*
X007031Y017646D01*
X007041Y017681D01*
X007055Y017714D01*
X007073Y017745D01*
X007094Y017774D01*
X007118Y017801D01*
X007146Y017824D01*
X007175Y017845D01*
X007207Y017862D01*
X007241Y017875D01*
X007275Y017884D01*
X007311Y017889D01*
X007347Y017890D01*
X007383Y017887D01*
X007418Y017880D01*
X007452Y017869D01*
X007485Y017854D01*
X007516Y017835D01*
X007544Y017813D01*
X007570Y017788D01*
X007593Y017760D01*
X007612Y017730D01*
X007628Y017698D01*
X007640Y017664D01*
X007648Y017629D01*
X007652Y017593D01*
X007652Y017557D01*
X007648Y017521D01*
X007640Y017486D01*
X007628Y017452D01*
X007612Y017420D01*
X007593Y017390D01*
X007570Y017362D01*
X007544Y017337D01*
X007516Y017315D01*
X007485Y017296D01*
X007452Y017281D01*
X007418Y017270D01*
X007383Y017263D01*
X007347Y017260D01*
X007311Y017261D01*
X007275Y017266D01*
X007241Y017275D01*
X007207Y017288D01*
X007175Y017305D01*
X007146Y017326D01*
X007118Y017349D01*
X007094Y017376D01*
X007073Y017405D01*
X007055Y017436D01*
X007041Y017469D01*
X007031Y017504D01*
X007025Y017539D01*
X007023Y017575D01*
X008142Y017609D02*
X008144Y017645D01*
X008150Y017680D01*
X008160Y017715D01*
X008174Y017748D01*
X008192Y017779D01*
X008213Y017808D01*
X008237Y017835D01*
X008265Y017858D01*
X008294Y017879D01*
X008326Y017896D01*
X008360Y017909D01*
X008394Y017918D01*
X008430Y017923D01*
X008466Y017924D01*
X008502Y017921D01*
X008537Y017914D01*
X008571Y017903D01*
X008604Y017888D01*
X008635Y017869D01*
X008663Y017847D01*
X008689Y017822D01*
X008712Y017794D01*
X008731Y017764D01*
X008747Y017732D01*
X008759Y017698D01*
X008767Y017663D01*
X008771Y017627D01*
X008771Y017591D01*
X008767Y017555D01*
X008759Y017520D01*
X008747Y017486D01*
X008731Y017454D01*
X008712Y017424D01*
X008689Y017396D01*
X008663Y017371D01*
X008635Y017349D01*
X008604Y017330D01*
X008571Y017315D01*
X008537Y017304D01*
X008502Y017297D01*
X008466Y017294D01*
X008430Y017295D01*
X008394Y017300D01*
X008360Y017309D01*
X008326Y017322D01*
X008294Y017339D01*
X008265Y017360D01*
X008237Y017383D01*
X008213Y017410D01*
X008192Y017439D01*
X008174Y017470D01*
X008160Y017503D01*
X008150Y017538D01*
X008144Y017573D01*
X008142Y017609D01*
X023368Y017090D02*
X023371Y017154D01*
X023380Y017218D01*
X023394Y017281D01*
X023415Y017343D01*
X023440Y017402D01*
X023471Y017458D01*
X023507Y017512D01*
X023548Y017562D01*
X023593Y017608D01*
X023642Y017650D01*
X023695Y017687D01*
X023751Y017720D01*
X023809Y017747D01*
X023870Y017768D01*
X023933Y017784D01*
X023996Y017794D01*
X024061Y017799D01*
X024125Y017797D01*
X024190Y017790D01*
X024253Y017777D01*
X024314Y017758D01*
X024374Y017734D01*
X024431Y017704D01*
X024486Y017669D01*
X024537Y017630D01*
X024584Y017586D01*
X024627Y017537D01*
X024665Y017486D01*
X024699Y017430D01*
X024727Y017372D01*
X024750Y017312D01*
X024768Y017250D01*
X024779Y017187D01*
X024785Y017122D01*
X024785Y017058D01*
X024779Y016993D01*
X024768Y016930D01*
X024750Y016868D01*
X024727Y016808D01*
X024699Y016750D01*
X024665Y016694D01*
X024627Y016643D01*
X024584Y016594D01*
X024537Y016550D01*
X024486Y016511D01*
X024432Y016476D01*
X024374Y016446D01*
X024314Y016422D01*
X024253Y016403D01*
X024190Y016390D01*
X024125Y016383D01*
X024061Y016381D01*
X023996Y016386D01*
X023933Y016396D01*
X023870Y016412D01*
X023809Y016433D01*
X023751Y016460D01*
X023695Y016493D01*
X023642Y016530D01*
X023593Y016572D01*
X023548Y016618D01*
X023507Y016668D01*
X023471Y016722D01*
X023440Y016778D01*
X023415Y016837D01*
X023394Y016899D01*
X023380Y016962D01*
X023371Y017026D01*
X023368Y017090D01*
X021855Y004268D02*
X021858Y004331D01*
X021866Y004393D01*
X021881Y004454D01*
X021900Y004513D01*
X021925Y004571D01*
X021955Y004626D01*
X021990Y004678D01*
X022030Y004727D01*
X022074Y004772D01*
X022121Y004812D01*
X022173Y004848D01*
X022227Y004880D01*
X022284Y004906D01*
X022343Y004927D01*
X022404Y004943D01*
X022466Y004953D01*
X022528Y004957D01*
X022591Y004955D01*
X022653Y004948D01*
X022715Y004936D01*
X022775Y004917D01*
X022833Y004894D01*
X022888Y004865D01*
X022941Y004831D01*
X022991Y004792D01*
X023037Y004750D01*
X023078Y004703D01*
X023116Y004652D01*
X023148Y004599D01*
X023176Y004542D01*
X023198Y004484D01*
X023215Y004424D01*
X023227Y004362D01*
X023232Y004299D01*
X023232Y004237D01*
X023227Y004174D01*
X023215Y004112D01*
X023198Y004052D01*
X023176Y003994D01*
X023148Y003937D01*
X023116Y003884D01*
X023078Y003833D01*
X023037Y003786D01*
X022991Y003744D01*
X022941Y003705D01*
X022889Y003671D01*
X022833Y003642D01*
X022775Y003619D01*
X022715Y003600D01*
X022653Y003588D01*
X022591Y003581D01*
X022528Y003579D01*
X022466Y003583D01*
X022404Y003593D01*
X022343Y003609D01*
X022284Y003630D01*
X022227Y003656D01*
X022173Y003688D01*
X022121Y003724D01*
X022074Y003764D01*
X022030Y003809D01*
X021990Y003858D01*
X021955Y003910D01*
X021925Y003965D01*
X021900Y004023D01*
X021881Y004082D01*
X021866Y004143D01*
X021858Y004205D01*
X021855Y004268D01*
X019441Y002424D02*
X019444Y002487D01*
X019452Y002549D01*
X019467Y002610D01*
X019486Y002669D01*
X019511Y002727D01*
X019541Y002782D01*
X019576Y002834D01*
X019616Y002883D01*
X019660Y002928D01*
X019707Y002968D01*
X019759Y003004D01*
X019813Y003036D01*
X019870Y003062D01*
X019929Y003083D01*
X019990Y003099D01*
X020052Y003109D01*
X020114Y003113D01*
X020177Y003111D01*
X020239Y003104D01*
X020301Y003092D01*
X020361Y003073D01*
X020419Y003050D01*
X020474Y003021D01*
X020527Y002987D01*
X020577Y002948D01*
X020623Y002906D01*
X020664Y002859D01*
X020702Y002808D01*
X020734Y002755D01*
X020762Y002698D01*
X020784Y002640D01*
X020801Y002580D01*
X020813Y002518D01*
X020818Y002455D01*
X020818Y002393D01*
X020813Y002330D01*
X020801Y002268D01*
X020784Y002208D01*
X020762Y002150D01*
X020734Y002093D01*
X020702Y002040D01*
X020664Y001989D01*
X020623Y001942D01*
X020577Y001900D01*
X020527Y001861D01*
X020475Y001827D01*
X020419Y001798D01*
X020361Y001775D01*
X020301Y001756D01*
X020239Y001744D01*
X020177Y001737D01*
X020114Y001735D01*
X020052Y001739D01*
X019990Y001749D01*
X019929Y001765D01*
X019870Y001786D01*
X019813Y001812D01*
X019759Y001844D01*
X019707Y001880D01*
X019660Y001920D01*
X019616Y001965D01*
X019576Y002014D01*
X019541Y002066D01*
X019511Y002121D01*
X019486Y002179D01*
X019467Y002238D01*
X019452Y002299D01*
X019444Y002361D01*
X019441Y002424D01*
X023316Y002298D02*
X023319Y002362D01*
X023328Y002426D01*
X023342Y002489D01*
X023363Y002551D01*
X023388Y002610D01*
X023419Y002666D01*
X023455Y002720D01*
X023496Y002770D01*
X023541Y002816D01*
X023590Y002858D01*
X023643Y002895D01*
X023699Y002928D01*
X023757Y002955D01*
X023818Y002976D01*
X023881Y002992D01*
X023944Y003002D01*
X024009Y003007D01*
X024073Y003005D01*
X024138Y002998D01*
X024201Y002985D01*
X024262Y002966D01*
X024322Y002942D01*
X024379Y002912D01*
X024434Y002877D01*
X024485Y002838D01*
X024532Y002794D01*
X024575Y002745D01*
X024613Y002694D01*
X024647Y002638D01*
X024675Y002580D01*
X024698Y002520D01*
X024716Y002458D01*
X024727Y002395D01*
X024733Y002330D01*
X024733Y002266D01*
X024727Y002201D01*
X024716Y002138D01*
X024698Y002076D01*
X024675Y002016D01*
X024647Y001958D01*
X024613Y001902D01*
X024575Y001851D01*
X024532Y001802D01*
X024485Y001758D01*
X024434Y001719D01*
X024380Y001684D01*
X024322Y001654D01*
X024262Y001630D01*
X024201Y001611D01*
X024138Y001598D01*
X024073Y001591D01*
X024009Y001589D01*
X023944Y001594D01*
X023881Y001604D01*
X023818Y001620D01*
X023757Y001641D01*
X023699Y001668D01*
X023643Y001701D01*
X023590Y001738D01*
X023541Y001780D01*
X023496Y001826D01*
X023455Y001876D01*
X023419Y001930D01*
X023388Y001986D01*
X023363Y002045D01*
X023342Y002107D01*
X023328Y002170D01*
X023319Y002234D01*
X023316Y002298D01*
D11*
X005064Y004139D02*
X005064Y004566D01*
X004958Y004783D02*
X005064Y004890D01*
X005064Y005103D01*
X004958Y005210D01*
X004531Y005210D01*
X004424Y005103D01*
X004424Y004890D01*
X004531Y004783D01*
X004958Y004783D01*
X005064Y004139D02*
X004424Y004139D01*
X004637Y005428D02*
X004424Y005641D01*
X004637Y005855D01*
X005064Y005855D01*
X005064Y006072D02*
X005064Y006392D01*
X004958Y006499D01*
X004531Y006499D01*
X004424Y006392D01*
X004424Y006072D01*
X005064Y006072D01*
X004744Y005855D02*
X004744Y005428D01*
X004637Y005428D02*
X005064Y005428D01*
X004682Y008617D02*
X004682Y009044D01*
X004575Y009262D02*
X004361Y009475D01*
X005002Y009475D01*
X005002Y009262D02*
X005002Y009689D01*
X005002Y009906D02*
X004575Y010333D01*
X004468Y010333D01*
X004361Y010227D01*
X004361Y010013D01*
X004468Y009906D01*
X005002Y009906D02*
X005002Y010333D01*
X004788Y010551D02*
X005002Y010764D01*
X004788Y010978D01*
X004361Y010978D01*
X004361Y010551D02*
X004788Y010551D01*
X004895Y008831D02*
X004468Y008831D01*
D12*
X006593Y009049D02*
X006940Y009049D01*
X006766Y009222D02*
X006766Y008875D01*
X006680Y009391D02*
X006506Y009564D01*
X007026Y009564D01*
X007026Y009391D02*
X007026Y009738D01*
X007026Y009906D02*
X006680Y010253D01*
X006593Y010253D01*
X006506Y010166D01*
X006506Y009993D01*
X006593Y009906D01*
X007026Y009906D02*
X007026Y010253D01*
X007026Y010595D02*
X006680Y010769D01*
X006680Y010422D02*
X007026Y010595D01*
X020765Y006260D02*
X021112Y006260D01*
X021286Y006087D01*
X021112Y005913D01*
X020765Y005913D01*
X020852Y005745D02*
X020765Y005658D01*
X020765Y005484D01*
X020852Y005398D01*
X020852Y005745D02*
X020939Y005745D01*
X021286Y005398D01*
X021286Y005745D01*
X021286Y005229D02*
X021286Y004882D01*
X021286Y005056D02*
X020765Y005056D01*
X020939Y004882D01*
X021025Y004713D02*
X021025Y004366D01*
X024430Y006140D02*
X024776Y006140D01*
X024603Y006313D02*
X024603Y005966D01*
X024516Y006482D02*
X024343Y006656D01*
X024863Y006656D01*
X024863Y006829D02*
X024863Y006482D01*
X024863Y006998D02*
X024516Y007345D01*
X024430Y007345D01*
X024343Y007258D01*
X024343Y007084D01*
X024430Y006998D01*
X024863Y006998D02*
X024863Y007345D01*
X024690Y007513D02*
X024863Y007687D01*
X024690Y007860D01*
X024343Y007860D01*
X024343Y007513D02*
X024690Y007513D01*
D13*
X017550Y007491D02*
X017550Y007443D01*
X017502Y007394D01*
X017550Y007346D01*
X017550Y007298D01*
X017502Y007249D01*
X017405Y007249D01*
X017357Y007298D01*
X017256Y007249D02*
X017062Y007249D01*
X017159Y007249D02*
X017159Y007539D01*
X017062Y007443D01*
X016961Y007491D02*
X016961Y007394D01*
X016913Y007346D01*
X016768Y007346D01*
X016864Y007346D02*
X016961Y007249D01*
X016768Y007249D02*
X016768Y007539D01*
X016913Y007539D01*
X016961Y007491D01*
X017357Y007491D02*
X017405Y007539D01*
X017502Y007539D01*
X017550Y007491D01*
X017502Y007394D02*
X017454Y007394D01*
X016127Y008072D02*
X016079Y008024D01*
X015982Y008024D01*
X015934Y008072D01*
X016127Y008265D01*
X016127Y008072D01*
X015934Y008072D02*
X015934Y008265D01*
X015982Y008314D01*
X016079Y008314D01*
X016127Y008265D01*
X015832Y008265D02*
X015832Y008217D01*
X015639Y008024D01*
X015832Y008024D01*
X015538Y008024D02*
X015344Y008024D01*
X015441Y008024D02*
X015441Y008314D01*
X015344Y008217D01*
X015243Y008217D02*
X015243Y008265D01*
X015195Y008314D01*
X015098Y008314D01*
X015050Y008265D01*
X014949Y008265D02*
X014949Y008169D01*
X014900Y008120D01*
X014755Y008120D01*
X014755Y008024D02*
X014755Y008314D01*
X014900Y008314D01*
X014949Y008265D01*
X015050Y008072D02*
X015098Y008024D01*
X015195Y008024D01*
X015243Y008072D01*
X015243Y008120D01*
X015195Y008169D01*
X015146Y008169D01*
X015195Y008169D02*
X015243Y008217D01*
X015639Y008265D02*
X015687Y008314D01*
X015784Y008314D01*
X015832Y008265D01*
X014654Y008265D02*
X014654Y008072D01*
X014606Y008024D01*
X014460Y008024D01*
X014460Y008314D01*
X014606Y008314D01*
X014654Y008265D01*
X014359Y008217D02*
X014359Y008024D01*
X014359Y008169D02*
X014166Y008169D01*
X014166Y008217D02*
X014263Y008314D01*
X014359Y008217D01*
X014166Y008217D02*
X014166Y008024D01*
X016181Y006344D02*
X016327Y006344D01*
X016375Y006295D01*
X016375Y006199D01*
X016327Y006150D01*
X016181Y006150D01*
X016181Y006054D02*
X016181Y006344D01*
X016278Y006150D02*
X016375Y006054D01*
X016476Y006054D02*
X016670Y006054D01*
X016573Y006054D02*
X016573Y006344D01*
X016476Y006247D01*
X016771Y006199D02*
X016771Y006344D01*
X016964Y006344D01*
X016916Y006247D02*
X016964Y006199D01*
X016964Y006102D01*
X016916Y006054D01*
X016819Y006054D01*
X016771Y006102D01*
X016771Y006199D02*
X016867Y006247D01*
X016916Y006247D01*
X016878Y005168D02*
X016975Y005168D01*
X017023Y005119D01*
X017023Y005071D01*
X016975Y005023D01*
X017023Y004974D01*
X017023Y004926D01*
X016975Y004878D01*
X016878Y004878D01*
X016830Y004926D01*
X016729Y004878D02*
X016632Y004974D01*
X016680Y004974D02*
X016535Y004974D01*
X016535Y004878D02*
X016535Y005168D01*
X016680Y005168D01*
X016729Y005119D01*
X016729Y005023D01*
X016680Y004974D01*
X016830Y005119D02*
X016878Y005168D01*
X016927Y005023D02*
X016975Y005023D01*
X017021Y002588D02*
X017166Y002588D01*
X017215Y002539D01*
X017215Y002442D01*
X017166Y002394D01*
X017021Y002394D01*
X017021Y002297D02*
X017021Y002588D01*
X017118Y002394D02*
X017215Y002297D01*
X017316Y002346D02*
X017364Y002297D01*
X017461Y002297D01*
X017509Y002346D01*
X017509Y002539D01*
X017461Y002588D01*
X017364Y002588D01*
X017316Y002539D01*
X017316Y002491D01*
X017364Y002442D01*
X017509Y002442D01*
X016448Y002481D02*
X016448Y002287D01*
X016400Y002239D01*
X016303Y002239D01*
X016255Y002287D01*
X016303Y002384D02*
X016448Y002384D01*
X016448Y002481D02*
X016400Y002529D01*
X016303Y002529D01*
X016255Y002481D01*
X016255Y002432D01*
X016303Y002384D01*
X016154Y002432D02*
X016154Y002481D01*
X016105Y002529D01*
X016008Y002529D01*
X015960Y002481D01*
X015859Y002481D02*
X015811Y002529D01*
X015714Y002529D01*
X015665Y002481D01*
X015859Y002481D02*
X015859Y002432D01*
X015665Y002239D01*
X015859Y002239D01*
X015960Y002239D02*
X016154Y002432D01*
X016154Y002239D02*
X015960Y002239D01*
X015564Y002239D02*
X015371Y002239D01*
X015468Y002239D02*
X015468Y002529D01*
X015371Y002432D01*
X015270Y002432D02*
X015221Y002384D01*
X015270Y002336D01*
X015270Y002287D01*
X015221Y002239D01*
X015125Y002239D01*
X015076Y002287D01*
X014975Y002239D02*
X014782Y002239D01*
X014975Y002432D01*
X014975Y002481D01*
X014927Y002529D01*
X014830Y002529D01*
X014782Y002481D01*
X015076Y002481D02*
X015125Y002529D01*
X015221Y002529D01*
X015270Y002481D01*
X015270Y002432D01*
X015221Y002384D02*
X015173Y002384D01*
X015347Y001687D02*
X015299Y001639D01*
X015299Y001397D01*
X015347Y001542D02*
X015250Y001542D01*
X015150Y001590D02*
X015101Y001590D01*
X015005Y001494D01*
X015005Y001590D02*
X015005Y001397D01*
X014904Y001445D02*
X014904Y001590D01*
X014904Y001445D02*
X014855Y001397D01*
X014807Y001445D01*
X014758Y001397D01*
X014710Y001445D01*
X014710Y001590D01*
X014609Y001542D02*
X014561Y001590D01*
X014415Y001590D01*
X014415Y001300D01*
X014415Y001397D02*
X014561Y001397D01*
X014609Y001445D01*
X014609Y001542D01*
X014314Y001542D02*
X014121Y001542D01*
X014020Y001542D02*
X013971Y001590D01*
X013826Y001590D01*
X013826Y001687D02*
X013826Y001397D01*
X013971Y001397D01*
X014020Y001445D01*
X014020Y001542D01*
X013725Y001590D02*
X013725Y001397D01*
X013580Y001397D01*
X013531Y001445D01*
X013531Y001590D01*
X013430Y001590D02*
X013285Y001590D01*
X013237Y001542D01*
X013285Y001494D01*
X013382Y001494D01*
X013430Y001445D01*
X013382Y001397D01*
X013237Y001397D01*
X012942Y001397D02*
X013136Y001687D01*
X012841Y001542D02*
X012841Y001494D01*
X012648Y001494D01*
X012648Y001542D02*
X012696Y001590D01*
X012793Y001590D01*
X012841Y001542D01*
X012793Y001397D02*
X012696Y001397D01*
X012648Y001445D01*
X012648Y001542D01*
X012548Y001397D02*
X012451Y001397D01*
X012499Y001397D02*
X012499Y001687D01*
X012451Y001687D01*
X012350Y001590D02*
X012205Y001590D01*
X012156Y001542D01*
X012156Y001445D01*
X012205Y001397D01*
X012350Y001397D01*
X012350Y001348D02*
X012350Y001590D01*
X012055Y001542D02*
X012055Y001397D01*
X011910Y001397D01*
X011862Y001445D01*
X011910Y001494D01*
X012055Y001494D01*
X012055Y001542D02*
X012007Y001590D01*
X011910Y001590D01*
X011761Y001542D02*
X011761Y001494D01*
X011567Y001494D01*
X011567Y001542D02*
X011616Y001590D01*
X011712Y001590D01*
X011761Y001542D01*
X011712Y001397D02*
X011616Y001397D01*
X011567Y001445D01*
X011567Y001542D01*
X011466Y001687D02*
X011273Y001397D01*
X011171Y001445D02*
X011171Y001590D01*
X011171Y001445D02*
X011123Y001397D01*
X011075Y001445D01*
X011026Y001397D01*
X010978Y001445D01*
X010978Y001590D01*
X010877Y001542D02*
X010828Y001590D01*
X010732Y001590D01*
X010683Y001542D01*
X010683Y001687D02*
X010683Y001397D01*
X010877Y001397D02*
X010877Y001542D01*
X010582Y001687D02*
X010389Y001397D01*
X010289Y001397D02*
X010241Y001445D01*
X010241Y001639D01*
X010289Y001590D02*
X010192Y001590D01*
X010091Y001542D02*
X010043Y001590D01*
X009946Y001590D01*
X009898Y001542D01*
X009898Y001445D01*
X009946Y001397D01*
X010043Y001397D01*
X010091Y001445D01*
X010091Y001542D01*
X009796Y001542D02*
X009748Y001590D01*
X009700Y001542D01*
X009700Y001397D01*
X009796Y001397D02*
X009796Y001542D01*
X009700Y001542D02*
X009651Y001590D01*
X009603Y001590D01*
X009603Y001397D01*
X009502Y001445D02*
X009453Y001494D01*
X009357Y001494D01*
X009308Y001542D01*
X009357Y001590D01*
X009502Y001590D01*
X009502Y001445D02*
X009453Y001397D01*
X009308Y001397D01*
X009207Y001397D02*
X009207Y001542D01*
X009159Y001590D01*
X009110Y001542D01*
X009110Y001397D01*
X009014Y001397D02*
X009014Y001590D01*
X009062Y001590D01*
X009110Y001542D01*
X008912Y001542D02*
X008864Y001590D01*
X008719Y001590D01*
X008719Y001687D02*
X008719Y001397D01*
X008864Y001397D01*
X008912Y001445D01*
X008912Y001542D01*
X008914Y001929D02*
X008791Y002052D01*
X008852Y002052D02*
X008667Y002052D01*
X008667Y001929D02*
X008667Y002299D01*
X008852Y002299D01*
X008914Y002237D01*
X008914Y002114D01*
X008852Y002052D01*
X009036Y002114D02*
X009159Y002114D01*
X009036Y002299D02*
X009282Y002299D01*
X009404Y002237D02*
X009404Y002176D01*
X009466Y002114D01*
X009589Y002114D01*
X009651Y002052D01*
X009651Y001990D01*
X009589Y001929D01*
X009466Y001929D01*
X009404Y001990D01*
X009404Y002237D02*
X009466Y002299D01*
X009589Y002299D01*
X009651Y002237D01*
X009772Y002237D02*
X009834Y002299D01*
X009957Y002299D01*
X010019Y002237D01*
X010019Y002176D01*
X009957Y002114D01*
X010019Y002052D01*
X010019Y001990D01*
X009957Y001929D01*
X009834Y001929D01*
X009772Y001990D01*
X009896Y002114D02*
X009957Y002114D01*
X010140Y002237D02*
X010140Y001990D01*
X010387Y002237D01*
X010387Y001990D01*
X010326Y001929D01*
X010202Y001929D01*
X010140Y001990D01*
X010140Y002237D02*
X010202Y002299D01*
X010326Y002299D01*
X010387Y002237D01*
X010509Y002237D02*
X010509Y001990D01*
X010756Y002237D01*
X010756Y001990D01*
X010694Y001929D01*
X010570Y001929D01*
X010509Y001990D01*
X010509Y002237D02*
X010570Y002299D01*
X010694Y002299D01*
X010756Y002237D01*
X010877Y002299D02*
X011124Y002299D01*
X011124Y002237D01*
X010877Y001990D01*
X010877Y001929D01*
X011245Y002114D02*
X011492Y002114D01*
X011614Y001990D02*
X011614Y001929D01*
X011614Y001990D02*
X011861Y002237D01*
X011861Y002299D01*
X011614Y002299D01*
X012253Y001300D02*
X012302Y001300D01*
X012350Y001348D01*
X015447Y001445D02*
X015447Y001542D01*
X015495Y001590D01*
X015592Y001590D01*
X015640Y001542D01*
X015640Y001494D01*
X015447Y001494D01*
X015447Y001445D02*
X015495Y001397D01*
X015592Y001397D01*
X015790Y001445D02*
X015838Y001397D01*
X015790Y001445D02*
X015790Y001639D01*
X015838Y001590D02*
X015741Y001590D01*
X015938Y001542D02*
X016131Y001542D01*
X016232Y001590D02*
X016329Y001397D01*
X016426Y001590D01*
X016527Y001542D02*
X016720Y001542D01*
X016672Y001397D02*
X016672Y001687D01*
X016527Y001542D01*
X013312Y004010D02*
X013021Y004010D01*
X013021Y004203D01*
X013021Y004304D02*
X013312Y004304D01*
X013312Y004498D01*
X013167Y004401D02*
X013167Y004304D01*
X013021Y004304D02*
X013021Y004498D01*
X013021Y004599D02*
X013021Y004792D01*
X013021Y004696D02*
X013312Y004696D01*
X013312Y004894D02*
X013312Y005087D01*
X013312Y004990D02*
X013021Y004990D01*
X013118Y004894D01*
X013021Y005188D02*
X013312Y005188D01*
X013312Y005382D01*
X013263Y005483D02*
X013312Y005531D01*
X013312Y005628D01*
X013263Y005676D01*
X013070Y005676D01*
X013021Y005628D01*
X013021Y005531D01*
X013070Y005483D01*
X013263Y005483D01*
X013167Y004106D02*
X013167Y004010D01*
X009036Y002299D02*
X009036Y001929D01*
X008545Y001929D02*
X008422Y001929D01*
X008483Y001929D02*
X008483Y002299D01*
X008422Y002299D02*
X008545Y002299D01*
X005875Y002866D02*
X005875Y003060D01*
X005826Y003108D01*
X005681Y003108D01*
X005681Y002818D01*
X005826Y002818D01*
X005875Y002866D01*
X005580Y002818D02*
X005580Y003011D01*
X005483Y003108D01*
X005387Y003011D01*
X005387Y002818D01*
X005286Y002866D02*
X005286Y003060D01*
X005237Y003108D01*
X005140Y003108D01*
X005092Y003060D01*
X005092Y002866D01*
X005140Y002818D01*
X005237Y002818D01*
X005286Y002866D01*
X005387Y002963D02*
X005580Y002963D01*
X004991Y002818D02*
X004797Y002818D01*
X004797Y003108D01*
X010477Y009920D02*
X010477Y010065D01*
X010525Y010114D01*
X010622Y010114D01*
X010671Y010065D01*
X010671Y009920D01*
X010767Y009920D02*
X010477Y009920D01*
X010671Y010017D02*
X010767Y010114D01*
X010767Y010215D02*
X010767Y010408D01*
X010767Y010311D02*
X010477Y010311D01*
X010574Y010215D01*
X010525Y010509D02*
X010477Y010558D01*
X010477Y010654D01*
X010525Y010703D01*
X010719Y010509D01*
X010767Y010558D01*
X010767Y010654D01*
X010719Y010703D01*
X010525Y010703D01*
X010525Y010509D02*
X010719Y010509D01*
X011592Y010211D02*
X011592Y010018D01*
X011640Y009970D01*
X011737Y009970D01*
X011785Y010018D01*
X011785Y010115D01*
X011689Y010115D01*
X011785Y010211D02*
X011737Y010260D01*
X011640Y010260D01*
X011592Y010211D01*
X011886Y010163D02*
X011983Y010260D01*
X012080Y010163D01*
X012080Y009970D01*
X012080Y010115D02*
X011886Y010115D01*
X011886Y010163D02*
X011886Y009970D01*
X012278Y009970D02*
X012278Y010260D01*
X012181Y010260D02*
X012375Y010260D01*
X012476Y010260D02*
X012476Y009970D01*
X012669Y009970D01*
X012572Y010115D02*
X012476Y010115D01*
X012476Y010260D02*
X012669Y010260D01*
X013086Y010702D02*
X013279Y010702D01*
X013327Y010751D01*
X013327Y010848D01*
X013279Y010896D01*
X013279Y010997D02*
X013327Y010997D01*
X013279Y010997D02*
X013086Y011191D01*
X013037Y011191D01*
X013037Y010997D01*
X013086Y010896D02*
X013037Y010848D01*
X013037Y010751D01*
X013086Y010702D01*
X010985Y013383D02*
X010888Y013383D01*
X010840Y013431D01*
X011033Y013624D01*
X011033Y013431D01*
X010985Y013383D01*
X010840Y013431D02*
X010840Y013624D01*
X010888Y013673D01*
X010985Y013673D01*
X011033Y013624D01*
X010739Y013624D02*
X010545Y013431D01*
X010594Y013383D01*
X010690Y013383D01*
X010739Y013431D01*
X010739Y013624D01*
X010690Y013673D01*
X010594Y013673D01*
X010545Y013624D01*
X010545Y013431D01*
X010444Y013383D02*
X010251Y013383D01*
X010347Y013383D02*
X010347Y013673D01*
X010251Y013576D01*
X010149Y013673D02*
X009956Y013673D01*
X010053Y013673D02*
X010053Y013383D01*
X009855Y013528D02*
X009806Y013479D01*
X009661Y013479D01*
X009661Y013383D02*
X009661Y013673D01*
X009806Y013673D01*
X009855Y013624D01*
X009855Y013528D01*
X009560Y013431D02*
X009560Y013624D01*
X009512Y013673D01*
X009415Y013673D01*
X009367Y013624D01*
X009367Y013431D01*
X009415Y013383D01*
X009512Y013383D01*
X009560Y013431D01*
X011833Y014837D02*
X011833Y015127D01*
X012127Y015127D02*
X012224Y015030D01*
X012321Y015127D01*
X012321Y014837D01*
X012422Y014837D02*
X012422Y014885D01*
X012615Y015079D01*
X012615Y015127D01*
X012422Y015127D01*
X012127Y015127D02*
X012127Y014837D01*
X012026Y014837D02*
X011833Y014837D01*
X012717Y014885D02*
X012717Y014933D01*
X012765Y014982D01*
X012862Y014982D01*
X012910Y014933D01*
X012910Y014885D01*
X012862Y014837D01*
X012765Y014837D01*
X012717Y014885D01*
X012765Y014982D02*
X012717Y015030D01*
X012717Y015079D01*
X012765Y015127D01*
X012862Y015127D01*
X012910Y015079D01*
X012910Y015030D01*
X012862Y014982D01*
X013011Y015127D02*
X013011Y014837D01*
X013205Y014837D01*
X013306Y014837D02*
X013499Y015127D01*
X013600Y015127D02*
X013794Y014837D01*
X013895Y014837D02*
X014089Y014837D01*
X013992Y014837D02*
X013992Y015127D01*
X013895Y015030D01*
X013794Y015127D02*
X013600Y014837D01*
X013499Y014837D02*
X013306Y015127D01*
X011471Y016399D02*
X011471Y016448D01*
X011422Y016496D01*
X011180Y016496D01*
X011180Y016448D02*
X011180Y016545D01*
X011180Y016646D02*
X011180Y016791D01*
X011229Y016839D01*
X011325Y016839D01*
X011374Y016791D01*
X011374Y016646D01*
X011471Y016646D02*
X011180Y016646D01*
X011422Y016351D02*
X011471Y016399D01*
X011471Y016940D02*
X011277Y017134D01*
X011229Y017134D01*
X011180Y017085D01*
X011180Y016989D01*
X011229Y016940D01*
X011471Y016940D02*
X011471Y017134D01*
X012881Y017880D02*
X012881Y018171D01*
X013075Y018171D01*
X013176Y018171D02*
X013176Y017880D01*
X013369Y017880D02*
X013369Y018171D01*
X013273Y018074D01*
X013176Y018171D01*
X012978Y018025D02*
X012881Y018025D01*
X013470Y017929D02*
X013664Y018122D01*
X013664Y017929D01*
X013616Y017880D01*
X013519Y017880D01*
X013470Y017929D01*
X013470Y018122D01*
X013519Y018171D01*
X013616Y018171D01*
X013664Y018122D01*
X013765Y018171D02*
X013765Y018025D01*
X013862Y018074D01*
X013910Y018074D01*
X013959Y018025D01*
X013959Y017929D01*
X013910Y017880D01*
X013813Y017880D01*
X013765Y017929D01*
X013765Y018171D02*
X013959Y018171D01*
X014060Y018074D02*
X014156Y018171D01*
X014156Y017880D01*
X014060Y017880D02*
X014253Y017880D01*
X014354Y017880D02*
X014548Y018074D01*
X014548Y018122D01*
X014499Y018171D01*
X014403Y018171D01*
X014354Y018122D01*
X014354Y017880D02*
X014548Y017880D01*
X014649Y017929D02*
X014697Y017880D01*
X014794Y017880D01*
X014842Y017929D01*
X014842Y017977D01*
X014794Y018025D01*
X014697Y018025D01*
X014649Y018074D01*
X014649Y018122D01*
X014697Y018171D01*
X014794Y018171D01*
X014842Y018122D01*
X016624Y016229D02*
X016576Y016181D01*
X016576Y015987D01*
X016624Y015939D01*
X016721Y015939D01*
X016769Y015987D01*
X016871Y015987D02*
X016871Y016036D01*
X016919Y016084D01*
X017016Y016084D01*
X017064Y016036D01*
X017064Y015987D01*
X017016Y015939D01*
X016919Y015939D01*
X016871Y015987D01*
X016919Y016084D02*
X016871Y016132D01*
X016871Y016181D01*
X016919Y016229D01*
X017016Y016229D01*
X017064Y016181D01*
X017064Y016132D01*
X017016Y016084D01*
X016769Y016181D02*
X016721Y016229D01*
X016624Y016229D01*
X017613Y017553D02*
X017710Y017553D01*
X017758Y017601D01*
X017859Y017553D02*
X018053Y017746D01*
X018053Y017795D01*
X018004Y017843D01*
X017908Y017843D01*
X017859Y017795D01*
X017758Y017795D02*
X017710Y017843D01*
X017613Y017843D01*
X017565Y017795D01*
X017565Y017601D01*
X017613Y017553D01*
X017859Y017553D02*
X018053Y017553D01*
X018815Y016808D02*
X019105Y016615D01*
X019105Y016514D02*
X018815Y016320D01*
X018815Y016514D02*
X019105Y016320D01*
X019105Y016219D02*
X019105Y016025D01*
X018815Y016025D01*
X018863Y015924D02*
X018912Y015924D01*
X018960Y015876D01*
X018960Y015779D01*
X018912Y015731D01*
X018863Y015731D01*
X018815Y015779D01*
X018815Y015876D01*
X018863Y015924D01*
X018960Y015876D02*
X019008Y015924D01*
X019057Y015924D01*
X019105Y015876D01*
X019105Y015779D01*
X019057Y015731D01*
X019008Y015731D01*
X018960Y015779D01*
X018863Y015630D02*
X019057Y015436D01*
X019105Y015436D01*
X019105Y015335D02*
X018815Y015335D01*
X018912Y015238D01*
X018815Y015141D01*
X019105Y015141D01*
X019105Y015040D02*
X019105Y014847D01*
X018815Y014847D01*
X018815Y015436D02*
X018815Y015630D01*
X018863Y015630D01*
X018815Y016615D02*
X019105Y016808D01*
X022305Y016703D02*
X022596Y016509D01*
X022596Y016408D02*
X022305Y016215D01*
X022354Y016114D02*
X022305Y016065D01*
X022305Y015968D01*
X022354Y015920D01*
X022402Y015920D01*
X022451Y015968D01*
X022451Y016065D01*
X022499Y016114D01*
X022547Y016114D01*
X022596Y016065D01*
X022596Y015968D01*
X022547Y015920D01*
X022499Y015920D01*
X022451Y015968D01*
X022451Y016065D02*
X022402Y016114D01*
X022354Y016114D01*
X022596Y016215D02*
X022305Y016408D01*
X022305Y016509D02*
X022596Y016703D01*
X023344Y016193D02*
X023344Y015999D01*
X023392Y015951D01*
X023489Y015951D01*
X023537Y015999D01*
X023638Y015951D02*
X023832Y015951D01*
X023735Y015951D02*
X023735Y016241D01*
X023638Y016145D01*
X023537Y016193D02*
X023489Y016241D01*
X023392Y016241D01*
X023344Y016193D01*
X022596Y015625D02*
X022547Y015625D01*
X022354Y015819D01*
X022305Y015819D01*
X022305Y015625D01*
X022305Y015524D02*
X022596Y015524D01*
X022596Y015331D02*
X022305Y015331D01*
X022402Y015428D01*
X022305Y015524D01*
X022596Y015230D02*
X022596Y015036D01*
X022305Y015036D01*
X006528Y014501D02*
X006528Y014307D01*
X006334Y014501D01*
X006286Y014501D01*
X006238Y014452D01*
X006238Y014356D01*
X006286Y014307D01*
X006286Y014206D02*
X006383Y014206D01*
X006431Y014158D01*
X006431Y014013D01*
X006431Y014109D02*
X006528Y014206D01*
X006528Y014013D02*
X006238Y014013D01*
X006238Y014158D01*
X006286Y014206D01*
X006353Y013512D02*
X006450Y013512D01*
X006498Y013464D01*
X006498Y013415D01*
X006450Y013367D01*
X006498Y013318D01*
X006498Y013270D01*
X006450Y013222D01*
X006353Y013222D01*
X006305Y013270D01*
X006401Y013367D02*
X006450Y013367D01*
X006305Y013464D02*
X006353Y013512D01*
X006203Y013512D02*
X006010Y013512D01*
X006107Y013512D02*
X006107Y013222D01*
X005909Y013222D02*
X005715Y013222D01*
X005715Y013512D01*
X005909Y013512D01*
X005812Y013367D02*
X005715Y013367D01*
X005614Y013512D02*
X005421Y013512D01*
X005421Y013222D01*
X005421Y013367D02*
X005517Y013367D01*
X004899Y012811D02*
X004899Y012618D01*
X004899Y012715D02*
X004609Y012715D01*
X004706Y012618D01*
X004754Y012517D02*
X004802Y012468D01*
X004802Y012323D01*
X004802Y012420D02*
X004899Y012517D01*
X004754Y012517D02*
X004657Y012517D01*
X004609Y012468D01*
X004609Y012323D01*
X004899Y012323D01*
X004905Y015725D02*
X004954Y015725D01*
X005002Y015773D01*
X005002Y016015D01*
X004954Y016015D02*
X005051Y016015D01*
X005152Y016015D02*
X005152Y015725D01*
X005152Y015821D02*
X005297Y015821D01*
X005345Y015870D01*
X005345Y015967D01*
X005297Y016015D01*
X005152Y016015D01*
X005446Y015918D02*
X005543Y016015D01*
X005543Y015725D01*
X005446Y015725D02*
X005640Y015725D01*
X004905Y015725D02*
X004857Y015773D01*
D14*
X006783Y007716D02*
X006783Y007416D01*
X006783Y007566D02*
X006333Y007566D01*
X006483Y007416D01*
X006408Y007256D02*
X006708Y007256D01*
X006783Y007181D01*
X006783Y006956D01*
X006333Y006956D01*
X006333Y007181D01*
X006408Y007256D01*
M02*
