G75*
G70*
%OFA0B0*%
%FSLAX24Y24*%
%IPPOS*%
%LPD*%
%AMOC8*
5,1,8,0,0,1.08239X$1,22.5*
%
%ADD10C,0.0000*%
%ADD11R,0.0400X0.1250*%
%ADD12R,0.4000X0.4000*%
%ADD13R,0.0433X0.0394*%
%ADD14R,0.0472X0.0354*%
%ADD15R,0.0827X0.0827*%
%ADD16O,0.0594X0.1187*%
%ADD17O,0.1200X0.0600*%
%ADD18R,0.0512X0.0591*%
%ADD19OC8,0.0550*%
%ADD20OC8,0.0700*%
%ADD21OC8,0.0520*%
%ADD22R,0.0550X0.1020*%
%ADD23R,0.0394X0.0433*%
%ADD24C,0.0515*%
%ADD25O,0.1187X0.0594*%
%ADD26R,0.0260X0.0800*%
%ADD27R,0.0701X0.0598*%
%ADD28C,0.0160*%
%ADD29C,0.0886*%
%ADD30C,0.1181*%
%ADD31C,0.0396*%
%ADD32C,0.0080*%
%ADD33C,0.1063*%
%ADD34C,0.0500*%
%ADD35C,0.0080*%
%ADD36C,0.0400*%
%ADD37C,0.0120*%
%ADD38C,0.0320*%
%ADD39C,0.0079*%
D10*
X001663Y001038D02*
X001715Y018350D01*
X025337Y018350D01*
X025285Y001038D01*
X025211Y001058D02*
X001663Y001038D01*
X002214Y002298D02*
X002217Y002362D01*
X002226Y002426D01*
X002240Y002489D01*
X002261Y002551D01*
X002286Y002610D01*
X002317Y002666D01*
X002353Y002720D01*
X002394Y002770D01*
X002439Y002816D01*
X002488Y002858D01*
X002541Y002895D01*
X002597Y002928D01*
X002655Y002955D01*
X002716Y002976D01*
X002779Y002992D01*
X002842Y003002D01*
X002907Y003007D01*
X002971Y003005D01*
X003036Y002998D01*
X003099Y002985D01*
X003160Y002966D01*
X003220Y002942D01*
X003277Y002912D01*
X003332Y002877D01*
X003383Y002838D01*
X003430Y002794D01*
X003473Y002745D01*
X003511Y002694D01*
X003545Y002638D01*
X003573Y002580D01*
X003596Y002520D01*
X003614Y002458D01*
X003625Y002395D01*
X003631Y002330D01*
X003631Y002266D01*
X003625Y002201D01*
X003614Y002138D01*
X003596Y002076D01*
X003573Y002016D01*
X003545Y001958D01*
X003511Y001902D01*
X003473Y001851D01*
X003430Y001802D01*
X003383Y001758D01*
X003332Y001719D01*
X003278Y001684D01*
X003220Y001654D01*
X003160Y001630D01*
X003099Y001611D01*
X003036Y001598D01*
X002971Y001591D01*
X002907Y001589D01*
X002842Y001594D01*
X002779Y001604D01*
X002716Y001620D01*
X002655Y001641D01*
X002597Y001668D01*
X002541Y001701D01*
X002488Y001738D01*
X002439Y001780D01*
X002394Y001826D01*
X002353Y001876D01*
X002317Y001930D01*
X002286Y001986D01*
X002261Y002045D01*
X002240Y002107D01*
X002226Y002170D01*
X002217Y002234D01*
X002214Y002298D01*
X002551Y006363D02*
X002554Y006426D01*
X002562Y006488D01*
X002577Y006549D01*
X002596Y006608D01*
X002621Y006666D01*
X002651Y006721D01*
X002686Y006773D01*
X002726Y006822D01*
X002770Y006867D01*
X002817Y006907D01*
X002869Y006943D01*
X002923Y006975D01*
X002980Y007001D01*
X003039Y007022D01*
X003100Y007038D01*
X003162Y007048D01*
X003224Y007052D01*
X003287Y007050D01*
X003349Y007043D01*
X003411Y007031D01*
X003471Y007012D01*
X003529Y006989D01*
X003584Y006960D01*
X003637Y006926D01*
X003687Y006887D01*
X003733Y006845D01*
X003774Y006798D01*
X003812Y006747D01*
X003844Y006694D01*
X003872Y006637D01*
X003894Y006579D01*
X003911Y006519D01*
X003923Y006457D01*
X003928Y006394D01*
X003928Y006332D01*
X003923Y006269D01*
X003911Y006207D01*
X003894Y006147D01*
X003872Y006089D01*
X003844Y006032D01*
X003812Y005979D01*
X003774Y005928D01*
X003733Y005881D01*
X003687Y005839D01*
X003637Y005800D01*
X003585Y005766D01*
X003529Y005737D01*
X003471Y005714D01*
X003411Y005695D01*
X003349Y005683D01*
X003287Y005676D01*
X003224Y005674D01*
X003162Y005678D01*
X003100Y005688D01*
X003039Y005704D01*
X002980Y005725D01*
X002923Y005751D01*
X002869Y005783D01*
X002817Y005819D01*
X002770Y005859D01*
X002726Y005904D01*
X002686Y005953D01*
X002651Y006005D01*
X002621Y006060D01*
X002596Y006118D01*
X002577Y006177D01*
X002562Y006238D01*
X002554Y006300D01*
X002551Y006363D01*
X002537Y008487D02*
X002540Y008550D01*
X002548Y008612D01*
X002563Y008673D01*
X002582Y008732D01*
X002607Y008790D01*
X002637Y008845D01*
X002672Y008897D01*
X002712Y008946D01*
X002756Y008991D01*
X002803Y009031D01*
X002855Y009067D01*
X002909Y009099D01*
X002966Y009125D01*
X003025Y009146D01*
X003086Y009162D01*
X003148Y009172D01*
X003210Y009176D01*
X003273Y009174D01*
X003335Y009167D01*
X003397Y009155D01*
X003457Y009136D01*
X003515Y009113D01*
X003570Y009084D01*
X003623Y009050D01*
X003673Y009011D01*
X003719Y008969D01*
X003760Y008922D01*
X003798Y008871D01*
X003830Y008818D01*
X003858Y008761D01*
X003880Y008703D01*
X003897Y008643D01*
X003909Y008581D01*
X003914Y008518D01*
X003914Y008456D01*
X003909Y008393D01*
X003897Y008331D01*
X003880Y008271D01*
X003858Y008213D01*
X003830Y008156D01*
X003798Y008103D01*
X003760Y008052D01*
X003719Y008005D01*
X003673Y007963D01*
X003623Y007924D01*
X003571Y007890D01*
X003515Y007861D01*
X003457Y007838D01*
X003397Y007819D01*
X003335Y007807D01*
X003273Y007800D01*
X003210Y007798D01*
X003148Y007802D01*
X003086Y007812D01*
X003025Y007828D01*
X002966Y007849D01*
X002909Y007875D01*
X002855Y007907D01*
X002803Y007943D01*
X002756Y007983D01*
X002712Y008028D01*
X002672Y008077D01*
X002637Y008129D01*
X002607Y008184D01*
X002582Y008242D01*
X002563Y008301D01*
X002548Y008362D01*
X002540Y008424D01*
X002537Y008487D01*
X002266Y017090D02*
X002269Y017154D01*
X002278Y017218D01*
X002292Y017281D01*
X002313Y017343D01*
X002338Y017402D01*
X002369Y017458D01*
X002405Y017512D01*
X002446Y017562D01*
X002491Y017608D01*
X002540Y017650D01*
X002593Y017687D01*
X002649Y017720D01*
X002707Y017747D01*
X002768Y017768D01*
X002831Y017784D01*
X002894Y017794D01*
X002959Y017799D01*
X003023Y017797D01*
X003088Y017790D01*
X003151Y017777D01*
X003212Y017758D01*
X003272Y017734D01*
X003329Y017704D01*
X003384Y017669D01*
X003435Y017630D01*
X003482Y017586D01*
X003525Y017537D01*
X003563Y017486D01*
X003597Y017430D01*
X003625Y017372D01*
X003648Y017312D01*
X003666Y017250D01*
X003677Y017187D01*
X003683Y017122D01*
X003683Y017058D01*
X003677Y016993D01*
X003666Y016930D01*
X003648Y016868D01*
X003625Y016808D01*
X003597Y016750D01*
X003563Y016694D01*
X003525Y016643D01*
X003482Y016594D01*
X003435Y016550D01*
X003384Y016511D01*
X003330Y016476D01*
X003272Y016446D01*
X003212Y016422D01*
X003151Y016403D01*
X003088Y016390D01*
X003023Y016383D01*
X002959Y016381D01*
X002894Y016386D01*
X002831Y016396D01*
X002768Y016412D01*
X002707Y016433D01*
X002649Y016460D01*
X002593Y016493D01*
X002540Y016530D01*
X002491Y016572D01*
X002446Y016618D01*
X002405Y016668D01*
X002369Y016722D01*
X002338Y016778D01*
X002313Y016837D01*
X002292Y016899D01*
X002278Y016962D01*
X002269Y017026D01*
X002266Y017090D01*
X005954Y017526D02*
X005956Y017562D01*
X005962Y017597D01*
X005972Y017632D01*
X005986Y017665D01*
X006004Y017696D01*
X006025Y017725D01*
X006049Y017752D01*
X006077Y017775D01*
X006106Y017796D01*
X006138Y017813D01*
X006172Y017826D01*
X006206Y017835D01*
X006242Y017840D01*
X006278Y017841D01*
X006314Y017838D01*
X006349Y017831D01*
X006383Y017820D01*
X006416Y017805D01*
X006447Y017786D01*
X006475Y017764D01*
X006501Y017739D01*
X006524Y017711D01*
X006543Y017681D01*
X006559Y017649D01*
X006571Y017615D01*
X006579Y017580D01*
X006583Y017544D01*
X006583Y017508D01*
X006579Y017472D01*
X006571Y017437D01*
X006559Y017403D01*
X006543Y017371D01*
X006524Y017341D01*
X006501Y017313D01*
X006475Y017288D01*
X006447Y017266D01*
X006416Y017247D01*
X006383Y017232D01*
X006349Y017221D01*
X006314Y017214D01*
X006278Y017211D01*
X006242Y017212D01*
X006206Y017217D01*
X006172Y017226D01*
X006138Y017239D01*
X006106Y017256D01*
X006077Y017277D01*
X006049Y017300D01*
X006025Y017327D01*
X006004Y017356D01*
X005986Y017387D01*
X005972Y017420D01*
X005962Y017455D01*
X005956Y017490D01*
X005954Y017526D01*
X007023Y017575D02*
X007025Y017611D01*
X007031Y017646D01*
X007041Y017681D01*
X007055Y017714D01*
X007073Y017745D01*
X007094Y017774D01*
X007118Y017801D01*
X007146Y017824D01*
X007175Y017845D01*
X007207Y017862D01*
X007241Y017875D01*
X007275Y017884D01*
X007311Y017889D01*
X007347Y017890D01*
X007383Y017887D01*
X007418Y017880D01*
X007452Y017869D01*
X007485Y017854D01*
X007516Y017835D01*
X007544Y017813D01*
X007570Y017788D01*
X007593Y017760D01*
X007612Y017730D01*
X007628Y017698D01*
X007640Y017664D01*
X007648Y017629D01*
X007652Y017593D01*
X007652Y017557D01*
X007648Y017521D01*
X007640Y017486D01*
X007628Y017452D01*
X007612Y017420D01*
X007593Y017390D01*
X007570Y017362D01*
X007544Y017337D01*
X007516Y017315D01*
X007485Y017296D01*
X007452Y017281D01*
X007418Y017270D01*
X007383Y017263D01*
X007347Y017260D01*
X007311Y017261D01*
X007275Y017266D01*
X007241Y017275D01*
X007207Y017288D01*
X007175Y017305D01*
X007146Y017326D01*
X007118Y017349D01*
X007094Y017376D01*
X007073Y017405D01*
X007055Y017436D01*
X007041Y017469D01*
X007031Y017504D01*
X007025Y017539D01*
X007023Y017575D01*
X008142Y017609D02*
X008144Y017645D01*
X008150Y017680D01*
X008160Y017715D01*
X008174Y017748D01*
X008192Y017779D01*
X008213Y017808D01*
X008237Y017835D01*
X008265Y017858D01*
X008294Y017879D01*
X008326Y017896D01*
X008360Y017909D01*
X008394Y017918D01*
X008430Y017923D01*
X008466Y017924D01*
X008502Y017921D01*
X008537Y017914D01*
X008571Y017903D01*
X008604Y017888D01*
X008635Y017869D01*
X008663Y017847D01*
X008689Y017822D01*
X008712Y017794D01*
X008731Y017764D01*
X008747Y017732D01*
X008759Y017698D01*
X008767Y017663D01*
X008771Y017627D01*
X008771Y017591D01*
X008767Y017555D01*
X008759Y017520D01*
X008747Y017486D01*
X008731Y017454D01*
X008712Y017424D01*
X008689Y017396D01*
X008663Y017371D01*
X008635Y017349D01*
X008604Y017330D01*
X008571Y017315D01*
X008537Y017304D01*
X008502Y017297D01*
X008466Y017294D01*
X008430Y017295D01*
X008394Y017300D01*
X008360Y017309D01*
X008326Y017322D01*
X008294Y017339D01*
X008265Y017360D01*
X008237Y017383D01*
X008213Y017410D01*
X008192Y017439D01*
X008174Y017470D01*
X008160Y017503D01*
X008150Y017538D01*
X008144Y017573D01*
X008142Y017609D01*
X023368Y017090D02*
X023371Y017154D01*
X023380Y017218D01*
X023394Y017281D01*
X023415Y017343D01*
X023440Y017402D01*
X023471Y017458D01*
X023507Y017512D01*
X023548Y017562D01*
X023593Y017608D01*
X023642Y017650D01*
X023695Y017687D01*
X023751Y017720D01*
X023809Y017747D01*
X023870Y017768D01*
X023933Y017784D01*
X023996Y017794D01*
X024061Y017799D01*
X024125Y017797D01*
X024190Y017790D01*
X024253Y017777D01*
X024314Y017758D01*
X024374Y017734D01*
X024431Y017704D01*
X024486Y017669D01*
X024537Y017630D01*
X024584Y017586D01*
X024627Y017537D01*
X024665Y017486D01*
X024699Y017430D01*
X024727Y017372D01*
X024750Y017312D01*
X024768Y017250D01*
X024779Y017187D01*
X024785Y017122D01*
X024785Y017058D01*
X024779Y016993D01*
X024768Y016930D01*
X024750Y016868D01*
X024727Y016808D01*
X024699Y016750D01*
X024665Y016694D01*
X024627Y016643D01*
X024584Y016594D01*
X024537Y016550D01*
X024486Y016511D01*
X024432Y016476D01*
X024374Y016446D01*
X024314Y016422D01*
X024253Y016403D01*
X024190Y016390D01*
X024125Y016383D01*
X024061Y016381D01*
X023996Y016386D01*
X023933Y016396D01*
X023870Y016412D01*
X023809Y016433D01*
X023751Y016460D01*
X023695Y016493D01*
X023642Y016530D01*
X023593Y016572D01*
X023548Y016618D01*
X023507Y016668D01*
X023471Y016722D01*
X023440Y016778D01*
X023415Y016837D01*
X023394Y016899D01*
X023380Y016962D01*
X023371Y017026D01*
X023368Y017090D01*
X021855Y004268D02*
X021858Y004331D01*
X021866Y004393D01*
X021881Y004454D01*
X021900Y004513D01*
X021925Y004571D01*
X021955Y004626D01*
X021990Y004678D01*
X022030Y004727D01*
X022074Y004772D01*
X022121Y004812D01*
X022173Y004848D01*
X022227Y004880D01*
X022284Y004906D01*
X022343Y004927D01*
X022404Y004943D01*
X022466Y004953D01*
X022528Y004957D01*
X022591Y004955D01*
X022653Y004948D01*
X022715Y004936D01*
X022775Y004917D01*
X022833Y004894D01*
X022888Y004865D01*
X022941Y004831D01*
X022991Y004792D01*
X023037Y004750D01*
X023078Y004703D01*
X023116Y004652D01*
X023148Y004599D01*
X023176Y004542D01*
X023198Y004484D01*
X023215Y004424D01*
X023227Y004362D01*
X023232Y004299D01*
X023232Y004237D01*
X023227Y004174D01*
X023215Y004112D01*
X023198Y004052D01*
X023176Y003994D01*
X023148Y003937D01*
X023116Y003884D01*
X023078Y003833D01*
X023037Y003786D01*
X022991Y003744D01*
X022941Y003705D01*
X022889Y003671D01*
X022833Y003642D01*
X022775Y003619D01*
X022715Y003600D01*
X022653Y003588D01*
X022591Y003581D01*
X022528Y003579D01*
X022466Y003583D01*
X022404Y003593D01*
X022343Y003609D01*
X022284Y003630D01*
X022227Y003656D01*
X022173Y003688D01*
X022121Y003724D01*
X022074Y003764D01*
X022030Y003809D01*
X021990Y003858D01*
X021955Y003910D01*
X021925Y003965D01*
X021900Y004023D01*
X021881Y004082D01*
X021866Y004143D01*
X021858Y004205D01*
X021855Y004268D01*
X019441Y002424D02*
X019444Y002487D01*
X019452Y002549D01*
X019467Y002610D01*
X019486Y002669D01*
X019511Y002727D01*
X019541Y002782D01*
X019576Y002834D01*
X019616Y002883D01*
X019660Y002928D01*
X019707Y002968D01*
X019759Y003004D01*
X019813Y003036D01*
X019870Y003062D01*
X019929Y003083D01*
X019990Y003099D01*
X020052Y003109D01*
X020114Y003113D01*
X020177Y003111D01*
X020239Y003104D01*
X020301Y003092D01*
X020361Y003073D01*
X020419Y003050D01*
X020474Y003021D01*
X020527Y002987D01*
X020577Y002948D01*
X020623Y002906D01*
X020664Y002859D01*
X020702Y002808D01*
X020734Y002755D01*
X020762Y002698D01*
X020784Y002640D01*
X020801Y002580D01*
X020813Y002518D01*
X020818Y002455D01*
X020818Y002393D01*
X020813Y002330D01*
X020801Y002268D01*
X020784Y002208D01*
X020762Y002150D01*
X020734Y002093D01*
X020702Y002040D01*
X020664Y001989D01*
X020623Y001942D01*
X020577Y001900D01*
X020527Y001861D01*
X020475Y001827D01*
X020419Y001798D01*
X020361Y001775D01*
X020301Y001756D01*
X020239Y001744D01*
X020177Y001737D01*
X020114Y001735D01*
X020052Y001739D01*
X019990Y001749D01*
X019929Y001765D01*
X019870Y001786D01*
X019813Y001812D01*
X019759Y001844D01*
X019707Y001880D01*
X019660Y001920D01*
X019616Y001965D01*
X019576Y002014D01*
X019541Y002066D01*
X019511Y002121D01*
X019486Y002179D01*
X019467Y002238D01*
X019452Y002299D01*
X019444Y002361D01*
X019441Y002424D01*
X023316Y002298D02*
X023319Y002362D01*
X023328Y002426D01*
X023342Y002489D01*
X023363Y002551D01*
X023388Y002610D01*
X023419Y002666D01*
X023455Y002720D01*
X023496Y002770D01*
X023541Y002816D01*
X023590Y002858D01*
X023643Y002895D01*
X023699Y002928D01*
X023757Y002955D01*
X023818Y002976D01*
X023881Y002992D01*
X023944Y003002D01*
X024009Y003007D01*
X024073Y003005D01*
X024138Y002998D01*
X024201Y002985D01*
X024262Y002966D01*
X024322Y002942D01*
X024379Y002912D01*
X024434Y002877D01*
X024485Y002838D01*
X024532Y002794D01*
X024575Y002745D01*
X024613Y002694D01*
X024647Y002638D01*
X024675Y002580D01*
X024698Y002520D01*
X024716Y002458D01*
X024727Y002395D01*
X024733Y002330D01*
X024733Y002266D01*
X024727Y002201D01*
X024716Y002138D01*
X024698Y002076D01*
X024675Y002016D01*
X024647Y001958D01*
X024613Y001902D01*
X024575Y001851D01*
X024532Y001802D01*
X024485Y001758D01*
X024434Y001719D01*
X024380Y001684D01*
X024322Y001654D01*
X024262Y001630D01*
X024201Y001611D01*
X024138Y001598D01*
X024073Y001591D01*
X024009Y001589D01*
X023944Y001594D01*
X023881Y001604D01*
X023818Y001620D01*
X023757Y001641D01*
X023699Y001668D01*
X023643Y001701D01*
X023590Y001738D01*
X023541Y001780D01*
X023496Y001826D01*
X023455Y001876D01*
X023419Y001930D01*
X023388Y001986D01*
X023363Y002045D01*
X023342Y002107D01*
X023328Y002170D01*
X023319Y002234D01*
X023316Y002298D01*
D11*
X012426Y008265D03*
X011826Y008265D03*
X011326Y008265D03*
X010326Y008265D03*
X009826Y008265D03*
X009326Y008265D03*
D12*
X010826Y004565D03*
D13*
X009940Y010030D03*
X009940Y010700D03*
X007040Y013457D03*
X007040Y014127D03*
X005358Y012737D03*
X005358Y012068D03*
D14*
X006202Y012024D03*
X007034Y012398D03*
X006222Y012772D03*
D15*
X005792Y010463D03*
X005792Y008463D03*
X005803Y006281D03*
X005803Y004281D03*
X020059Y004472D03*
X020059Y006472D03*
X023701Y006132D03*
X023701Y008132D03*
D16*
X008318Y016126D03*
X007318Y016126D03*
X006318Y016126D03*
D17*
X021372Y015869D03*
X021372Y016869D03*
X021372Y014869D03*
D18*
X016967Y015482D03*
X016298Y015482D03*
X016475Y005583D03*
X017144Y005583D03*
D19*
X023101Y014732D03*
X024101Y014732D03*
D20*
X007625Y008912D03*
X007625Y004912D03*
D21*
X014515Y013480D03*
X013765Y013980D03*
X014515Y014480D03*
X019857Y015377D03*
X020607Y015877D03*
X019857Y016377D03*
D22*
X018565Y016848D03*
X017305Y016848D03*
D23*
X013711Y011164D03*
X013711Y010495D03*
X017466Y008200D03*
X018135Y008200D03*
X017035Y006709D03*
X016366Y006709D03*
X017125Y001802D03*
X017794Y001802D03*
D24*
X015095Y015807D03*
X014095Y015807D03*
X013095Y015807D03*
X012095Y015807D03*
D25*
X010497Y016085D03*
X010497Y017085D03*
D26*
X014559Y011815D03*
X015059Y011815D03*
X015559Y011815D03*
X016059Y011815D03*
X016059Y009395D03*
X015559Y009395D03*
X015059Y009395D03*
X014559Y009395D03*
D27*
X011968Y012049D03*
X011968Y013073D03*
X011968Y014057D03*
X008385Y014057D03*
X008385Y013073D03*
X008385Y012049D03*
D28*
X007876Y011978D02*
X006599Y011978D01*
X006599Y012016D02*
X006211Y012016D01*
X006211Y012033D01*
X006194Y012033D01*
X006194Y012361D01*
X005900Y012361D01*
X005806Y012268D01*
X005806Y012033D01*
X006194Y012033D01*
X006194Y012016D01*
X005806Y012016D01*
X005806Y011781D01*
X005900Y011687D01*
X006194Y011687D01*
X006194Y012015D01*
X006211Y012015D01*
X006211Y011687D01*
X006505Y011687D01*
X006599Y011781D01*
X006599Y012016D01*
X006599Y012033D02*
X006599Y012268D01*
X006505Y012361D01*
X006211Y012361D01*
X006211Y012033D01*
X006599Y012033D01*
X006599Y012136D02*
X006658Y012136D01*
X006639Y012155D02*
X006732Y012062D01*
X007336Y012062D01*
X007429Y012155D01*
X007429Y012641D01*
X007336Y012734D01*
X007251Y012734D01*
X007233Y013009D01*
X007234Y013102D01*
X007322Y013102D01*
X007415Y013195D01*
X007415Y013641D01*
X007567Y013018D01*
X007567Y012960D01*
X007682Y012845D01*
X007684Y012843D01*
X007764Y012843D01*
X007876Y012841D01*
X007876Y012708D01*
X007969Y012615D01*
X008802Y012615D01*
X008895Y012708D01*
X008895Y013438D01*
X008802Y013531D01*
X007969Y013531D01*
X007876Y013438D01*
X007876Y013429D01*
X007696Y014170D01*
X007696Y014228D01*
X007677Y014247D01*
X007579Y014345D01*
X007540Y014345D01*
X007493Y014345D01*
X007415Y014345D01*
X007415Y014389D01*
X007322Y014482D01*
X006758Y014482D01*
X006665Y014389D01*
X006665Y013864D01*
X006737Y013792D01*
X006665Y013720D01*
X006665Y013195D01*
X006756Y013104D01*
X006756Y013102D01*
X006755Y013101D01*
X006755Y013003D01*
X006755Y012903D01*
X006762Y012897D01*
X006772Y012734D01*
X006732Y012734D01*
X006639Y012641D01*
X006639Y012155D01*
X006639Y012295D02*
X006572Y012295D01*
X006524Y012436D02*
X006617Y012529D01*
X006617Y013015D01*
X006524Y013108D01*
X006028Y013108D01*
X006051Y013405D01*
X006058Y013412D01*
X006058Y013502D01*
X006058Y013610D01*
X006053Y013615D01*
X006020Y014281D01*
X007060Y015161D01*
X007072Y015161D01*
X007171Y015261D01*
X007212Y015301D01*
X007212Y015347D01*
X007224Y015374D01*
X007507Y015374D01*
X007774Y015641D01*
X007774Y016612D01*
X007507Y016879D01*
X007129Y016879D01*
X006863Y016612D01*
X006863Y015729D01*
X006778Y015548D01*
X005688Y014626D01*
X005676Y014626D01*
X005613Y014563D01*
X005536Y014486D01*
X005536Y014425D01*
X005536Y014381D01*
X005536Y014288D01*
X005541Y014283D01*
X005581Y013514D01*
X005548Y013092D01*
X005076Y013092D01*
X004983Y013000D01*
X004983Y012474D01*
X005054Y012403D01*
X004982Y012331D01*
X004982Y012086D01*
X005340Y012086D01*
X005340Y012049D01*
X005377Y012049D01*
X005377Y012086D01*
X005735Y012086D01*
X005735Y012331D01*
X005662Y012403D01*
X005734Y012474D01*
X005734Y012490D01*
X005859Y012490D01*
X005862Y012494D01*
X005920Y012436D01*
X006524Y012436D01*
X006541Y012453D02*
X006639Y012453D01*
X006639Y012612D02*
X006617Y012612D01*
X006617Y012770D02*
X006770Y012770D01*
X006755Y012929D02*
X006617Y012929D01*
X006755Y013003D02*
X006755Y013003D01*
X006755Y013087D02*
X006545Y013087D01*
X006665Y013246D02*
X006039Y013246D01*
X006051Y013404D02*
X006665Y013404D01*
X006665Y013563D02*
X006058Y013563D01*
X006048Y013722D02*
X006666Y013722D01*
X006665Y013880D02*
X006040Y013880D01*
X006032Y014039D02*
X006665Y014039D01*
X006665Y014197D02*
X006024Y014197D01*
X006108Y014356D02*
X006665Y014356D01*
X006483Y014673D02*
X008457Y014673D01*
X008462Y014515D02*
X007969Y014515D01*
X007876Y014422D01*
X007876Y013692D01*
X007969Y013599D01*
X008802Y013599D01*
X008895Y013692D01*
X008895Y014422D01*
X008862Y014454D01*
X008843Y014986D01*
X008843Y015011D01*
X008842Y015014D01*
X008840Y015068D01*
X008821Y015087D01*
X008688Y015555D01*
X008774Y015641D01*
X008774Y016612D01*
X008507Y016879D01*
X008129Y016879D01*
X007863Y016612D01*
X007863Y015641D01*
X008129Y015374D01*
X008326Y015374D01*
X008447Y014952D01*
X008462Y014515D01*
X008451Y014831D02*
X006670Y014831D01*
X006858Y014990D02*
X008436Y014990D01*
X008391Y015148D02*
X007045Y015148D01*
X007212Y015307D02*
X008345Y015307D01*
X008713Y015466D02*
X010560Y015466D01*
X010603Y015624D02*
X008757Y015624D01*
X008774Y015783D02*
X009858Y015783D01*
X009744Y015897D02*
X010011Y015630D01*
X010604Y015630D01*
X010504Y015259D01*
X009751Y011321D01*
X009575Y011321D01*
X004622Y011346D01*
X004617Y017561D01*
X005794Y017567D01*
X005794Y017431D01*
X005867Y017256D01*
X006000Y017123D01*
X006175Y017051D01*
X006364Y017051D01*
X006538Y017123D01*
X006672Y017256D01*
X006744Y017431D01*
X006744Y017572D01*
X006863Y017573D01*
X006863Y017481D01*
X006935Y017306D01*
X007069Y017172D01*
X007243Y017100D01*
X007432Y017100D01*
X007607Y017172D01*
X007740Y017306D01*
X007813Y017481D01*
X007813Y017578D01*
X007982Y017579D01*
X007982Y017514D01*
X008054Y017340D01*
X008188Y017206D01*
X008362Y017134D01*
X008551Y017134D01*
X008726Y017206D01*
X008859Y017340D01*
X008932Y017514D01*
X008932Y017584D01*
X011136Y017596D01*
X011092Y017433D01*
X010983Y017542D01*
X010515Y017542D01*
X010515Y017104D01*
X010478Y017104D01*
X010478Y017067D01*
X009743Y017067D01*
X009743Y016896D01*
X010011Y016629D01*
X010478Y016629D01*
X010478Y017067D01*
X010515Y017067D01*
X010515Y016629D01*
X010874Y016629D01*
X010851Y016541D01*
X010011Y016541D01*
X009744Y016274D01*
X009744Y015897D01*
X009744Y015941D02*
X008774Y015941D01*
X008774Y016100D02*
X009744Y016100D01*
X009744Y016258D02*
X008774Y016258D01*
X008774Y016417D02*
X009887Y016417D01*
X009905Y016734D02*
X008652Y016734D01*
X008774Y016575D02*
X010860Y016575D01*
X011107Y016575D02*
X016425Y016575D01*
X016411Y016633D02*
X016583Y015937D01*
X016346Y015937D01*
X016346Y015530D01*
X016250Y015530D01*
X016250Y015937D01*
X015976Y015937D01*
X015882Y015843D01*
X015882Y015530D01*
X016250Y015530D01*
X016250Y015434D01*
X015882Y015434D01*
X015882Y015120D01*
X015976Y015027D01*
X016250Y015027D01*
X016250Y015434D01*
X016346Y015434D01*
X016346Y015027D01*
X016555Y015027D01*
X014931Y014857D01*
X014896Y014857D01*
X014886Y014853D01*
X014851Y014849D01*
X014825Y014823D01*
X014784Y014803D01*
X014688Y014899D01*
X014341Y014899D01*
X014096Y014654D01*
X014096Y014307D01*
X014341Y014061D01*
X014688Y014061D01*
X014758Y014132D01*
X014963Y014041D01*
X014989Y013224D01*
X014400Y012583D01*
X014345Y012528D01*
X014345Y012524D01*
X014345Y012364D01*
X014347Y012362D01*
X014347Y012359D01*
X014270Y012281D01*
X014270Y011997D01*
X013705Y011875D01*
X013644Y011875D01*
X013627Y011858D01*
X013527Y011759D01*
X013527Y011679D01*
X013523Y011539D01*
X013448Y011539D01*
X013355Y011446D01*
X013355Y010882D01*
X013407Y010830D01*
X013354Y010778D01*
X013354Y010513D01*
X013692Y010513D01*
X013692Y010476D01*
X013729Y010476D01*
X013729Y010118D01*
X013974Y010118D01*
X014067Y010212D01*
X014067Y010476D01*
X013729Y010476D01*
X013729Y010513D01*
X014067Y010513D01*
X014067Y010778D01*
X014015Y010830D01*
X014066Y010882D01*
X014066Y011446D01*
X013983Y011530D01*
X014270Y011592D01*
X014270Y011350D01*
X014363Y011257D01*
X014754Y011257D01*
X014809Y011311D01*
X014863Y011257D01*
X015254Y011257D01*
X015309Y011311D01*
X015363Y011257D01*
X015364Y011257D01*
X015365Y011107D01*
X015365Y011024D01*
X015471Y010918D01*
X015481Y010908D01*
X015551Y010908D01*
X015975Y010856D01*
X015985Y010846D01*
X016136Y010846D01*
X016149Y010846D01*
X016199Y010896D01*
X017473Y011901D01*
X017473Y011811D01*
X017527Y011679D01*
X017628Y011579D01*
X017759Y011524D01*
X017846Y011524D01*
X018108Y011164D01*
X018086Y011111D01*
X018086Y010968D01*
X018141Y010837D01*
X018241Y010736D01*
X018373Y010682D01*
X018515Y010682D01*
X018647Y010736D01*
X018748Y010837D01*
X018802Y010968D01*
X018802Y011111D01*
X018748Y011243D01*
X018647Y011343D01*
X018515Y011398D01*
X018428Y011398D01*
X018167Y011757D01*
X018189Y011811D01*
X018189Y011953D01*
X018134Y012085D01*
X018034Y012186D01*
X017902Y012240D01*
X017873Y012240D01*
X018028Y012416D01*
X018153Y012416D01*
X018284Y012470D01*
X018385Y012571D01*
X018440Y012703D01*
X018440Y012845D01*
X018385Y012977D01*
X018284Y013077D01*
X018153Y013132D01*
X018010Y013132D01*
X017879Y013077D01*
X017778Y012977D01*
X017723Y012845D01*
X017723Y012703D01*
X017733Y012680D01*
X017666Y012604D01*
X017666Y012624D01*
X017611Y012756D01*
X017510Y012856D01*
X017379Y012911D01*
X017236Y012911D01*
X017226Y012906D01*
X016995Y013129D01*
X016995Y013270D01*
X016940Y013402D01*
X016839Y013503D01*
X016752Y013539D01*
X018849Y013602D01*
X018946Y013506D01*
X019077Y013451D01*
X019220Y013451D01*
X019351Y013506D01*
X019452Y013606D01*
X019506Y013738D01*
X019506Y013881D01*
X019452Y014012D01*
X019351Y014113D01*
X019220Y014167D01*
X019077Y014167D01*
X018946Y014113D01*
X018845Y014012D01*
X018839Y013998D01*
X016365Y013924D01*
X016285Y013924D01*
X016283Y013921D01*
X016250Y013888D01*
X016208Y013846D01*
X016169Y013808D01*
X016169Y013777D01*
X015758Y013044D01*
X015713Y013044D01*
X015581Y012989D01*
X015481Y012889D01*
X015426Y012757D01*
X015426Y012614D01*
X015481Y012483D01*
X015581Y012382D01*
X015601Y012374D01*
X015363Y012374D01*
X015309Y012320D01*
X015271Y012357D01*
X015272Y012380D01*
X015273Y012381D01*
X015273Y012461D01*
X015273Y012462D01*
X015273Y012545D01*
X015157Y012661D01*
X015009Y012661D01*
X015333Y013013D01*
X015387Y013068D01*
X015387Y013153D01*
X015387Y013232D01*
X015385Y013235D01*
X015355Y014174D01*
X015355Y014254D01*
X015271Y014338D01*
X015239Y014370D01*
X015198Y014370D01*
X014989Y014463D01*
X014996Y014466D01*
X016952Y014670D01*
X017024Y014670D01*
X017032Y014678D01*
X017140Y014786D01*
X017140Y014864D01*
X017147Y015028D01*
X017289Y015028D01*
X017382Y015121D01*
X017382Y015843D01*
X017289Y015936D01*
X017239Y015936D01*
X017179Y016179D01*
X017646Y016179D01*
X017739Y016272D01*
X017739Y017423D01*
X017646Y017516D01*
X016965Y017516D01*
X016872Y017423D01*
X016872Y017185D01*
X016853Y017185D01*
X016752Y017227D01*
X016609Y017227D01*
X016478Y017173D01*
X016377Y017072D01*
X016323Y016940D01*
X016323Y016798D01*
X016377Y016666D01*
X016411Y016633D01*
X016349Y016734D02*
X011150Y016734D01*
X011174Y016821D02*
X011249Y016897D01*
X011249Y017100D01*
X011350Y017472D01*
X011375Y017497D01*
X011375Y017695D01*
X011235Y017835D01*
X011136Y017835D01*
X011135Y017835D01*
X011037Y017835D01*
X011037Y017834D01*
X008882Y017822D01*
X008859Y017878D01*
X008726Y018012D01*
X008551Y018084D01*
X008362Y018084D01*
X008188Y018012D01*
X008054Y017878D01*
X008029Y017818D01*
X007752Y017816D01*
X007740Y017844D01*
X007607Y017978D01*
X007432Y018050D01*
X007243Y018050D01*
X007069Y017978D01*
X006935Y017844D01*
X006922Y017812D01*
X006656Y017810D01*
X006538Y017928D01*
X006364Y018000D01*
X006175Y018000D01*
X006000Y017928D01*
X005878Y017806D01*
X004619Y017799D01*
X004518Y017799D01*
X004517Y017799D01*
X004378Y017659D01*
X004378Y017462D01*
X004378Y017462D01*
X004383Y011350D01*
X004383Y011247D01*
X004523Y011108D01*
X004623Y011108D01*
X009476Y011083D01*
X009476Y011082D01*
X009574Y011082D01*
X009575Y011082D01*
X009674Y011082D01*
X009850Y011082D01*
X009990Y011222D01*
X009990Y011299D01*
X010737Y015205D01*
X010852Y015630D01*
X010982Y015630D01*
X011249Y015897D01*
X011249Y016274D01*
X011073Y016450D01*
X011174Y016821D01*
X011245Y016892D02*
X016323Y016892D01*
X016368Y017051D02*
X011249Y017051D01*
X011279Y017210D02*
X016567Y017210D01*
X016795Y017210D02*
X016872Y017210D01*
X016872Y017368D02*
X011322Y017368D01*
X011375Y017527D02*
X019288Y017527D01*
X019274Y017533D02*
X019406Y017478D01*
X019548Y017478D01*
X019585Y017493D01*
X019629Y017493D01*
X020062Y017490D01*
X020063Y017489D01*
X020145Y017489D01*
X020145Y017489D01*
X020227Y017489D01*
X020227Y017489D01*
X021068Y017491D01*
X021095Y017328D01*
X020882Y017328D01*
X020613Y017059D01*
X020613Y016830D01*
X020147Y016680D01*
X020030Y016796D01*
X019683Y016796D01*
X019438Y016551D01*
X019438Y016204D01*
X019683Y015959D01*
X020030Y015959D01*
X020275Y016204D01*
X020275Y016304D01*
X020814Y016478D01*
X020882Y016410D01*
X021862Y016410D01*
X022130Y016679D01*
X022130Y017059D01*
X021862Y017328D01*
X021497Y017328D01*
X021435Y017706D01*
X021435Y017772D01*
X021319Y017889D01*
X021236Y017889D01*
X021236Y017889D01*
X021154Y017889D01*
X021154Y017889D01*
X020145Y017886D01*
X019835Y017889D01*
X019835Y017907D01*
X019780Y018039D01*
X019680Y018140D01*
X019558Y018190D01*
X025177Y018190D01*
X025126Y001218D01*
X016908Y001211D01*
X016975Y001278D01*
X016975Y001363D01*
X016975Y001370D01*
X016975Y001427D01*
X017388Y001427D01*
X017459Y001498D01*
X017531Y001425D01*
X017776Y001425D01*
X017776Y001783D01*
X017813Y001783D01*
X017813Y001425D01*
X018058Y001425D01*
X018151Y001519D01*
X018151Y001783D01*
X017813Y001783D01*
X017813Y001820D01*
X018151Y001820D01*
X018151Y002085D01*
X018058Y002178D01*
X017813Y002178D01*
X017813Y001821D01*
X017776Y001821D01*
X017776Y002178D01*
X017531Y002178D01*
X017459Y002106D01*
X017388Y002177D01*
X016953Y002177D01*
X016931Y002949D01*
X017031Y003049D01*
X017086Y003181D01*
X017086Y003323D01*
X017031Y003455D01*
X016930Y003555D01*
X016799Y003610D01*
X016656Y003610D01*
X016525Y003555D01*
X016424Y003455D01*
X016369Y003323D01*
X016369Y003181D01*
X016424Y003049D01*
X016525Y002948D01*
X016534Y002945D01*
X016565Y001810D01*
X016565Y001730D01*
X016568Y001728D01*
X016572Y001559D01*
X013338Y001556D01*
X013338Y001605D01*
X013337Y001605D01*
X013310Y005499D01*
X013448Y005025D01*
X013448Y004971D01*
X013470Y004949D01*
X013565Y004855D01*
X013653Y004855D01*
X013662Y004855D01*
X013729Y004855D01*
X013741Y004867D01*
X016060Y005225D01*
X016060Y005222D01*
X016153Y005129D01*
X016796Y005129D01*
X016809Y005141D01*
X016822Y005127D01*
X017096Y005127D01*
X017096Y005534D01*
X017192Y005534D01*
X017192Y005127D01*
X017466Y005127D01*
X017560Y005221D01*
X017560Y005535D01*
X017192Y005535D01*
X017192Y005631D01*
X017096Y005631D01*
X017096Y006038D01*
X016822Y006038D01*
X016809Y006024D01*
X016796Y006037D01*
X016703Y006037D01*
X016673Y006378D01*
X016700Y006405D01*
X016772Y006333D01*
X017298Y006333D01*
X017357Y006392D01*
X017475Y006343D01*
X017617Y006343D01*
X017749Y006398D01*
X017850Y006499D01*
X017904Y006630D01*
X017904Y006773D01*
X017850Y006904D01*
X018372Y006904D01*
X018372Y006912D02*
X018427Y007044D01*
X018527Y007145D01*
X018659Y007199D01*
X018802Y007199D01*
X018855Y007177D01*
X019630Y007744D01*
X019630Y007832D01*
X019685Y007963D01*
X019786Y008064D01*
X019917Y008119D01*
X020060Y008119D01*
X020191Y008064D01*
X020292Y007963D01*
X020347Y007832D01*
X020347Y007689D01*
X020292Y007558D01*
X020191Y007457D01*
X020060Y007402D01*
X019917Y007402D01*
X019864Y007424D01*
X019088Y006858D01*
X019088Y006770D01*
X019034Y006638D01*
X018933Y006538D01*
X018802Y006483D01*
X018659Y006483D01*
X018527Y006538D01*
X018427Y006638D01*
X018372Y006770D01*
X018372Y006912D01*
X018382Y006746D02*
X017904Y006746D01*
X017886Y006587D02*
X018478Y006587D01*
X018983Y006587D02*
X019486Y006587D01*
X019486Y006530D02*
X020001Y006530D01*
X020001Y006414D01*
X020117Y006414D01*
X020117Y005899D01*
X020539Y005899D01*
X020632Y005993D01*
X020632Y006414D01*
X020117Y006414D01*
X020117Y006530D01*
X020632Y006530D01*
X020632Y006952D01*
X020539Y007046D01*
X020117Y007046D01*
X020117Y006530D01*
X020001Y006530D01*
X020001Y007046D01*
X019579Y007046D01*
X019486Y006952D01*
X019486Y006530D01*
X019486Y006414D02*
X019486Y005993D01*
X019579Y005899D01*
X020001Y005899D01*
X020001Y006414D01*
X019486Y006414D01*
X019486Y006270D02*
X016682Y006270D01*
X016696Y006111D02*
X019486Y006111D01*
X019525Y005953D02*
X017551Y005953D01*
X017560Y005944D02*
X017466Y006038D01*
X017192Y006038D01*
X017192Y005631D01*
X017560Y005631D01*
X017560Y005944D01*
X017560Y005794D02*
X021448Y005794D01*
X021448Y005743D02*
X021563Y005467D01*
X021774Y005256D01*
X022049Y005142D01*
X022348Y005142D01*
X022624Y005256D01*
X022835Y005467D01*
X022949Y005743D01*
X022949Y006042D01*
X022835Y006318D01*
X022624Y006529D01*
X022348Y006643D01*
X022049Y006643D01*
X021774Y006529D01*
X021563Y006318D01*
X021448Y006042D01*
X021448Y005743D01*
X021493Y005636D02*
X017560Y005636D01*
X017560Y005477D02*
X021558Y005477D01*
X021711Y005319D02*
X017560Y005319D01*
X017499Y005160D02*
X022005Y005160D01*
X022064Y004988D02*
X021825Y004749D01*
X021696Y004437D01*
X021696Y004099D01*
X021825Y003787D01*
X022064Y003548D01*
X022376Y003419D01*
X022713Y003419D01*
X023025Y003548D01*
X023264Y003787D01*
X023393Y004099D01*
X023393Y004437D01*
X023264Y004749D01*
X023025Y004988D01*
X022713Y005117D01*
X022376Y005117D01*
X022064Y004988D01*
X022097Y005002D02*
X020583Y005002D01*
X020539Y005046D02*
X020117Y005046D01*
X020117Y004530D01*
X020632Y004530D01*
X020632Y004952D01*
X020539Y005046D01*
X020632Y004843D02*
X021919Y004843D01*
X021798Y004685D02*
X020632Y004685D01*
X020632Y004414D02*
X020117Y004414D01*
X020117Y003899D01*
X020539Y003899D01*
X020632Y003993D01*
X020632Y004414D01*
X020632Y004368D02*
X021696Y004368D01*
X021696Y004209D02*
X020632Y004209D01*
X020632Y004050D02*
X021716Y004050D01*
X021781Y003892D02*
X013321Y003892D01*
X013320Y004050D02*
X019486Y004050D01*
X019486Y003993D02*
X019579Y003899D01*
X020001Y003899D01*
X020001Y004414D01*
X020117Y004414D01*
X020117Y004530D01*
X020001Y004530D01*
X020001Y004414D01*
X019486Y004414D01*
X019486Y003993D01*
X019486Y004209D02*
X013319Y004209D01*
X013318Y004368D02*
X019486Y004368D01*
X019486Y004530D02*
X020001Y004530D01*
X020001Y005046D01*
X019579Y005046D01*
X019486Y004952D01*
X019486Y004530D01*
X019486Y004685D02*
X013316Y004685D01*
X013315Y004843D02*
X019486Y004843D01*
X019535Y005002D02*
X014613Y005002D01*
X015639Y005160D02*
X016121Y005160D01*
X017096Y005160D02*
X017192Y005160D01*
X017192Y005319D02*
X017096Y005319D01*
X017096Y005477D02*
X017192Y005477D01*
X017192Y005636D02*
X017096Y005636D01*
X017096Y005794D02*
X017192Y005794D01*
X017192Y005953D02*
X017096Y005953D01*
X017780Y006429D02*
X020001Y006429D01*
X020117Y006429D02*
X021674Y006429D01*
X021543Y006270D02*
X020632Y006270D01*
X020632Y006111D02*
X021477Y006111D01*
X021448Y005953D02*
X020593Y005953D01*
X020117Y005953D02*
X020001Y005953D01*
X020001Y006111D02*
X020117Y006111D01*
X020117Y006270D02*
X020001Y006270D01*
X020001Y006587D02*
X020117Y006587D01*
X020117Y006746D02*
X020001Y006746D01*
X020001Y006904D02*
X020117Y006904D01*
X020632Y006904D02*
X021748Y006904D01*
X021710Y006942D02*
X021879Y006773D01*
X022101Y006681D01*
X022341Y006681D01*
X022562Y006773D01*
X022732Y006942D01*
X022824Y007164D01*
X022824Y007404D01*
X022732Y007625D01*
X022562Y007795D01*
X022341Y007887D01*
X022101Y007887D01*
X021879Y007795D01*
X021710Y007625D01*
X021618Y007404D01*
X021618Y007164D01*
X021710Y006942D01*
X021660Y007063D02*
X019369Y007063D01*
X019486Y006904D02*
X019152Y006904D01*
X019078Y006746D02*
X019486Y006746D01*
X019586Y007221D02*
X021618Y007221D01*
X021618Y007380D02*
X019803Y007380D01*
X019566Y007697D02*
X018599Y007697D01*
X018599Y007751D02*
X018544Y007882D01*
X018491Y007936D01*
X018491Y008482D01*
X018398Y008575D01*
X017872Y008575D01*
X017801Y008504D01*
X017729Y008576D01*
X017484Y008576D01*
X017484Y008218D01*
X017447Y008218D01*
X017447Y008181D01*
X017109Y008181D01*
X017109Y007917D01*
X017203Y007823D01*
X017447Y007823D01*
X017447Y008181D01*
X017484Y008181D01*
X017484Y007823D01*
X017729Y007823D01*
X017801Y007895D01*
X017872Y007824D01*
X017913Y007824D01*
X017883Y007751D01*
X017883Y007608D01*
X017937Y007477D01*
X018038Y007376D01*
X018170Y007321D01*
X018312Y007321D01*
X018444Y007376D01*
X018544Y007477D01*
X018599Y007608D01*
X018599Y007751D01*
X018556Y007855D02*
X019640Y007855D01*
X019736Y008014D02*
X018491Y008014D01*
X018491Y008173D02*
X021755Y008173D01*
X021821Y008106D02*
X021652Y008275D01*
X021560Y008497D01*
X021560Y008737D01*
X021652Y008958D01*
X021821Y009128D01*
X022043Y009220D01*
X022283Y009220D01*
X022504Y009128D01*
X022674Y008958D01*
X022766Y008737D01*
X022766Y008497D01*
X022674Y008275D01*
X022504Y008106D01*
X022283Y008014D01*
X023129Y008014D01*
X023129Y007855D02*
X022416Y007855D01*
X022283Y008014D02*
X022043Y008014D01*
X021821Y008106D01*
X022043Y008014D02*
X020241Y008014D01*
X020337Y007855D02*
X022026Y007855D01*
X021781Y007697D02*
X020347Y007697D01*
X020273Y007538D02*
X021674Y007538D01*
X022571Y008173D02*
X023129Y008173D01*
X023129Y008331D02*
X022697Y008331D01*
X022763Y008490D02*
X023129Y008490D01*
X023129Y008611D02*
X023129Y007653D01*
X023222Y007560D01*
X024180Y007560D01*
X024273Y007653D01*
X024273Y008611D01*
X024180Y008704D01*
X023222Y008704D01*
X023129Y008611D01*
X023166Y008648D02*
X022766Y008648D01*
X022737Y008807D02*
X025148Y008807D01*
X025149Y008965D02*
X022667Y008965D01*
X022509Y009124D02*
X025149Y009124D01*
X025150Y009282D02*
X016347Y009282D01*
X016347Y009124D02*
X021817Y009124D01*
X021659Y008965D02*
X016347Y008965D01*
X016347Y008930D02*
X016347Y009861D01*
X016254Y009954D01*
X015863Y009954D01*
X015809Y009900D01*
X015754Y009954D01*
X015363Y009954D01*
X015310Y009901D01*
X015255Y009955D01*
X015059Y009955D01*
X015059Y009396D01*
X015058Y009396D01*
X015058Y009955D01*
X014862Y009955D01*
X014808Y009901D01*
X014754Y009954D01*
X014363Y009954D01*
X014270Y009861D01*
X014270Y009076D01*
X014243Y009087D01*
X014212Y009118D01*
X014084Y009118D01*
X013838Y009784D01*
X013838Y009831D01*
X013811Y009858D01*
X013722Y009947D01*
X013668Y009947D01*
X012298Y010340D01*
X012276Y010362D01*
X012222Y010362D01*
X012112Y010362D01*
X012108Y010359D01*
X010315Y010284D01*
X010315Y010293D01*
X010243Y010365D01*
X010315Y010437D01*
X010315Y010540D01*
X010492Y010559D01*
X010567Y010484D01*
X010698Y010430D01*
X010841Y010430D01*
X010973Y010484D01*
X011073Y010585D01*
X011128Y010716D01*
X011128Y010859D01*
X011073Y010991D01*
X010973Y011091D01*
X010841Y011146D01*
X010698Y011146D01*
X010567Y011091D01*
X010466Y010991D01*
X010451Y010953D01*
X010315Y010939D01*
X010315Y010962D01*
X010222Y011055D01*
X009657Y011055D01*
X009564Y010962D01*
X009564Y010437D01*
X009637Y010365D01*
X009564Y010293D01*
X009564Y010253D01*
X009543Y010252D01*
X009430Y010299D01*
X009287Y010299D01*
X009156Y010244D01*
X009147Y010236D01*
X008978Y010229D01*
X008899Y010229D01*
X008896Y010225D01*
X008783Y010112D01*
X008783Y010089D01*
X008430Y009546D01*
X008388Y009504D01*
X008387Y009480D01*
X008387Y009479D01*
X008387Y009419D01*
X008367Y007800D01*
X008366Y007799D01*
X008366Y007718D01*
X008366Y007718D01*
X008366Y007634D01*
X008483Y007518D01*
X008562Y007518D01*
X009038Y007504D01*
X009048Y007494D01*
X003370Y007492D01*
X001842Y007492D01*
X001874Y018190D01*
X019395Y018190D01*
X019274Y018140D01*
X019173Y018039D01*
X019119Y017907D01*
X019119Y017765D01*
X019173Y017633D01*
X019274Y017533D01*
X019152Y017685D02*
X011375Y017685D01*
X011117Y017527D02*
X010998Y017527D01*
X010515Y017527D02*
X010478Y017527D01*
X010478Y017542D02*
X010011Y017542D01*
X009743Y017275D01*
X009743Y017104D01*
X010478Y017104D01*
X010478Y017542D01*
X010478Y017368D02*
X010515Y017368D01*
X010515Y017210D02*
X010478Y017210D01*
X010478Y017051D02*
X010515Y017051D01*
X010515Y016892D02*
X010478Y016892D01*
X010478Y016734D02*
X010515Y016734D01*
X011106Y016417D02*
X016464Y016417D01*
X016503Y016258D02*
X011249Y016258D01*
X011249Y016100D02*
X011799Y016100D01*
X011742Y016043D02*
X011679Y015890D01*
X011679Y015725D01*
X011742Y015572D01*
X011859Y015455D01*
X012012Y015391D01*
X012178Y015391D01*
X012331Y015455D01*
X012448Y015572D01*
X012511Y015725D01*
X012511Y015890D01*
X012448Y016043D01*
X012331Y016160D01*
X012178Y016224D01*
X012012Y016224D01*
X011859Y016160D01*
X011742Y016043D01*
X011700Y015941D02*
X011249Y015941D01*
X011135Y015783D02*
X011679Y015783D01*
X011720Y015624D02*
X010850Y015624D01*
X010807Y015466D02*
X011848Y015466D01*
X012342Y015466D02*
X012848Y015466D01*
X012859Y015455D02*
X013012Y015391D01*
X013178Y015391D01*
X013331Y015455D01*
X013448Y015572D01*
X013511Y015725D01*
X013511Y015890D01*
X013448Y016043D01*
X013331Y016160D01*
X013178Y016224D01*
X013012Y016224D01*
X012859Y016160D01*
X012742Y016043D01*
X012679Y015890D01*
X012679Y015725D01*
X012742Y015572D01*
X012859Y015455D01*
X012720Y015624D02*
X012469Y015624D01*
X012511Y015783D02*
X012679Y015783D01*
X012700Y015941D02*
X012490Y015941D01*
X012391Y016100D02*
X012799Y016100D01*
X013391Y016100D02*
X013799Y016100D01*
X013742Y016043D02*
X013859Y016160D01*
X014012Y016224D01*
X014178Y016224D01*
X014331Y016160D01*
X014448Y016043D01*
X014511Y015890D01*
X014511Y015725D01*
X014448Y015572D01*
X014331Y015455D01*
X014178Y015391D01*
X014012Y015391D01*
X013859Y015455D01*
X013742Y015572D01*
X013679Y015725D01*
X013679Y015890D01*
X013742Y016043D01*
X013700Y015941D02*
X013490Y015941D01*
X013511Y015783D02*
X013679Y015783D01*
X013720Y015624D02*
X013469Y015624D01*
X013342Y015466D02*
X013848Y015466D01*
X014342Y015466D02*
X014846Y015466D01*
X014858Y015453D02*
X015012Y015390D01*
X015095Y015390D01*
X015178Y015390D01*
X015331Y015453D01*
X015449Y015571D01*
X015512Y015724D01*
X015512Y015807D01*
X015095Y015807D01*
X015095Y015390D01*
X015095Y015807D01*
X015095Y015807D01*
X015095Y015808D01*
X015095Y015808D01*
X015095Y016225D01*
X015178Y016225D01*
X015331Y016161D01*
X015449Y016044D01*
X015512Y015890D01*
X015512Y015808D01*
X015095Y015808D01*
X015095Y016225D01*
X015012Y016225D01*
X014858Y016161D01*
X014741Y016044D01*
X014677Y015890D01*
X014677Y015808D01*
X015094Y015808D01*
X015094Y015807D01*
X014677Y015807D01*
X014677Y015724D01*
X014741Y015571D01*
X014858Y015453D01*
X014719Y015624D02*
X014469Y015624D01*
X014511Y015783D02*
X014677Y015783D01*
X014698Y015941D02*
X014490Y015941D01*
X014391Y016100D02*
X014797Y016100D01*
X015095Y016100D02*
X015095Y016100D01*
X015095Y015941D02*
X015095Y015941D01*
X015095Y015783D02*
X015095Y015783D01*
X015095Y015624D02*
X015095Y015624D01*
X015095Y015466D02*
X015095Y015466D01*
X015343Y015466D02*
X016250Y015466D01*
X016250Y015624D02*
X016346Y015624D01*
X016346Y015783D02*
X016250Y015783D01*
X016582Y015941D02*
X015491Y015941D01*
X015512Y015783D02*
X015882Y015783D01*
X015882Y015624D02*
X015471Y015624D01*
X015882Y015307D02*
X010764Y015307D01*
X010726Y015148D02*
X015882Y015148D01*
X016204Y014990D02*
X010696Y014990D01*
X010665Y014831D02*
X014274Y014831D01*
X014115Y014673D02*
X010635Y014673D01*
X010605Y014514D02*
X011551Y014514D01*
X011552Y014515D02*
X011459Y014422D01*
X011459Y013692D01*
X011552Y013599D01*
X012384Y013599D01*
X012477Y013692D01*
X012477Y013739D01*
X012531Y013726D01*
X012562Y013652D01*
X012663Y013551D01*
X012794Y013497D01*
X012937Y013497D01*
X013069Y013551D01*
X013169Y013652D01*
X013224Y013783D01*
X013224Y013926D01*
X013169Y014057D01*
X013069Y014158D01*
X012937Y014213D01*
X012794Y014213D01*
X012663Y014158D01*
X012619Y014114D01*
X012477Y014146D01*
X012477Y014422D01*
X012384Y014515D01*
X011552Y014515D01*
X011459Y014356D02*
X010574Y014356D01*
X010544Y014197D02*
X011459Y014197D01*
X011459Y014039D02*
X010514Y014039D01*
X010483Y013880D02*
X011459Y013880D01*
X011459Y013722D02*
X010453Y013722D01*
X010423Y013563D02*
X012651Y013563D01*
X012533Y013722D02*
X012477Y013722D01*
X012385Y013532D02*
X012038Y013532D01*
X012038Y013143D01*
X011898Y013143D01*
X011898Y013532D01*
X011551Y013532D01*
X011458Y013438D01*
X011458Y013142D01*
X011898Y013142D01*
X011898Y013003D01*
X011458Y013003D01*
X011458Y012707D01*
X011551Y012614D01*
X011898Y012614D01*
X011898Y013003D01*
X012038Y013003D01*
X012038Y013142D01*
X012478Y013142D01*
X012478Y013438D01*
X012385Y013532D01*
X012478Y013404D02*
X014096Y013404D01*
X014096Y013307D02*
X014341Y013061D01*
X014688Y013061D01*
X014933Y013307D01*
X014933Y013654D01*
X014688Y013899D01*
X014341Y013899D01*
X014096Y013654D01*
X014096Y013307D01*
X014157Y013246D02*
X012478Y013246D01*
X012478Y013003D02*
X012038Y013003D01*
X012038Y012614D01*
X012385Y012614D01*
X012478Y012707D01*
X012478Y013003D01*
X012478Y012929D02*
X014717Y012929D01*
X014714Y013087D02*
X014863Y013087D01*
X014872Y013246D02*
X014988Y013246D01*
X014983Y013404D02*
X014933Y013404D01*
X014933Y013563D02*
X014978Y013563D01*
X014973Y013722D02*
X014865Y013722D01*
X014968Y013880D02*
X014707Y013880D01*
X014963Y014039D02*
X014185Y014039D01*
X014185Y013980D02*
X014185Y014154D01*
X013939Y014400D01*
X013765Y014400D01*
X013765Y013981D01*
X013764Y013981D01*
X013764Y014400D01*
X013591Y014400D01*
X013345Y014154D01*
X013345Y013980D01*
X013345Y013806D01*
X013591Y013560D01*
X013764Y013560D01*
X013764Y013980D01*
X013345Y013980D01*
X013764Y013980D01*
X013764Y013980D01*
X013765Y013980D01*
X013765Y013980D01*
X014185Y013980D01*
X014185Y013806D01*
X013939Y013560D01*
X013765Y013560D01*
X013765Y013980D01*
X014185Y013980D01*
X014185Y013880D02*
X014322Y013880D01*
X014164Y013722D02*
X014100Y013722D01*
X014096Y013563D02*
X013941Y013563D01*
X013765Y013563D02*
X013764Y013563D01*
X013764Y013722D02*
X013765Y013722D01*
X013764Y013880D02*
X013765Y013880D01*
X013764Y014039D02*
X013765Y014039D01*
X013764Y014197D02*
X013765Y014197D01*
X013764Y014356D02*
X013765Y014356D01*
X013983Y014356D02*
X014096Y014356D01*
X014096Y014514D02*
X012385Y014514D01*
X012477Y014356D02*
X013546Y014356D01*
X013388Y014197D02*
X012974Y014197D01*
X012757Y014197D02*
X012477Y014197D01*
X013177Y014039D02*
X013345Y014039D01*
X013345Y013880D02*
X013224Y013880D01*
X013198Y013722D02*
X013429Y013722D01*
X013588Y013563D02*
X013081Y013563D01*
X012478Y012770D02*
X014572Y012770D01*
X014426Y012612D02*
X010241Y012612D01*
X010271Y012770D02*
X011458Y012770D01*
X011458Y012929D02*
X010302Y012929D01*
X010332Y013087D02*
X011898Y013087D01*
X012038Y013087D02*
X014315Y013087D01*
X014345Y012453D02*
X012438Y012453D01*
X012477Y012414D02*
X012384Y012507D01*
X011552Y012507D01*
X011459Y012414D01*
X011459Y011684D01*
X011552Y011591D01*
X012384Y011591D01*
X012477Y011684D01*
X012477Y011856D01*
X012551Y011782D01*
X012683Y011727D01*
X012825Y011727D01*
X012957Y011782D01*
X013057Y011882D01*
X013112Y012014D01*
X013112Y012157D01*
X013057Y012288D01*
X012957Y012389D01*
X012825Y012443D01*
X012683Y012443D01*
X012551Y012389D01*
X012477Y012315D01*
X012477Y012414D01*
X012038Y012770D02*
X011898Y012770D01*
X011898Y012929D02*
X012038Y012929D01*
X012038Y013246D02*
X011898Y013246D01*
X011898Y013404D02*
X012038Y013404D01*
X011458Y013404D02*
X010392Y013404D01*
X010362Y013246D02*
X011458Y013246D01*
X011498Y012453D02*
X010211Y012453D01*
X010180Y012295D02*
X011459Y012295D01*
X011459Y012136D02*
X010150Y012136D01*
X010120Y011978D02*
X011459Y011978D01*
X011459Y011819D02*
X010089Y011819D01*
X010059Y011661D02*
X011483Y011661D01*
X011037Y011026D02*
X013355Y011026D01*
X013369Y010868D02*
X011124Y010868D01*
X011125Y010709D02*
X013354Y010709D01*
X013354Y010551D02*
X011039Y010551D01*
X010500Y010551D02*
X010418Y010551D01*
X010270Y010392D02*
X013354Y010392D01*
X013354Y010476D02*
X013354Y010212D01*
X013447Y010118D01*
X013692Y010118D01*
X013692Y010476D01*
X013354Y010476D01*
X013354Y010234D02*
X012670Y010234D01*
X013223Y010075D02*
X019623Y010075D01*
X019614Y010096D02*
X019614Y010238D01*
X019668Y010370D01*
X019769Y010471D01*
X019776Y010474D01*
X019783Y011920D01*
X019780Y011921D01*
X019679Y012021D01*
X019625Y012153D01*
X019625Y012296D01*
X019679Y012427D01*
X019780Y012528D01*
X019912Y012582D01*
X020054Y012582D01*
X020186Y012528D01*
X020287Y012427D01*
X020341Y012296D01*
X020341Y012153D01*
X020287Y012021D01*
X020186Y011921D01*
X020180Y011918D01*
X020174Y010471D01*
X020175Y010471D01*
X020189Y010457D01*
X020222Y010537D01*
X020319Y010634D01*
X020314Y010707D01*
X020314Y010708D01*
X020312Y010733D01*
X020308Y010787D01*
X020308Y010799D01*
X020298Y010970D01*
X020298Y011058D01*
X020414Y011174D01*
X020578Y011174D01*
X020689Y011063D01*
X020701Y010856D01*
X020717Y010642D01*
X020728Y010637D01*
X020829Y010537D01*
X020883Y010405D01*
X020883Y010263D01*
X020829Y010131D01*
X020728Y010030D01*
X020596Y009976D01*
X020454Y009976D01*
X020322Y010030D01*
X020309Y010044D01*
X020276Y009964D01*
X020175Y009864D01*
X020043Y009809D01*
X019901Y009809D01*
X019769Y009864D01*
X019668Y009964D01*
X019614Y010096D01*
X019614Y010234D02*
X014067Y010234D01*
X014067Y010392D02*
X019691Y010392D01*
X019777Y010551D02*
X014067Y010551D01*
X014067Y010709D02*
X018306Y010709D01*
X018128Y010868D02*
X016171Y010868D01*
X016364Y011026D02*
X018086Y011026D01*
X018093Y011185D02*
X016565Y011185D01*
X016766Y011343D02*
X017978Y011343D01*
X017862Y011502D02*
X016967Y011502D01*
X017168Y011661D02*
X017546Y011661D01*
X017473Y011819D02*
X017368Y011819D01*
X017921Y012295D02*
X019625Y012295D01*
X019632Y012136D02*
X018083Y012136D01*
X018179Y011978D02*
X019723Y011978D01*
X019783Y011819D02*
X018189Y011819D01*
X018237Y011661D02*
X019782Y011661D01*
X019781Y011502D02*
X018353Y011502D01*
X018646Y011343D02*
X019780Y011343D01*
X019780Y011185D02*
X018772Y011185D01*
X018802Y011026D02*
X019779Y011026D01*
X019778Y010868D02*
X018760Y010868D01*
X018582Y010709D02*
X019777Y010709D01*
X020175Y010709D02*
X020313Y010709D01*
X020304Y010868D02*
X020176Y010868D01*
X020176Y011026D02*
X020298Y011026D01*
X020177Y011185D02*
X025156Y011185D01*
X025156Y011343D02*
X020178Y011343D01*
X020178Y011502D02*
X025156Y011502D01*
X025157Y011661D02*
X020179Y011661D01*
X020180Y011819D02*
X025157Y011819D01*
X025158Y011978D02*
X020243Y011978D01*
X020334Y012136D02*
X025158Y012136D01*
X025159Y012295D02*
X020341Y012295D01*
X020261Y012453D02*
X025159Y012453D01*
X025160Y012612D02*
X018402Y012612D01*
X018440Y012770D02*
X025160Y012770D01*
X025161Y012929D02*
X018405Y012929D01*
X018260Y013087D02*
X025161Y013087D01*
X025162Y013246D02*
X016995Y013246D01*
X017038Y013087D02*
X017903Y013087D01*
X017758Y012929D02*
X017202Y012929D01*
X017596Y012770D02*
X017723Y012770D01*
X017673Y012612D02*
X017666Y012612D01*
X018243Y012453D02*
X019706Y012453D01*
X019409Y013563D02*
X025163Y013563D01*
X025162Y013404D02*
X016938Y013404D01*
X017551Y013563D02*
X018888Y013563D01*
X018871Y014039D02*
X015359Y014039D01*
X015355Y014197D02*
X025165Y014197D01*
X025164Y014039D02*
X019426Y014039D01*
X019506Y013880D02*
X025164Y013880D01*
X025163Y013722D02*
X019500Y013722D01*
X020613Y014679D02*
X020882Y014410D01*
X021862Y014410D01*
X022098Y014647D01*
X022279Y014646D01*
X022667Y014623D01*
X022667Y014552D01*
X022921Y014298D01*
X023280Y014298D01*
X023534Y014552D01*
X023534Y014911D01*
X023280Y015166D01*
X022921Y015166D01*
X022809Y015053D01*
X022381Y015078D01*
X022376Y015083D01*
X022292Y015083D01*
X022285Y015083D01*
X022105Y015084D01*
X021862Y015328D01*
X020882Y015328D01*
X020825Y015271D01*
X020275Y015450D01*
X020275Y015551D01*
X020030Y015796D01*
X019683Y015796D01*
X019438Y015551D01*
X019438Y015204D01*
X019683Y014959D01*
X020030Y014959D01*
X020146Y015074D01*
X020613Y014922D01*
X020613Y014679D01*
X020619Y014673D02*
X017027Y014673D01*
X017140Y014831D02*
X020613Y014831D01*
X020405Y014990D02*
X020061Y014990D01*
X019652Y014990D02*
X017145Y014990D01*
X017382Y015148D02*
X019494Y015148D01*
X019438Y015307D02*
X017382Y015307D01*
X017382Y015466D02*
X019438Y015466D01*
X019511Y015624D02*
X017382Y015624D01*
X017382Y015783D02*
X019670Y015783D01*
X020044Y015783D02*
X020187Y015783D01*
X020187Y015704D02*
X020433Y015457D01*
X020606Y015457D01*
X020606Y015877D01*
X020187Y015877D01*
X020187Y015704D01*
X020202Y015624D02*
X020266Y015624D01*
X020275Y015466D02*
X020425Y015466D01*
X020606Y015466D02*
X020607Y015466D01*
X020607Y015457D02*
X020781Y015457D01*
X020807Y015483D01*
X020881Y015409D01*
X021352Y015409D01*
X021352Y015849D01*
X021392Y015849D01*
X021392Y015889D01*
X022132Y015889D01*
X022132Y016059D01*
X021862Y016329D01*
X021392Y016329D01*
X021392Y015889D01*
X021352Y015889D01*
X021352Y016329D01*
X020881Y016329D01*
X020815Y016263D01*
X020781Y016297D01*
X020607Y016297D01*
X020607Y015878D01*
X020606Y015878D01*
X020606Y015877D01*
X020607Y015877D01*
X020607Y015457D01*
X020606Y015624D02*
X020607Y015624D01*
X020606Y015783D02*
X020607Y015783D01*
X020607Y015877D02*
X020607Y015878D01*
X021027Y015878D01*
X021027Y015889D01*
X021351Y015889D01*
X021351Y015849D01*
X021027Y015849D01*
X021027Y015877D01*
X020607Y015877D01*
X020606Y015878D02*
X020187Y015878D01*
X020187Y016051D01*
X020433Y016297D01*
X020606Y016297D01*
X020606Y015878D01*
X020606Y015941D02*
X020607Y015941D01*
X020606Y016100D02*
X020607Y016100D01*
X020606Y016258D02*
X020607Y016258D01*
X020626Y016417D02*
X020875Y016417D01*
X021352Y016258D02*
X021392Y016258D01*
X021392Y016100D02*
X021352Y016100D01*
X021352Y015941D02*
X021392Y015941D01*
X021392Y015849D02*
X022132Y015849D01*
X022132Y015678D01*
X021862Y015409D01*
X021392Y015409D01*
X021392Y015849D01*
X021392Y015783D02*
X021352Y015783D01*
X021352Y015624D02*
X021392Y015624D01*
X021392Y015466D02*
X021352Y015466D01*
X020861Y015307D02*
X020713Y015307D01*
X020789Y015466D02*
X020824Y015466D01*
X020187Y015941D02*
X017238Y015941D01*
X017199Y016100D02*
X019542Y016100D01*
X019438Y016258D02*
X018987Y016258D01*
X019000Y016271D02*
X018907Y016178D01*
X018623Y016178D01*
X018623Y016790D01*
X018623Y016905D01*
X019000Y016905D01*
X019000Y017424D01*
X018907Y017518D01*
X018623Y017518D01*
X018623Y016905D01*
X018508Y016905D01*
X018508Y017518D01*
X018224Y017518D01*
X018130Y017424D01*
X018130Y016905D01*
X018508Y016905D01*
X018508Y016790D01*
X018623Y016790D01*
X019000Y016790D01*
X019000Y016271D01*
X019000Y016417D02*
X019438Y016417D01*
X019462Y016575D02*
X019000Y016575D01*
X019000Y016734D02*
X019621Y016734D01*
X020092Y016734D02*
X020315Y016734D01*
X020613Y016892D02*
X018623Y016892D01*
X018508Y016892D02*
X017739Y016892D01*
X017739Y016734D02*
X018130Y016734D01*
X018130Y016790D02*
X018130Y016271D01*
X018224Y016178D01*
X018508Y016178D01*
X018508Y016790D01*
X018130Y016790D01*
X018130Y016575D02*
X017739Y016575D01*
X017739Y016417D02*
X018130Y016417D01*
X018143Y016258D02*
X017726Y016258D01*
X018508Y016258D02*
X018623Y016258D01*
X018623Y016417D02*
X018508Y016417D01*
X018508Y016575D02*
X018623Y016575D01*
X018623Y016734D02*
X018508Y016734D01*
X018508Y017051D02*
X018623Y017051D01*
X018623Y017210D02*
X018508Y017210D01*
X018508Y017368D02*
X018623Y017368D01*
X019000Y017368D02*
X021088Y017368D01*
X020764Y017210D02*
X019000Y017210D01*
X019000Y017051D02*
X020613Y017051D01*
X021491Y017368D02*
X023252Y017368D01*
X023209Y017263D02*
X023341Y017582D01*
X023585Y017826D01*
X023904Y017959D01*
X024250Y017959D01*
X024569Y017826D01*
X024814Y017582D01*
X024946Y017263D01*
X024946Y016917D01*
X024814Y016598D01*
X024569Y016354D01*
X024250Y016221D01*
X023904Y016221D01*
X023585Y016354D01*
X023341Y016598D01*
X023209Y016917D01*
X023209Y017263D01*
X023209Y017210D02*
X021980Y017210D01*
X022130Y017051D02*
X023209Y017051D01*
X023219Y016892D02*
X022130Y016892D01*
X022130Y016734D02*
X023284Y016734D01*
X023363Y016575D02*
X022027Y016575D01*
X021868Y016417D02*
X023522Y016417D01*
X023815Y016258D02*
X021933Y016258D01*
X022091Y016100D02*
X025170Y016100D01*
X025171Y016258D02*
X024339Y016258D01*
X024632Y016417D02*
X025171Y016417D01*
X025172Y016575D02*
X024791Y016575D01*
X024870Y016734D02*
X025172Y016734D01*
X025173Y016892D02*
X024936Y016892D01*
X024946Y017051D02*
X025173Y017051D01*
X025174Y017210D02*
X024946Y017210D01*
X024902Y017368D02*
X025174Y017368D01*
X025175Y017527D02*
X024837Y017527D01*
X024711Y017685D02*
X025175Y017685D01*
X025176Y017844D02*
X024528Y017844D01*
X025176Y018002D02*
X019796Y018002D01*
X019629Y018161D02*
X025176Y018161D01*
X023627Y017844D02*
X021364Y017844D01*
X021438Y017685D02*
X023444Y017685D01*
X023318Y017527D02*
X021465Y017527D01*
X020394Y016258D02*
X020275Y016258D01*
X020235Y016100D02*
X020171Y016100D01*
X021919Y015466D02*
X025168Y015466D01*
X025169Y015624D02*
X022077Y015624D01*
X022132Y015783D02*
X025169Y015783D01*
X025170Y015941D02*
X022132Y015941D01*
X021882Y015307D02*
X025168Y015307D01*
X025167Y015148D02*
X024299Y015148D01*
X024281Y015167D02*
X024108Y015167D01*
X024108Y014740D01*
X024093Y014740D01*
X024093Y015167D01*
X023921Y015167D01*
X023666Y014912D01*
X023666Y014739D01*
X024093Y014739D01*
X024093Y014724D01*
X024108Y014724D01*
X024108Y014297D01*
X024281Y014297D01*
X024536Y014552D01*
X024536Y014724D01*
X024109Y014724D01*
X024109Y014739D01*
X024536Y014739D01*
X024536Y014912D01*
X024281Y015167D01*
X024108Y015148D02*
X024093Y015148D01*
X024093Y014990D02*
X024108Y014990D01*
X024093Y014831D02*
X024108Y014831D01*
X024093Y014724D02*
X023666Y014724D01*
X023666Y014552D01*
X023921Y014297D01*
X024093Y014297D01*
X024093Y014724D01*
X024093Y014673D02*
X024108Y014673D01*
X024093Y014514D02*
X024108Y014514D01*
X024093Y014356D02*
X024108Y014356D01*
X024340Y014356D02*
X025165Y014356D01*
X025166Y014514D02*
X024498Y014514D01*
X024536Y014673D02*
X025166Y014673D01*
X025166Y014831D02*
X024536Y014831D01*
X024458Y014990D02*
X025167Y014990D01*
X023902Y015148D02*
X023297Y015148D01*
X023456Y014990D02*
X023744Y014990D01*
X023666Y014831D02*
X023534Y014831D01*
X023534Y014673D02*
X023666Y014673D01*
X023703Y014514D02*
X023497Y014514D01*
X023338Y014356D02*
X023862Y014356D01*
X022863Y014356D02*
X015253Y014356D01*
X015461Y014514D02*
X020777Y014514D01*
X021966Y014514D02*
X022705Y014514D01*
X022292Y015083D02*
X022292Y015083D01*
X022041Y015148D02*
X022904Y015148D01*
X019119Y017844D02*
X008874Y017844D01*
X008735Y018002D02*
X019158Y018002D01*
X019325Y018161D02*
X001874Y018161D01*
X001874Y018002D02*
X007128Y018002D01*
X006935Y017844D02*
X006623Y017844D01*
X006744Y017527D02*
X006863Y017527D01*
X006909Y017368D02*
X006718Y017368D01*
X006625Y017210D02*
X007032Y017210D01*
X006985Y016734D02*
X006653Y016734D01*
X006775Y016612D02*
X006507Y016880D01*
X006337Y016880D01*
X006337Y016145D01*
X006775Y016145D01*
X006775Y016612D01*
X006775Y016575D02*
X006863Y016575D01*
X006863Y016417D02*
X006775Y016417D01*
X006775Y016258D02*
X006863Y016258D01*
X006863Y016100D02*
X006775Y016100D01*
X006775Y016108D02*
X006337Y016108D01*
X006337Y016145D01*
X006300Y016145D01*
X006300Y016880D01*
X006129Y016880D01*
X005861Y016612D01*
X005861Y016145D01*
X006299Y016145D01*
X006299Y016108D01*
X005861Y016108D01*
X005861Y015640D01*
X006129Y015373D01*
X006300Y015373D01*
X006300Y016108D01*
X006337Y016108D01*
X006337Y015373D01*
X006507Y015373D01*
X006775Y015640D01*
X006775Y016108D01*
X006775Y015941D02*
X006863Y015941D01*
X006863Y015783D02*
X006775Y015783D01*
X006759Y015624D02*
X006814Y015624D01*
X006681Y015466D02*
X006600Y015466D01*
X006493Y015307D02*
X004619Y015307D01*
X004619Y015466D02*
X006036Y015466D01*
X005877Y015624D02*
X004618Y015624D01*
X004618Y015783D02*
X005861Y015783D01*
X005861Y015941D02*
X004618Y015941D01*
X004618Y016100D02*
X005861Y016100D01*
X005861Y016258D02*
X004618Y016258D01*
X004618Y016417D02*
X005861Y016417D01*
X005861Y016575D02*
X004618Y016575D01*
X004618Y016734D02*
X005983Y016734D01*
X006300Y016734D02*
X006337Y016734D01*
X006337Y016575D02*
X006300Y016575D01*
X006300Y016417D02*
X006337Y016417D01*
X006337Y016258D02*
X006300Y016258D01*
X006300Y016100D02*
X006337Y016100D01*
X006337Y015941D02*
X006300Y015941D01*
X006300Y015783D02*
X006337Y015783D01*
X006337Y015624D02*
X006300Y015624D01*
X006300Y015466D02*
X006337Y015466D01*
X006306Y015148D02*
X004619Y015148D01*
X004619Y014990D02*
X006119Y014990D01*
X005931Y014831D02*
X004619Y014831D01*
X004619Y014673D02*
X005744Y014673D01*
X005613Y014563D02*
X005613Y014563D01*
X005565Y014514D02*
X004619Y014514D01*
X004619Y014356D02*
X005536Y014356D01*
X005546Y014197D02*
X004619Y014197D01*
X004620Y014039D02*
X005554Y014039D01*
X005562Y013880D02*
X004620Y013880D01*
X004620Y013722D02*
X005570Y013722D01*
X005578Y013563D02*
X004620Y013563D01*
X004620Y013404D02*
X005572Y013404D01*
X005560Y013246D02*
X004620Y013246D01*
X004620Y013087D02*
X005071Y013087D01*
X004983Y012929D02*
X004620Y012929D01*
X004621Y012770D02*
X004983Y012770D01*
X004983Y012612D02*
X004621Y012612D01*
X004621Y012453D02*
X005004Y012453D01*
X004982Y012295D02*
X004621Y012295D01*
X004621Y012136D02*
X004982Y012136D01*
X004982Y012049D02*
X004982Y011804D01*
X005075Y011711D01*
X005340Y011711D01*
X005340Y012049D01*
X004982Y012049D01*
X004982Y011978D02*
X004621Y011978D01*
X004621Y011819D02*
X004982Y011819D01*
X005340Y011819D02*
X005377Y011819D01*
X005377Y011711D02*
X005641Y011711D01*
X005735Y011804D01*
X005735Y012049D01*
X005377Y012049D01*
X005377Y011711D01*
X005735Y011819D02*
X005806Y011819D01*
X005806Y011978D02*
X005735Y011978D01*
X005735Y012136D02*
X005806Y012136D01*
X005833Y012295D02*
X005735Y012295D01*
X005712Y012453D02*
X005903Y012453D01*
X005760Y012729D02*
X005820Y013511D01*
X005775Y014387D01*
X006973Y015400D01*
X007287Y016076D01*
X007318Y016126D01*
X007774Y016100D02*
X007863Y016100D01*
X007863Y016258D02*
X007774Y016258D01*
X007774Y016417D02*
X007863Y016417D01*
X007863Y016575D02*
X007774Y016575D01*
X007652Y016734D02*
X007985Y016734D01*
X008184Y017210D02*
X007644Y017210D01*
X007766Y017368D02*
X008042Y017368D01*
X007982Y017527D02*
X007813Y017527D01*
X007741Y017844D02*
X008040Y017844D01*
X008178Y018002D02*
X007548Y018002D01*
X008729Y017210D02*
X009743Y017210D01*
X009743Y017051D02*
X006365Y017051D01*
X006174Y017051D02*
X004617Y017051D01*
X004617Y017210D02*
X005914Y017210D01*
X005820Y017368D02*
X004617Y017368D01*
X004617Y017527D02*
X005794Y017527D01*
X005916Y017844D02*
X003425Y017844D01*
X003467Y017826D02*
X003148Y017959D01*
X002802Y017959D01*
X002483Y017826D01*
X002238Y017582D01*
X002106Y017263D01*
X002106Y016917D01*
X002238Y016598D01*
X002483Y016354D01*
X002802Y016221D01*
X003148Y016221D01*
X003467Y016354D01*
X003711Y016598D01*
X003843Y016917D01*
X003843Y017263D01*
X003711Y017582D01*
X003467Y017826D01*
X003608Y017685D02*
X004404Y017685D01*
X004378Y017527D02*
X003734Y017527D01*
X003800Y017368D02*
X004378Y017368D01*
X004378Y017210D02*
X003843Y017210D01*
X003843Y017051D02*
X004379Y017051D01*
X004379Y016892D02*
X003833Y016892D01*
X003767Y016734D02*
X004379Y016734D01*
X004379Y016575D02*
X003689Y016575D01*
X003530Y016417D02*
X004379Y016417D01*
X004379Y016258D02*
X003237Y016258D01*
X002713Y016258D02*
X001869Y016258D01*
X001868Y016100D02*
X004379Y016100D01*
X004379Y015941D02*
X001868Y015941D01*
X001867Y015783D02*
X004380Y015783D01*
X004380Y015624D02*
X001867Y015624D01*
X001866Y015466D02*
X004380Y015466D01*
X004380Y015307D02*
X001866Y015307D01*
X001865Y015148D02*
X004380Y015148D01*
X004380Y014990D02*
X001865Y014990D01*
X001864Y014831D02*
X004380Y014831D01*
X004380Y014673D02*
X001864Y014673D01*
X001863Y014514D02*
X004380Y014514D01*
X004381Y014356D02*
X001863Y014356D01*
X001862Y014197D02*
X004381Y014197D01*
X004381Y014039D02*
X001862Y014039D01*
X001861Y013880D02*
X004381Y013880D01*
X004381Y013722D02*
X001861Y013722D01*
X001861Y013563D02*
X004381Y013563D01*
X004381Y013404D02*
X001860Y013404D01*
X001860Y013246D02*
X004381Y013246D01*
X004382Y013087D02*
X001859Y013087D01*
X001859Y012929D02*
X004382Y012929D01*
X004382Y012770D02*
X001858Y012770D01*
X001858Y012612D02*
X004382Y012612D01*
X004382Y012453D02*
X001857Y012453D01*
X001857Y012295D02*
X004382Y012295D01*
X004382Y012136D02*
X001856Y012136D01*
X001856Y011978D02*
X004382Y011978D01*
X004383Y011819D02*
X001855Y011819D01*
X001855Y011661D02*
X004383Y011661D01*
X004383Y011502D02*
X001854Y011502D01*
X001854Y011343D02*
X004383Y011343D01*
X004383Y011247D02*
X004383Y011247D01*
X004446Y011185D02*
X003519Y011185D01*
X003429Y011222D02*
X003705Y011108D01*
X003916Y010897D01*
X004030Y010621D01*
X004030Y010322D01*
X003916Y010046D01*
X003705Y009835D01*
X003429Y009721D01*
X003130Y009721D01*
X002854Y009835D01*
X002643Y010046D01*
X002529Y010322D01*
X002529Y010621D01*
X002643Y010897D01*
X002854Y011108D01*
X003130Y011222D01*
X003429Y011222D01*
X003040Y011185D02*
X001853Y011185D01*
X001853Y011026D02*
X002773Y011026D01*
X002631Y010868D02*
X001852Y010868D01*
X001852Y010709D02*
X002566Y010709D01*
X002529Y010551D02*
X001851Y010551D01*
X001851Y010392D02*
X002529Y010392D01*
X002566Y010234D02*
X001851Y010234D01*
X001850Y010075D02*
X002631Y010075D01*
X002773Y009917D02*
X001850Y009917D01*
X001849Y009758D02*
X003041Y009758D01*
X003057Y009336D02*
X002745Y009207D01*
X002506Y008968D01*
X002377Y008656D01*
X002377Y008318D01*
X002506Y008006D01*
X002745Y007767D01*
X003057Y007638D01*
X003395Y007638D01*
X003707Y007767D01*
X003946Y008006D01*
X004075Y008318D01*
X004075Y008656D01*
X003946Y008968D01*
X003707Y009207D01*
X003395Y009336D01*
X003057Y009336D01*
X002928Y009282D02*
X001848Y009282D01*
X001847Y009124D02*
X002662Y009124D01*
X002505Y008965D02*
X001847Y008965D01*
X001846Y008807D02*
X002440Y008807D01*
X002377Y008648D02*
X001846Y008648D01*
X001845Y008490D02*
X002377Y008490D01*
X002377Y008331D02*
X001845Y008331D01*
X001844Y008173D02*
X002437Y008173D01*
X002503Y008014D02*
X001844Y008014D01*
X001843Y007855D02*
X002657Y007855D01*
X002915Y007697D02*
X001843Y007697D01*
X001842Y007538D02*
X008462Y007538D01*
X008366Y007697D02*
X003537Y007697D01*
X003795Y007855D02*
X008368Y007855D01*
X008370Y008014D02*
X006364Y008014D01*
X006364Y007984D02*
X006271Y007891D01*
X005313Y007891D01*
X005220Y007984D01*
X005220Y008942D01*
X005313Y009035D01*
X006271Y009035D01*
X006364Y008942D01*
X006364Y007984D01*
X006364Y008173D02*
X008372Y008173D01*
X008374Y008331D02*
X006364Y008331D01*
X006364Y008490D02*
X007328Y008490D01*
X007414Y008403D02*
X007116Y008701D01*
X007116Y009123D01*
X007414Y009421D01*
X007836Y009421D01*
X008134Y009123D01*
X008134Y008701D01*
X007836Y008403D01*
X007414Y008403D01*
X007170Y008648D02*
X006364Y008648D01*
X006364Y008807D02*
X007116Y008807D01*
X007116Y008965D02*
X006341Y008965D01*
X007117Y009124D02*
X003790Y009124D01*
X003947Y008965D02*
X005243Y008965D01*
X005220Y008807D02*
X004012Y008807D01*
X004075Y008648D02*
X005220Y008648D01*
X005220Y008490D02*
X004075Y008490D01*
X004075Y008331D02*
X005220Y008331D01*
X005220Y008173D02*
X004015Y008173D01*
X003949Y008014D02*
X005220Y008014D01*
X003899Y006904D02*
X012900Y006904D01*
X012946Y006746D02*
X006376Y006746D01*
X006376Y006761D02*
X006283Y006855D01*
X005861Y006855D01*
X005861Y006339D01*
X006376Y006339D01*
X006376Y006761D01*
X006376Y006587D02*
X008666Y006587D01*
X008666Y006632D02*
X008666Y004645D01*
X010745Y004645D01*
X010745Y004485D01*
X008666Y004485D01*
X008666Y002499D01*
X008759Y002405D01*
X010746Y002405D01*
X010746Y004485D01*
X010905Y004485D01*
X010905Y002405D01*
X012892Y002405D01*
X012986Y002499D01*
X012986Y004485D01*
X010906Y004485D01*
X010906Y004645D01*
X012986Y004645D01*
X012986Y006612D01*
X013065Y006338D01*
X013099Y001556D01*
X008686Y001552D01*
X008350Y002030D01*
X008374Y002088D01*
X008374Y002231D01*
X008319Y002362D01*
X008219Y002463D01*
X008087Y002517D01*
X007944Y002517D01*
X007813Y002463D01*
X007712Y002362D01*
X007658Y002231D01*
X007658Y002088D01*
X007712Y001956D01*
X007813Y001856D01*
X007944Y001801D01*
X008025Y001801D01*
X008236Y001501D01*
X003256Y001496D01*
X003415Y001562D01*
X003659Y001806D01*
X003791Y002125D01*
X003791Y002471D01*
X003659Y002790D01*
X003415Y003034D01*
X003096Y003167D01*
X002750Y003167D01*
X002431Y003034D01*
X002186Y002790D01*
X002054Y002471D01*
X002054Y002125D01*
X002186Y001806D01*
X002431Y001562D01*
X002591Y001495D01*
X001824Y001494D01*
X001842Y007253D01*
X003332Y007253D01*
X012798Y007256D01*
X012977Y006640D01*
X012892Y006725D01*
X010905Y006725D01*
X010905Y004645D01*
X010746Y004645D01*
X010746Y006725D01*
X008759Y006725D01*
X008666Y006632D01*
X008666Y006429D02*
X006376Y006429D01*
X006376Y006224D02*
X005861Y006224D01*
X005861Y006339D01*
X005745Y006339D01*
X005745Y006224D01*
X005230Y006224D01*
X005230Y005802D01*
X005323Y005708D01*
X005745Y005708D01*
X005745Y006223D01*
X005861Y006223D01*
X005861Y005708D01*
X006283Y005708D01*
X006376Y005802D01*
X006376Y006224D01*
X006376Y006111D02*
X008666Y006111D01*
X008666Y005953D02*
X006376Y005953D01*
X006369Y005794D02*
X008666Y005794D01*
X008666Y005636D02*
X003703Y005636D01*
X003721Y005643D02*
X003960Y005882D01*
X004089Y006194D01*
X004089Y006532D01*
X003960Y006844D01*
X003721Y007083D01*
X003409Y007212D01*
X003071Y007212D01*
X002759Y007083D01*
X002520Y006844D01*
X002391Y006532D01*
X002391Y006194D01*
X002520Y005882D01*
X002759Y005643D01*
X003071Y005514D01*
X003409Y005514D01*
X003721Y005643D01*
X003872Y005794D02*
X005237Y005794D01*
X005230Y005953D02*
X003989Y005953D01*
X004055Y006111D02*
X005230Y006111D01*
X005230Y006339D02*
X005745Y006339D01*
X005745Y006855D01*
X005323Y006855D01*
X005230Y006761D01*
X005230Y006339D01*
X005230Y006429D02*
X004089Y006429D01*
X004089Y006270D02*
X005745Y006270D01*
X005861Y006270D02*
X008666Y006270D01*
X008666Y005477D02*
X001836Y005477D01*
X001836Y005319D02*
X007311Y005319D01*
X007414Y005422D02*
X007115Y005123D01*
X007115Y004920D01*
X007617Y004920D01*
X007617Y004905D01*
X007115Y004905D01*
X007115Y004701D01*
X007414Y004402D01*
X007618Y004402D01*
X007618Y004904D01*
X007633Y004904D01*
X007633Y004402D01*
X007836Y004402D01*
X008135Y004701D01*
X008135Y004905D01*
X007633Y004905D01*
X007633Y004920D01*
X007618Y004920D01*
X007618Y005422D01*
X007414Y005422D01*
X007633Y005422D02*
X007633Y004920D01*
X008135Y004920D01*
X008135Y005123D01*
X007836Y005422D01*
X007633Y005422D01*
X007633Y005319D02*
X007618Y005319D01*
X007618Y005160D02*
X007633Y005160D01*
X007618Y005002D02*
X007633Y005002D01*
X007618Y004843D02*
X007633Y004843D01*
X007618Y004685D02*
X007633Y004685D01*
X007618Y004526D02*
X007633Y004526D01*
X007960Y004526D02*
X010745Y004526D01*
X010746Y004368D02*
X010905Y004368D01*
X010906Y004526D02*
X013078Y004526D01*
X013079Y004368D02*
X012986Y004368D01*
X012986Y004209D02*
X013080Y004209D01*
X013081Y004050D02*
X012986Y004050D01*
X012986Y003892D02*
X013083Y003892D01*
X013084Y003733D02*
X012986Y003733D01*
X012986Y003575D02*
X013085Y003575D01*
X013086Y003416D02*
X012986Y003416D01*
X012986Y003258D02*
X013087Y003258D01*
X013088Y003099D02*
X012986Y003099D01*
X012986Y002941D02*
X013089Y002941D01*
X013090Y002782D02*
X012986Y002782D01*
X012986Y002624D02*
X013091Y002624D01*
X013092Y002465D02*
X012952Y002465D01*
X013094Y002306D02*
X008342Y002306D01*
X008374Y002148D02*
X013095Y002148D01*
X013096Y001989D02*
X008378Y001989D01*
X008490Y001831D02*
X013097Y001831D01*
X013098Y001672D02*
X008601Y001672D01*
X008227Y001514D02*
X003299Y001514D01*
X003526Y001672D02*
X008116Y001672D01*
X007873Y001831D02*
X003670Y001831D01*
X003735Y001989D02*
X007699Y001989D01*
X007658Y002148D02*
X003791Y002148D01*
X003791Y002306D02*
X007689Y002306D01*
X007818Y002465D02*
X003791Y002465D01*
X003728Y002624D02*
X008666Y002624D01*
X008666Y002782D02*
X003663Y002782D01*
X003509Y002941D02*
X008666Y002941D01*
X008666Y003099D02*
X003258Y003099D01*
X002587Y003099D02*
X001829Y003099D01*
X001829Y002941D02*
X002337Y002941D01*
X002183Y002782D02*
X001828Y002782D01*
X001828Y002624D02*
X002117Y002624D01*
X002054Y002465D02*
X001827Y002465D01*
X001827Y002306D02*
X002054Y002306D01*
X002054Y002148D02*
X001826Y002148D01*
X001826Y001989D02*
X002110Y001989D01*
X002176Y001831D02*
X001825Y001831D01*
X001825Y001672D02*
X002320Y001672D01*
X002546Y001514D02*
X001824Y001514D01*
X001830Y003258D02*
X008666Y003258D01*
X008666Y003416D02*
X001830Y003416D01*
X001830Y003575D02*
X008666Y003575D01*
X008666Y003733D02*
X006308Y003733D01*
X006283Y003708D02*
X006376Y003802D01*
X006376Y004224D01*
X005861Y004224D01*
X005861Y004339D01*
X006376Y004339D01*
X006376Y004761D01*
X006283Y004855D01*
X005861Y004855D01*
X005861Y004339D01*
X005745Y004339D01*
X005745Y004224D01*
X005230Y004224D01*
X005230Y003802D01*
X005323Y003708D01*
X005745Y003708D01*
X005745Y004223D01*
X005861Y004223D01*
X005861Y003708D01*
X006283Y003708D01*
X006376Y003892D02*
X008666Y003892D01*
X008666Y004050D02*
X006376Y004050D01*
X006376Y004209D02*
X008666Y004209D01*
X008666Y004368D02*
X006376Y004368D01*
X006376Y004526D02*
X007290Y004526D01*
X007131Y004685D02*
X006376Y004685D01*
X006294Y004843D02*
X007115Y004843D01*
X007115Y005002D02*
X001835Y005002D01*
X001835Y005160D02*
X007152Y005160D01*
X007940Y005319D02*
X008666Y005319D01*
X008666Y005160D02*
X008098Y005160D01*
X008135Y005002D02*
X008666Y005002D01*
X008666Y004843D02*
X008135Y004843D01*
X008119Y004685D02*
X008666Y004685D01*
X010746Y004685D02*
X010905Y004685D01*
X010905Y004843D02*
X010746Y004843D01*
X010746Y005002D02*
X010905Y005002D01*
X010905Y005160D02*
X010746Y005160D01*
X010746Y005319D02*
X010905Y005319D01*
X010905Y005477D02*
X010746Y005477D01*
X010746Y005636D02*
X010905Y005636D01*
X010905Y005794D02*
X010746Y005794D01*
X010746Y005953D02*
X010905Y005953D01*
X010905Y006111D02*
X010746Y006111D01*
X010746Y006270D02*
X010905Y006270D01*
X010905Y006429D02*
X010746Y006429D01*
X010746Y006587D02*
X010905Y006587D01*
X012808Y007221D02*
X001841Y007221D01*
X001841Y007063D02*
X002739Y007063D01*
X002581Y006904D02*
X001841Y006904D01*
X001840Y006746D02*
X002480Y006746D01*
X002414Y006587D02*
X001840Y006587D01*
X001839Y006429D02*
X002391Y006429D01*
X002391Y006270D02*
X001839Y006270D01*
X001838Y006111D02*
X002425Y006111D01*
X002491Y005953D02*
X001838Y005953D01*
X001837Y005794D02*
X002608Y005794D01*
X002777Y005636D02*
X001837Y005636D01*
X001834Y004843D02*
X005312Y004843D01*
X005323Y004855D02*
X005230Y004761D01*
X005230Y004339D01*
X005745Y004339D01*
X005745Y004855D01*
X005323Y004855D01*
X005230Y004685D02*
X001834Y004685D01*
X001833Y004526D02*
X005230Y004526D01*
X005230Y004368D02*
X001833Y004368D01*
X001832Y004209D02*
X005230Y004209D01*
X005230Y004050D02*
X001832Y004050D01*
X001831Y003892D02*
X005230Y003892D01*
X005298Y003733D02*
X001831Y003733D01*
X004066Y006587D02*
X005230Y006587D01*
X005230Y006746D02*
X004001Y006746D01*
X003741Y007063D02*
X012854Y007063D01*
X012986Y006587D02*
X012993Y006587D01*
X012986Y006429D02*
X013039Y006429D01*
X013066Y006270D02*
X012986Y006270D01*
X012986Y006111D02*
X013067Y006111D01*
X013068Y005953D02*
X012986Y005953D01*
X012986Y005794D02*
X013069Y005794D01*
X013070Y005636D02*
X012986Y005636D01*
X012986Y005477D02*
X013071Y005477D01*
X013073Y005319D02*
X012986Y005319D01*
X012986Y005160D02*
X013074Y005160D01*
X013075Y005002D02*
X012986Y005002D01*
X012986Y004843D02*
X013076Y004843D01*
X013077Y004685D02*
X012986Y004685D01*
X013317Y004526D02*
X020001Y004526D01*
X020117Y004526D02*
X021732Y004526D01*
X022392Y005160D02*
X025137Y005160D01*
X025137Y005002D02*
X022992Y005002D01*
X023170Y004843D02*
X025136Y004843D01*
X025136Y004685D02*
X023291Y004685D01*
X023356Y004526D02*
X025136Y004526D01*
X025135Y004368D02*
X023393Y004368D01*
X023393Y004209D02*
X025135Y004209D01*
X025134Y004050D02*
X023373Y004050D01*
X023308Y003892D02*
X025134Y003892D01*
X025133Y003733D02*
X023210Y003733D01*
X023052Y003575D02*
X025133Y003575D01*
X025132Y003416D02*
X017047Y003416D01*
X017086Y003258D02*
X019925Y003258D01*
X019961Y003272D02*
X019649Y003143D01*
X019410Y002904D01*
X019281Y002592D01*
X019281Y002255D01*
X019410Y001943D01*
X019649Y001704D01*
X019961Y001575D01*
X020298Y001575D01*
X020610Y001704D01*
X020849Y001943D01*
X020978Y002255D01*
X020978Y002592D01*
X020849Y002904D01*
X020610Y003143D01*
X020298Y003272D01*
X019961Y003272D01*
X020334Y003258D02*
X025132Y003258D01*
X025131Y003099D02*
X024361Y003099D01*
X024517Y003034D02*
X024198Y003167D01*
X023852Y003167D01*
X023533Y003034D01*
X023289Y002790D01*
X023157Y002471D01*
X023157Y002125D01*
X023289Y001806D01*
X023533Y001562D01*
X023852Y001429D01*
X024198Y001429D01*
X024517Y001562D01*
X024762Y001806D01*
X024894Y002125D01*
X024894Y002471D01*
X024762Y002790D01*
X024517Y003034D01*
X024611Y002941D02*
X025131Y002941D01*
X025130Y002782D02*
X024765Y002782D01*
X024831Y002624D02*
X025130Y002624D01*
X025129Y002465D02*
X024894Y002465D01*
X024894Y002306D02*
X025129Y002306D01*
X025128Y002148D02*
X024894Y002148D01*
X024838Y001989D02*
X025128Y001989D01*
X025127Y001831D02*
X024772Y001831D01*
X024628Y001672D02*
X025127Y001672D01*
X025126Y001514D02*
X024402Y001514D01*
X025126Y001355D02*
X016975Y001355D01*
X016569Y001672D02*
X013337Y001672D01*
X013336Y001831D02*
X016565Y001831D01*
X016565Y001810D02*
X016565Y001810D01*
X016560Y001989D02*
X013335Y001989D01*
X013333Y002148D02*
X016556Y002148D01*
X016552Y002306D02*
X013332Y002306D01*
X013331Y002465D02*
X016547Y002465D01*
X016543Y002624D02*
X013330Y002624D01*
X013329Y002782D02*
X016538Y002782D01*
X016534Y002941D02*
X013328Y002941D01*
X013327Y003099D02*
X016403Y003099D01*
X016369Y003258D02*
X013326Y003258D01*
X013325Y003416D02*
X016408Y003416D01*
X016571Y003575D02*
X013323Y003575D01*
X013322Y003733D02*
X021879Y003733D01*
X022037Y003575D02*
X016884Y003575D01*
X017052Y003099D02*
X019605Y003099D01*
X019446Y002941D02*
X016932Y002941D01*
X016936Y002782D02*
X019359Y002782D01*
X019293Y002624D02*
X016940Y002624D01*
X016945Y002465D02*
X019281Y002465D01*
X019281Y002306D02*
X016949Y002306D01*
X017417Y002148D02*
X017501Y002148D01*
X017776Y002148D02*
X017813Y002148D01*
X017813Y001989D02*
X017776Y001989D01*
X017776Y001831D02*
X017813Y001831D01*
X017813Y001672D02*
X017776Y001672D01*
X017776Y001514D02*
X017813Y001514D01*
X018146Y001514D02*
X023648Y001514D01*
X023422Y001672D02*
X020534Y001672D01*
X020737Y001831D02*
X023278Y001831D01*
X023213Y001989D02*
X020869Y001989D01*
X020934Y002148D02*
X023157Y002148D01*
X023157Y002306D02*
X020978Y002306D01*
X020978Y002465D02*
X023157Y002465D01*
X023220Y002624D02*
X020966Y002624D01*
X020900Y002782D02*
X023286Y002782D01*
X023439Y002941D02*
X020813Y002941D01*
X020654Y003099D02*
X023690Y003099D01*
X022687Y005319D02*
X025138Y005319D01*
X025138Y005477D02*
X022839Y005477D01*
X022905Y005636D02*
X023146Y005636D01*
X023129Y005653D02*
X023222Y005560D01*
X024180Y005560D01*
X024273Y005653D01*
X024273Y006611D01*
X024180Y006704D01*
X023222Y006704D01*
X023129Y006611D01*
X023129Y005653D01*
X023129Y005794D02*
X022949Y005794D01*
X022949Y005953D02*
X023129Y005953D01*
X023129Y006111D02*
X022920Y006111D01*
X022855Y006270D02*
X023129Y006270D01*
X023129Y006429D02*
X022724Y006429D01*
X022483Y006587D02*
X023129Y006587D01*
X022694Y006904D02*
X025143Y006904D01*
X025142Y006746D02*
X022497Y006746D01*
X022782Y007063D02*
X025143Y007063D01*
X025144Y007221D02*
X022824Y007221D01*
X022824Y007380D02*
X025144Y007380D01*
X025145Y007538D02*
X022768Y007538D01*
X022660Y007697D02*
X023129Y007697D01*
X024273Y007697D02*
X025145Y007697D01*
X025146Y007855D02*
X024273Y007855D01*
X024273Y008014D02*
X025146Y008014D01*
X025146Y008173D02*
X024273Y008173D01*
X024273Y008331D02*
X025147Y008331D01*
X025147Y008490D02*
X024273Y008490D01*
X024236Y008648D02*
X025148Y008648D01*
X025150Y009441D02*
X016347Y009441D01*
X016347Y009599D02*
X025151Y009599D01*
X025151Y009758D02*
X016347Y009758D01*
X016292Y009917D02*
X019716Y009917D01*
X020228Y009917D02*
X025152Y009917D01*
X025152Y010075D02*
X020773Y010075D01*
X020871Y010234D02*
X025153Y010234D01*
X025153Y010392D02*
X020883Y010392D01*
X020815Y010551D02*
X025154Y010551D01*
X025154Y010709D02*
X020712Y010709D01*
X020701Y010868D02*
X025155Y010868D01*
X025155Y011026D02*
X020691Y011026D01*
X020236Y010551D02*
X020174Y010551D01*
X021589Y008807D02*
X016756Y008807D01*
X016720Y008843D02*
X016821Y008742D01*
X016875Y008611D01*
X016875Y008468D01*
X016821Y008336D01*
X016720Y008236D01*
X016589Y008181D01*
X016446Y008181D01*
X016314Y008236D01*
X016214Y008336D01*
X016159Y008468D01*
X016159Y008509D01*
X016096Y008544D01*
X016065Y008544D01*
X016027Y008582D01*
X016026Y008582D01*
X015948Y008661D01*
X015948Y008712D01*
X015913Y008822D01*
X015898Y008837D01*
X015863Y008837D01*
X015809Y008891D01*
X015788Y008870D01*
X015818Y008841D01*
X015872Y008709D01*
X015872Y008566D01*
X015818Y008435D01*
X015717Y008334D01*
X015585Y008280D01*
X015443Y008280D01*
X015311Y008334D01*
X015211Y008435D01*
X015156Y008566D01*
X015156Y008709D01*
X015209Y008835D01*
X015059Y008835D01*
X015059Y009395D01*
X015058Y009395D01*
X015058Y008835D01*
X014862Y008835D01*
X014808Y008890D01*
X014754Y008837D01*
X014753Y008837D01*
X014753Y008835D01*
X014753Y008751D01*
X014662Y008660D01*
X014637Y008635D01*
X014587Y008635D01*
X014526Y008614D01*
X014738Y008596D01*
X014790Y008596D01*
X014797Y008591D01*
X014819Y008589D01*
X014856Y008552D01*
X016452Y007491D01*
X016474Y007491D01*
X016584Y007382D01*
X016591Y007375D01*
X016591Y007301D01*
X016610Y007084D01*
X016628Y007084D01*
X016700Y007012D01*
X016772Y007084D01*
X017298Y007084D01*
X017367Y007015D01*
X017475Y007060D01*
X017617Y007060D01*
X017749Y007005D01*
X017850Y006904D01*
X018034Y007380D02*
X016586Y007380D01*
X016598Y007221D02*
X018915Y007221D01*
X019132Y007380D02*
X018448Y007380D01*
X018570Y007538D02*
X019349Y007538D01*
X018445Y007063D02*
X017319Y007063D01*
X016751Y007063D02*
X016649Y007063D01*
X016381Y007538D02*
X017912Y007538D01*
X017883Y007697D02*
X016143Y007697D01*
X015904Y007855D02*
X017170Y007855D01*
X017109Y008014D02*
X015666Y008014D01*
X015427Y008173D02*
X017109Y008173D01*
X017109Y008218D02*
X017447Y008218D01*
X017447Y008576D01*
X017203Y008576D01*
X017109Y008482D01*
X017109Y008218D01*
X017109Y008331D02*
X016816Y008331D01*
X016875Y008490D02*
X017116Y008490D01*
X016860Y008648D02*
X021560Y008648D01*
X021563Y008490D02*
X018483Y008490D01*
X018491Y008331D02*
X021629Y008331D01*
X021944Y006746D02*
X020632Y006746D01*
X020632Y006587D02*
X021915Y006587D01*
X020117Y005002D02*
X020001Y005002D01*
X020001Y004843D02*
X020117Y004843D01*
X020117Y004685D02*
X020001Y004685D01*
X020001Y004368D02*
X020117Y004368D01*
X020117Y004209D02*
X020001Y004209D01*
X020001Y004050D02*
X020117Y004050D01*
X019325Y002148D02*
X018088Y002148D01*
X018151Y001989D02*
X019390Y001989D01*
X019522Y001831D02*
X018151Y001831D01*
X018151Y001672D02*
X019725Y001672D01*
X024256Y005636D02*
X025139Y005636D01*
X025139Y005794D02*
X024273Y005794D01*
X024273Y005953D02*
X025140Y005953D01*
X025140Y006111D02*
X024273Y006111D01*
X024273Y006270D02*
X025141Y006270D01*
X025141Y006429D02*
X024273Y006429D01*
X024273Y006587D02*
X025142Y006587D01*
X017841Y007855D02*
X017761Y007855D01*
X017484Y007855D02*
X017447Y007855D01*
X017447Y008014D02*
X017484Y008014D01*
X017484Y008173D02*
X017447Y008173D01*
X017447Y008331D02*
X017484Y008331D01*
X017484Y008490D02*
X017447Y008490D01*
X016720Y008843D02*
X016589Y008897D01*
X016446Y008897D01*
X016350Y008858D01*
X016311Y008879D01*
X016308Y008890D01*
X016347Y008930D01*
X015918Y008807D02*
X015832Y008807D01*
X015872Y008648D02*
X015960Y008648D01*
X015840Y008490D02*
X016159Y008490D01*
X016219Y008331D02*
X015710Y008331D01*
X015319Y008331D02*
X015189Y008331D01*
X015188Y008490D02*
X014950Y008490D01*
X015156Y008648D02*
X014651Y008648D01*
X014753Y008807D02*
X015197Y008807D01*
X015059Y008965D02*
X015058Y008965D01*
X015058Y009124D02*
X015059Y009124D01*
X015058Y009282D02*
X015059Y009282D01*
X015058Y009441D02*
X015059Y009441D01*
X015058Y009599D02*
X015059Y009599D01*
X015058Y009758D02*
X015059Y009758D01*
X015058Y009917D02*
X015059Y009917D01*
X015294Y009917D02*
X015325Y009917D01*
X015792Y009917D02*
X015825Y009917D01*
X014824Y009917D02*
X014792Y009917D01*
X014325Y009917D02*
X013753Y009917D01*
X013848Y009758D02*
X014270Y009758D01*
X014270Y009599D02*
X013907Y009599D01*
X013965Y009441D02*
X014270Y009441D01*
X014270Y009282D02*
X014023Y009282D01*
X014082Y009124D02*
X014270Y009124D01*
X013729Y010234D02*
X013692Y010234D01*
X013692Y010392D02*
X013729Y010392D01*
X014052Y010868D02*
X015878Y010868D01*
X015365Y011026D02*
X014066Y011026D01*
X014066Y011185D02*
X015364Y011185D01*
X016059Y011815D02*
X016113Y012165D01*
X016489Y012313D01*
X015510Y012453D02*
X015273Y012453D01*
X015206Y012612D02*
X015427Y012612D01*
X015432Y012770D02*
X015110Y012770D01*
X015255Y012929D02*
X015521Y012929D01*
X015387Y013087D02*
X015782Y013087D01*
X015871Y013246D02*
X015384Y013246D01*
X015379Y013404D02*
X015960Y013404D01*
X016049Y013563D02*
X015374Y013563D01*
X015369Y013722D02*
X016138Y013722D01*
X016242Y013880D02*
X015364Y013880D01*
X014833Y014831D02*
X014756Y014831D01*
X014205Y014197D02*
X014141Y014197D01*
X016250Y015148D02*
X016346Y015148D01*
X016346Y015307D02*
X016250Y015307D01*
X016542Y016100D02*
X015393Y016100D01*
X017739Y017051D02*
X018130Y017051D01*
X018130Y017210D02*
X017739Y017210D01*
X017739Y017368D02*
X018130Y017368D01*
X014283Y012295D02*
X013051Y012295D01*
X013112Y012136D02*
X014270Y012136D01*
X014179Y011978D02*
X013097Y011978D01*
X012994Y011819D02*
X013587Y011819D01*
X013527Y011661D02*
X012454Y011661D01*
X012477Y011819D02*
X012514Y011819D01*
X013411Y011502D02*
X010029Y011502D01*
X009998Y011343D02*
X013355Y011343D01*
X013355Y011185D02*
X009952Y011185D01*
X009755Y011343D02*
X005202Y011343D01*
X005313Y011035D02*
X005220Y010942D01*
X005220Y009984D01*
X005313Y009891D01*
X006271Y009891D01*
X006364Y009984D01*
X006364Y010942D01*
X006271Y011035D01*
X005313Y011035D01*
X005304Y011026D02*
X003786Y011026D01*
X003928Y010868D02*
X005220Y010868D01*
X005220Y010709D02*
X003993Y010709D01*
X004030Y010551D02*
X005220Y010551D01*
X005220Y010392D02*
X004030Y010392D01*
X003993Y010234D02*
X005220Y010234D01*
X005220Y010075D02*
X003928Y010075D01*
X003786Y009917D02*
X005287Y009917D01*
X006297Y009917D02*
X007146Y009917D01*
X007149Y009909D02*
X007343Y009714D01*
X007597Y009609D01*
X007873Y009609D01*
X008127Y009714D01*
X008321Y009909D01*
X008426Y010163D01*
X008426Y010438D01*
X008321Y010692D01*
X008127Y010887D01*
X007873Y010992D01*
X007597Y010992D01*
X007343Y010887D01*
X007149Y010692D01*
X007044Y010438D01*
X007044Y010163D01*
X007149Y009909D01*
X007080Y010075D02*
X006364Y010075D01*
X006364Y010234D02*
X007044Y010234D01*
X007044Y010392D02*
X006364Y010392D01*
X006364Y010551D02*
X007090Y010551D01*
X007166Y010709D02*
X006364Y010709D01*
X006364Y010868D02*
X007324Y010868D01*
X008146Y010868D02*
X009564Y010868D01*
X009564Y010709D02*
X008304Y010709D01*
X008380Y010551D02*
X009564Y010551D01*
X009609Y010392D02*
X008426Y010392D01*
X008426Y010234D02*
X009101Y010234D01*
X008774Y010075D02*
X008390Y010075D01*
X008324Y009917D02*
X008671Y009917D01*
X008568Y009758D02*
X008170Y009758D01*
X008465Y009599D02*
X001849Y009599D01*
X001848Y009441D02*
X008387Y009441D01*
X008385Y009282D02*
X007974Y009282D01*
X008133Y009124D02*
X008383Y009124D01*
X008381Y008965D02*
X008134Y008965D01*
X008134Y008807D02*
X008379Y008807D01*
X008377Y008648D02*
X008081Y008648D01*
X007922Y008490D02*
X008376Y008490D01*
X007276Y009282D02*
X003524Y009282D01*
X003518Y009758D02*
X007300Y009758D01*
X006280Y011026D02*
X009629Y011026D01*
X009786Y011502D02*
X004622Y011502D01*
X004621Y011661D02*
X007900Y011661D01*
X007876Y011684D02*
X007969Y011591D01*
X008802Y011591D01*
X008895Y011684D01*
X008895Y012414D01*
X008802Y012507D01*
X007969Y012507D01*
X007876Y012414D01*
X007876Y011684D01*
X007876Y011819D02*
X006599Y011819D01*
X006211Y011819D02*
X006194Y011819D01*
X006194Y011978D02*
X006211Y011978D01*
X006194Y012136D02*
X006211Y012136D01*
X006194Y012295D02*
X006211Y012295D01*
X005760Y012729D02*
X005759Y012753D01*
X006240Y012772D01*
X006222Y012772D01*
X005759Y012753D02*
X005358Y012737D01*
X005340Y011978D02*
X005377Y011978D01*
X007034Y012398D02*
X006994Y013002D01*
X006995Y013151D01*
X007040Y013457D01*
X007415Y013404D02*
X007473Y013404D01*
X007512Y013246D02*
X007415Y013246D01*
X007551Y013087D02*
X007233Y013087D01*
X007238Y012929D02*
X007598Y012929D01*
X007876Y012770D02*
X007249Y012770D01*
X007429Y012612D02*
X009998Y012612D01*
X010028Y012770D02*
X008895Y012770D01*
X008895Y012929D02*
X010059Y012929D01*
X010089Y013087D02*
X008895Y013087D01*
X008895Y013246D02*
X010119Y013246D01*
X010149Y013404D02*
X008895Y013404D01*
X008895Y013722D02*
X010210Y013722D01*
X010240Y013880D02*
X008895Y013880D01*
X008895Y014039D02*
X010271Y014039D01*
X010301Y014197D02*
X008895Y014197D01*
X008895Y014356D02*
X010331Y014356D01*
X010362Y014514D02*
X008860Y014514D01*
X008854Y014673D02*
X010392Y014673D01*
X010422Y014831D02*
X008849Y014831D01*
X008843Y014990D02*
X010453Y014990D01*
X010483Y015148D02*
X008804Y015148D01*
X008759Y015307D02*
X010517Y015307D01*
X009747Y016892D02*
X004617Y016892D01*
X002420Y016417D02*
X001869Y016417D01*
X001870Y016575D02*
X002261Y016575D01*
X002182Y016734D02*
X001870Y016734D01*
X001871Y016892D02*
X002116Y016892D01*
X002106Y017051D02*
X001871Y017051D01*
X001871Y017210D02*
X002106Y017210D01*
X002150Y017368D02*
X001872Y017368D01*
X001872Y017527D02*
X002215Y017527D01*
X002341Y017685D02*
X001873Y017685D01*
X001873Y017844D02*
X002524Y017844D01*
X006295Y014514D02*
X007969Y014514D01*
X007876Y014356D02*
X007415Y014356D01*
X007696Y014197D02*
X007876Y014197D01*
X007876Y014039D02*
X007728Y014039D01*
X007766Y013880D02*
X007876Y013880D01*
X007876Y013722D02*
X007805Y013722D01*
X007844Y013563D02*
X010180Y013563D01*
X009968Y012453D02*
X008855Y012453D01*
X008895Y012295D02*
X009937Y012295D01*
X009907Y012136D02*
X008895Y012136D01*
X008895Y011978D02*
X009877Y011978D01*
X009846Y011819D02*
X008895Y011819D01*
X008871Y011661D02*
X009816Y011661D01*
X010251Y011026D02*
X010502Y011026D01*
X012418Y009532D02*
X012426Y008265D01*
X013310Y005477D02*
X013316Y005477D01*
X013311Y005319D02*
X013362Y005319D01*
X013409Y005160D02*
X013312Y005160D01*
X013314Y005002D02*
X013448Y005002D01*
X010905Y004209D02*
X010746Y004209D01*
X010746Y004050D02*
X010905Y004050D01*
X010905Y003892D02*
X010746Y003892D01*
X010746Y003733D02*
X010905Y003733D01*
X010905Y003575D02*
X010746Y003575D01*
X010746Y003416D02*
X010905Y003416D01*
X010905Y003258D02*
X010746Y003258D01*
X010746Y003099D02*
X010905Y003099D01*
X010905Y002941D02*
X010746Y002941D01*
X010746Y002782D02*
X010905Y002782D01*
X010905Y002624D02*
X010746Y002624D01*
X010746Y002465D02*
X010905Y002465D01*
X008700Y002465D02*
X008214Y002465D01*
X005861Y003733D02*
X005745Y003733D01*
X005745Y003892D02*
X005861Y003892D01*
X005861Y004050D02*
X005745Y004050D01*
X005745Y004209D02*
X005861Y004209D01*
X005861Y004368D02*
X005745Y004368D01*
X005745Y004526D02*
X005861Y004526D01*
X005861Y004685D02*
X005745Y004685D01*
X005745Y004843D02*
X005861Y004843D01*
X005861Y005794D02*
X005745Y005794D01*
X005745Y005953D02*
X005861Y005953D01*
X005861Y006111D02*
X005745Y006111D01*
X005745Y006429D02*
X005861Y006429D01*
X005861Y006587D02*
X005745Y006587D01*
X005745Y006746D02*
X005861Y006746D01*
X007410Y012136D02*
X007876Y012136D01*
X007876Y012295D02*
X007429Y012295D01*
X007429Y012453D02*
X007915Y012453D01*
X007434Y013563D02*
X007415Y013563D01*
X007598Y015466D02*
X008038Y015466D01*
X007879Y015624D02*
X007757Y015624D01*
X007774Y015783D02*
X007863Y015783D01*
X007863Y015941D02*
X007774Y015941D01*
X008871Y017368D02*
X009837Y017368D01*
X009995Y017527D02*
X008932Y017527D01*
X014011Y011502D02*
X014270Y011502D01*
X014276Y011343D02*
X014066Y011343D01*
D29*
X018323Y005731D03*
X018357Y004458D03*
X022221Y007284D03*
X022163Y008617D03*
D30*
X022199Y005892D03*
X018423Y002929D03*
X003236Y004358D03*
X003280Y010472D03*
D31*
X002753Y013268D03*
X003869Y018004D03*
X010993Y014243D03*
X010959Y013187D03*
X012866Y013855D03*
X012754Y012085D03*
X010770Y010788D03*
X009359Y009941D03*
X012622Y009625D03*
X014154Y008737D03*
X015514Y008638D03*
X016517Y008539D03*
X018241Y007679D03*
X018730Y006841D03*
X017546Y006701D03*
X019989Y007761D03*
X019972Y010167D03*
X020525Y010334D03*
X018444Y011040D03*
X017831Y011882D03*
X017307Y012553D03*
X018081Y012774D03*
X018545Y013356D03*
X019148Y013809D03*
X019983Y012224D03*
X021423Y012753D03*
X018076Y015897D03*
X016681Y016869D03*
X016126Y016274D03*
X017038Y014388D03*
X016637Y013199D03*
X015784Y012686D03*
X016489Y012313D03*
X013126Y007654D03*
X016728Y003252D03*
X008016Y002159D03*
X020040Y017184D03*
X019477Y017836D03*
X022606Y017677D03*
D32*
X021236Y017690D02*
X021372Y016869D01*
X021236Y017690D02*
X020145Y017688D01*
X019628Y017692D01*
X019477Y017836D01*
X012866Y013855D02*
X011968Y014057D01*
X011968Y012049D02*
X012754Y012085D01*
X012194Y010163D02*
X010275Y010084D01*
X010275Y009784D01*
X010205Y009715D01*
X009674Y009715D01*
X009628Y009761D01*
X009539Y009671D01*
X009422Y009623D01*
X009295Y009623D01*
X009178Y009671D01*
X009089Y009761D01*
X009041Y009878D01*
X009041Y010004D01*
X009052Y010033D01*
X008981Y010030D01*
X008585Y009420D01*
X008565Y007716D01*
X009006Y007703D01*
X009006Y008225D01*
X009285Y008225D01*
X009285Y008305D01*
X009006Y008305D01*
X009006Y008940D01*
X009076Y009010D01*
X009286Y009010D01*
X009286Y008305D01*
X009365Y008305D01*
X009365Y009010D01*
X009575Y009010D01*
X009576Y009010D01*
X009576Y009010D01*
X009786Y009010D01*
X009786Y008305D01*
X009865Y008305D01*
X009865Y009010D01*
X010075Y009010D01*
X010076Y009010D01*
X010076Y009010D01*
X010286Y009010D01*
X010286Y008305D01*
X010365Y008305D01*
X010365Y009010D01*
X010575Y009010D01*
X010646Y008940D01*
X010646Y008305D01*
X010366Y008305D01*
X010366Y008225D01*
X010646Y008225D01*
X010646Y007654D01*
X011006Y007644D01*
X011006Y008225D01*
X011285Y008225D01*
X011285Y008305D01*
X011006Y008305D01*
X011006Y008940D01*
X011076Y009010D01*
X011286Y009010D01*
X011286Y008305D01*
X011365Y008305D01*
X011365Y009010D01*
X011575Y009010D01*
X011576Y009010D01*
X011576Y009010D01*
X011786Y009010D01*
X011786Y008305D01*
X011865Y008305D01*
X011865Y009010D01*
X012075Y009010D01*
X012126Y008959D01*
X012176Y009009D01*
X012222Y009009D01*
X012219Y009531D01*
X012219Y009614D01*
X012311Y009706D01*
X012352Y009805D01*
X012441Y009894D01*
X012558Y009943D01*
X012685Y009943D01*
X012802Y009894D01*
X012891Y009805D01*
X012940Y009688D01*
X012940Y009561D01*
X012891Y009445D01*
X012802Y009355D01*
X012685Y009307D01*
X012618Y009307D01*
X012620Y009009D01*
X012675Y009009D01*
X012744Y008939D01*
X012744Y007592D01*
X012808Y007590D01*
X012808Y007591D01*
X012808Y007718D01*
X012856Y007834D01*
X012946Y007924D01*
X013063Y007972D01*
X013189Y007972D01*
X013306Y007924D01*
X013396Y007834D01*
X013444Y007718D01*
X013444Y007591D01*
X013396Y007474D01*
X013306Y007385D01*
X013281Y007374D01*
X013279Y006441D01*
X013279Y006367D01*
X013267Y006355D01*
X013647Y005053D01*
X016048Y005424D01*
X016099Y005442D01*
X016099Y005543D01*
X016390Y005543D01*
X016435Y005558D01*
X016435Y005622D01*
X016099Y005622D01*
X016099Y005928D01*
X016169Y005998D01*
X016435Y005998D01*
X016435Y005623D01*
X016515Y005623D01*
X016515Y005909D01*
X016474Y006372D01*
X016406Y006372D01*
X016406Y006668D01*
X016326Y006668D01*
X016326Y006372D01*
X016119Y006372D01*
X016049Y006442D01*
X016049Y006669D01*
X016326Y006669D01*
X016326Y006748D01*
X016049Y006748D01*
X016049Y006975D01*
X016119Y007045D01*
X016326Y007045D01*
X016326Y006749D01*
X016406Y006749D01*
X016406Y007045D01*
X016414Y007045D01*
X016392Y007292D01*
X014730Y008398D01*
X014261Y008437D01*
X014217Y008419D01*
X014090Y008419D01*
X013973Y008467D01*
X013884Y008557D01*
X013835Y008674D01*
X013835Y008800D01*
X013884Y008917D01*
X013930Y008963D01*
X013640Y009749D01*
X012194Y010163D01*
X012244Y010149D02*
X011853Y010149D01*
X012382Y009835D02*
X010275Y009835D01*
X010275Y009914D02*
X012488Y009914D01*
X012517Y010071D02*
X010275Y010071D01*
X010275Y009992D02*
X012791Y009992D01*
X012756Y009914D02*
X013065Y009914D01*
X012861Y009835D02*
X013339Y009835D01*
X013613Y009756D02*
X012911Y009756D01*
X012940Y009678D02*
X013666Y009678D01*
X013695Y009599D02*
X012940Y009599D01*
X012923Y009521D02*
X013724Y009521D01*
X013753Y009442D02*
X012889Y009442D01*
X012810Y009364D02*
X013782Y009364D01*
X013811Y009285D02*
X012618Y009285D01*
X012618Y009207D02*
X013840Y009207D01*
X013869Y009128D02*
X012619Y009128D01*
X012619Y009050D02*
X013898Y009050D01*
X013926Y008971D02*
X012713Y008971D01*
X012744Y008892D02*
X013874Y008892D01*
X013841Y008814D02*
X012744Y008814D01*
X012744Y008735D02*
X013835Y008735D01*
X013842Y008657D02*
X012744Y008657D01*
X012744Y008578D02*
X013875Y008578D01*
X013941Y008500D02*
X012744Y008500D01*
X012744Y008421D02*
X014085Y008421D01*
X014222Y008421D02*
X014450Y008421D01*
X014813Y008343D02*
X012744Y008343D01*
X012744Y008264D02*
X014931Y008264D01*
X015049Y008186D02*
X012744Y008186D01*
X012744Y008107D02*
X015167Y008107D01*
X015285Y008028D02*
X012744Y008028D01*
X012744Y007950D02*
X013009Y007950D01*
X012893Y007871D02*
X012744Y007871D01*
X012744Y007793D02*
X012839Y007793D01*
X012808Y007714D02*
X012744Y007714D01*
X012744Y007636D02*
X012808Y007636D01*
X013243Y007950D02*
X015403Y007950D01*
X015521Y007871D02*
X013359Y007871D01*
X013413Y007793D02*
X015639Y007793D01*
X015758Y007714D02*
X013444Y007714D01*
X013444Y007636D02*
X015876Y007636D01*
X015994Y007557D02*
X013430Y007557D01*
X013398Y007479D02*
X016112Y007479D01*
X016230Y007400D02*
X013322Y007400D01*
X013281Y007322D02*
X016348Y007322D01*
X016396Y007243D02*
X013281Y007243D01*
X013281Y007164D02*
X016403Y007164D01*
X016410Y007086D02*
X013280Y007086D01*
X013280Y007007D02*
X016081Y007007D01*
X016049Y006929D02*
X013280Y006929D01*
X013280Y006850D02*
X016049Y006850D01*
X016049Y006772D02*
X013280Y006772D01*
X013280Y006693D02*
X016326Y006693D01*
X016326Y006615D02*
X016406Y006615D01*
X016406Y006536D02*
X016326Y006536D01*
X016326Y006458D02*
X016406Y006458D01*
X016406Y006379D02*
X016326Y006379D01*
X016480Y006301D02*
X013283Y006301D01*
X013279Y006379D02*
X016112Y006379D01*
X016049Y006458D02*
X013279Y006458D01*
X013279Y006536D02*
X016049Y006536D01*
X016049Y006615D02*
X013280Y006615D01*
X013306Y006222D02*
X016487Y006222D01*
X016494Y006143D02*
X013329Y006143D01*
X013352Y006065D02*
X016501Y006065D01*
X016508Y005986D02*
X016435Y005986D01*
X016435Y005908D02*
X016515Y005908D01*
X016515Y005829D02*
X016435Y005829D01*
X016435Y005751D02*
X016515Y005751D01*
X016515Y005672D02*
X016435Y005672D01*
X016435Y005594D02*
X013489Y005594D01*
X013466Y005672D02*
X016099Y005672D01*
X016099Y005751D02*
X013444Y005751D01*
X013421Y005829D02*
X016099Y005829D01*
X016099Y005908D02*
X013398Y005908D01*
X013375Y005986D02*
X016158Y005986D01*
X016099Y005515D02*
X013512Y005515D01*
X013535Y005437D02*
X016083Y005437D01*
X015618Y005358D02*
X013558Y005358D01*
X013581Y005279D02*
X015110Y005279D01*
X014601Y005201D02*
X013604Y005201D01*
X013627Y005122D02*
X014093Y005122D01*
X016326Y006772D02*
X016406Y006772D01*
X016406Y006850D02*
X016326Y006850D01*
X016326Y006929D02*
X016406Y006929D01*
X016406Y007007D02*
X016326Y007007D01*
X016517Y008539D02*
X016147Y008743D01*
X016087Y008929D02*
X016096Y009095D01*
X016059Y009395D01*
X015559Y009395D02*
X015567Y008930D01*
X015479Y008620D01*
X015567Y008672D01*
X015514Y008638D01*
X014555Y008833D02*
X014559Y009395D01*
X014555Y008833D02*
X014172Y008706D01*
X014154Y008737D01*
X014130Y008920D01*
X012622Y009625D02*
X012418Y009532D01*
X012283Y009678D02*
X009545Y009678D01*
X009624Y009756D02*
X009632Y009756D01*
X009172Y009678D02*
X008753Y009678D01*
X008804Y009756D02*
X009093Y009756D01*
X009058Y009835D02*
X008855Y009835D01*
X008906Y009914D02*
X009041Y009914D01*
X009041Y009992D02*
X008957Y009992D01*
X008702Y009599D02*
X012219Y009599D01*
X012219Y009521D02*
X008651Y009521D01*
X008600Y009442D02*
X012220Y009442D01*
X012220Y009364D02*
X008585Y009364D01*
X008584Y009285D02*
X012221Y009285D01*
X012221Y009207D02*
X008583Y009207D01*
X008582Y009128D02*
X012221Y009128D01*
X012222Y009050D02*
X008581Y009050D01*
X008580Y008971D02*
X009037Y008971D01*
X009006Y008892D02*
X008579Y008892D01*
X008578Y008814D02*
X009006Y008814D01*
X009006Y008735D02*
X008577Y008735D01*
X008576Y008657D02*
X009006Y008657D01*
X009006Y008578D02*
X008575Y008578D01*
X008574Y008500D02*
X009006Y008500D01*
X009006Y008421D02*
X008573Y008421D01*
X008572Y008343D02*
X009006Y008343D01*
X009006Y008186D02*
X008571Y008186D01*
X008572Y008264D02*
X009285Y008264D01*
X009286Y008343D02*
X009365Y008343D01*
X009366Y008305D02*
X009506Y008305D01*
X009785Y008305D01*
X009785Y008225D01*
X009506Y008225D01*
X009366Y008225D01*
X009366Y008305D01*
X009366Y008264D02*
X009785Y008264D01*
X009826Y008265D02*
X009840Y008261D01*
X009593Y007704D01*
X010060Y007691D01*
X010086Y007678D01*
X010146Y008225D02*
X009866Y008225D01*
X009866Y008305D01*
X010146Y008305D01*
X010285Y008305D01*
X010285Y008225D01*
X010146Y008225D01*
X010285Y008264D02*
X009866Y008264D01*
X009865Y008343D02*
X009786Y008343D01*
X009786Y008421D02*
X009865Y008421D01*
X009865Y008500D02*
X009786Y008500D01*
X009786Y008578D02*
X009865Y008578D01*
X009865Y008657D02*
X009786Y008657D01*
X009786Y008735D02*
X009865Y008735D01*
X009865Y008814D02*
X009786Y008814D01*
X009786Y008892D02*
X009865Y008892D01*
X009865Y008971D02*
X009786Y008971D01*
X009365Y008971D02*
X009286Y008971D01*
X009286Y008892D02*
X009365Y008892D01*
X009365Y008814D02*
X009286Y008814D01*
X009286Y008735D02*
X009365Y008735D01*
X009365Y008657D02*
X009286Y008657D01*
X009286Y008578D02*
X009365Y008578D01*
X009365Y008500D02*
X009286Y008500D01*
X009286Y008421D02*
X009365Y008421D01*
X009006Y008107D02*
X008570Y008107D01*
X008569Y008028D02*
X009006Y008028D01*
X009006Y007950D02*
X008568Y007950D01*
X008567Y007871D02*
X009006Y007871D01*
X009006Y007793D02*
X008566Y007793D01*
X008638Y007714D02*
X009006Y007714D01*
X010286Y008343D02*
X010365Y008343D01*
X010365Y008421D02*
X010286Y008421D01*
X010286Y008500D02*
X010365Y008500D01*
X010365Y008578D02*
X010286Y008578D01*
X010286Y008657D02*
X010365Y008657D01*
X010365Y008735D02*
X010286Y008735D01*
X010286Y008814D02*
X010365Y008814D01*
X010365Y008892D02*
X010286Y008892D01*
X010286Y008971D02*
X010365Y008971D01*
X010615Y008971D02*
X011037Y008971D01*
X011006Y008892D02*
X010646Y008892D01*
X010646Y008814D02*
X011006Y008814D01*
X011006Y008735D02*
X010646Y008735D01*
X010646Y008657D02*
X011006Y008657D01*
X011006Y008578D02*
X010646Y008578D01*
X010646Y008500D02*
X011006Y008500D01*
X011006Y008421D02*
X010646Y008421D01*
X010646Y008343D02*
X011006Y008343D01*
X011006Y008186D02*
X010646Y008186D01*
X010646Y008107D02*
X011006Y008107D01*
X011006Y008028D02*
X010646Y008028D01*
X010646Y007950D02*
X011006Y007950D01*
X011006Y007871D02*
X010646Y007871D01*
X010646Y007793D02*
X011006Y007793D01*
X011006Y007714D02*
X010646Y007714D01*
X010366Y008264D02*
X011285Y008264D01*
X011286Y008343D02*
X011365Y008343D01*
X011366Y008305D02*
X011646Y008305D01*
X011785Y008305D01*
X011785Y008225D01*
X011646Y008225D01*
X011366Y008225D01*
X011366Y008305D01*
X011366Y008264D02*
X011785Y008264D01*
X011786Y008225D02*
X011865Y008225D01*
X011865Y007618D01*
X011786Y007620D01*
X011786Y008225D01*
X011816Y008223D02*
X011608Y008883D01*
X011786Y008892D02*
X011865Y008892D01*
X011865Y008814D02*
X011786Y008814D01*
X011786Y008735D02*
X011865Y008735D01*
X011865Y008657D02*
X011786Y008657D01*
X011786Y008578D02*
X011865Y008578D01*
X011865Y008500D02*
X011786Y008500D01*
X011786Y008421D02*
X011865Y008421D01*
X011865Y008343D02*
X011786Y008343D01*
X011826Y008265D02*
X011816Y008223D01*
X011786Y008186D02*
X011865Y008186D01*
X011865Y008107D02*
X011786Y008107D01*
X011786Y008028D02*
X011865Y008028D01*
X011865Y007950D02*
X011786Y007950D01*
X011786Y007871D02*
X011865Y007871D01*
X011865Y007793D02*
X011786Y007793D01*
X011786Y007714D02*
X011865Y007714D01*
X011865Y007636D02*
X011786Y007636D01*
X011365Y008421D02*
X011286Y008421D01*
X011286Y008500D02*
X011365Y008500D01*
X011365Y008578D02*
X011286Y008578D01*
X011286Y008657D02*
X011365Y008657D01*
X011365Y008735D02*
X011286Y008735D01*
X011286Y008814D02*
X011365Y008814D01*
X011365Y008892D02*
X011286Y008892D01*
X011286Y008971D02*
X011365Y008971D01*
X011786Y008971D02*
X011865Y008971D01*
X012115Y008971D02*
X012138Y008971D01*
X012332Y009756D02*
X010247Y009756D01*
X008693Y013022D02*
X007766Y013042D01*
X007497Y014146D01*
X007040Y014127D01*
X008385Y014057D02*
X008680Y013978D01*
X008644Y014983D01*
X008318Y016126D01*
X008301Y016142D01*
X008385Y013073D02*
X008693Y013022D01*
X019983Y012224D02*
X019974Y010160D01*
X019972Y010167D01*
X020525Y010334D02*
X020530Y010475D01*
X020507Y010795D01*
X016728Y003252D02*
X016724Y003242D01*
X016764Y001813D01*
X016771Y001813D01*
X017125Y001802D01*
X016764Y001813D02*
X016777Y001361D01*
D33*
X007707Y003535D03*
X007735Y010301D03*
D34*
X006933Y006859D02*
X006926Y002801D01*
X012887Y002410D01*
X012884Y004752D01*
X012882Y006505D01*
X012881Y006516D01*
X006615Y006894D01*
D35*
X009359Y009941D02*
X009940Y010030D01*
X009940Y010700D02*
X010770Y010788D01*
X013126Y007654D02*
X013122Y007421D01*
X013121Y006433D01*
X012883Y006505D01*
X012882Y006505D01*
X016147Y008743D02*
X016087Y008929D01*
X019857Y015377D02*
X021407Y014872D01*
X021372Y014869D01*
X021372Y016866D02*
X019857Y016377D01*
X021372Y016866D02*
X021372Y016869D01*
X008016Y002159D02*
X008583Y001353D01*
X016777Y001361D01*
D36*
X012884Y004752D02*
X012792Y004752D01*
X011608Y007620D02*
X011608Y008883D01*
X010086Y008942D02*
X010086Y007678D01*
X009593Y007704D02*
X009593Y008968D01*
X009587Y008968D01*
D37*
X021372Y014869D02*
X022285Y014864D01*
X022850Y014832D01*
X023101Y014732D01*
D38*
X017308Y016859D02*
X016681Y016869D01*
X017018Y015503D01*
D39*
X016966Y015493D01*
X016967Y015482D01*
X016942Y014868D01*
X014941Y014659D01*
X014510Y014450D01*
X014515Y014480D01*
X014453Y014483D01*
X015157Y014172D01*
X015189Y013150D01*
X014543Y012446D01*
X015075Y012463D01*
X015067Y011833D01*
X015059Y011815D01*
X015559Y011815D02*
X015563Y011106D01*
X016067Y011044D01*
X017667Y012307D01*
X018081Y012774D01*
X017307Y012553D02*
X016637Y013199D01*
X016367Y013726D02*
X015784Y012686D01*
X014543Y012446D02*
X014559Y011815D01*
X014554Y011856D01*
X013726Y011677D01*
X013711Y011164D01*
X016367Y013726D02*
X019148Y013809D01*
X017831Y011882D02*
X018444Y011040D01*
X020496Y010976D02*
X020507Y010795D01*
X018135Y008200D02*
X018241Y007679D01*
X018730Y006841D02*
X019989Y007761D01*
X017546Y006701D02*
X017035Y006709D01*
X017305Y016848D02*
X017308Y016859D01*
M02*
