G75*
G70*
%OFA0B0*%
%FSLAX24Y24*%
%IPPOS*%
%LPD*%
%AMOC8*
5,1,8,0,0,1.08239X$1,22.5*
%
%ADD10C,0.0000*%
%ADD11C,0.0030*%
D10*
X001663Y001038D02*
X001715Y018350D01*
X025337Y018350D01*
X025285Y001038D01*
X025211Y001058D02*
X001663Y001038D01*
X002214Y002298D02*
X002217Y002362D01*
X002226Y002426D01*
X002240Y002489D01*
X002261Y002551D01*
X002286Y002610D01*
X002317Y002666D01*
X002353Y002720D01*
X002394Y002770D01*
X002439Y002816D01*
X002488Y002858D01*
X002541Y002895D01*
X002597Y002928D01*
X002655Y002955D01*
X002716Y002976D01*
X002779Y002992D01*
X002842Y003002D01*
X002907Y003007D01*
X002971Y003005D01*
X003036Y002998D01*
X003099Y002985D01*
X003160Y002966D01*
X003220Y002942D01*
X003277Y002912D01*
X003332Y002877D01*
X003383Y002838D01*
X003430Y002794D01*
X003473Y002745D01*
X003511Y002694D01*
X003545Y002638D01*
X003573Y002580D01*
X003596Y002520D01*
X003614Y002458D01*
X003625Y002395D01*
X003631Y002330D01*
X003631Y002266D01*
X003625Y002201D01*
X003614Y002138D01*
X003596Y002076D01*
X003573Y002016D01*
X003545Y001958D01*
X003511Y001902D01*
X003473Y001851D01*
X003430Y001802D01*
X003383Y001758D01*
X003332Y001719D01*
X003278Y001684D01*
X003220Y001654D01*
X003160Y001630D01*
X003099Y001611D01*
X003036Y001598D01*
X002971Y001591D01*
X002907Y001589D01*
X002842Y001594D01*
X002779Y001604D01*
X002716Y001620D01*
X002655Y001641D01*
X002597Y001668D01*
X002541Y001701D01*
X002488Y001738D01*
X002439Y001780D01*
X002394Y001826D01*
X002353Y001876D01*
X002317Y001930D01*
X002286Y001986D01*
X002261Y002045D01*
X002240Y002107D01*
X002226Y002170D01*
X002217Y002234D01*
X002214Y002298D01*
X002551Y006363D02*
X002554Y006426D01*
X002562Y006488D01*
X002577Y006549D01*
X002596Y006608D01*
X002621Y006666D01*
X002651Y006721D01*
X002686Y006773D01*
X002726Y006822D01*
X002770Y006867D01*
X002817Y006907D01*
X002869Y006943D01*
X002923Y006975D01*
X002980Y007001D01*
X003039Y007022D01*
X003100Y007038D01*
X003162Y007048D01*
X003224Y007052D01*
X003287Y007050D01*
X003349Y007043D01*
X003411Y007031D01*
X003471Y007012D01*
X003529Y006989D01*
X003584Y006960D01*
X003637Y006926D01*
X003687Y006887D01*
X003733Y006845D01*
X003774Y006798D01*
X003812Y006747D01*
X003844Y006694D01*
X003872Y006637D01*
X003894Y006579D01*
X003911Y006519D01*
X003923Y006457D01*
X003928Y006394D01*
X003928Y006332D01*
X003923Y006269D01*
X003911Y006207D01*
X003894Y006147D01*
X003872Y006089D01*
X003844Y006032D01*
X003812Y005979D01*
X003774Y005928D01*
X003733Y005881D01*
X003687Y005839D01*
X003637Y005800D01*
X003585Y005766D01*
X003529Y005737D01*
X003471Y005714D01*
X003411Y005695D01*
X003349Y005683D01*
X003287Y005676D01*
X003224Y005674D01*
X003162Y005678D01*
X003100Y005688D01*
X003039Y005704D01*
X002980Y005725D01*
X002923Y005751D01*
X002869Y005783D01*
X002817Y005819D01*
X002770Y005859D01*
X002726Y005904D01*
X002686Y005953D01*
X002651Y006005D01*
X002621Y006060D01*
X002596Y006118D01*
X002577Y006177D01*
X002562Y006238D01*
X002554Y006300D01*
X002551Y006363D01*
X002537Y008487D02*
X002540Y008550D01*
X002548Y008612D01*
X002563Y008673D01*
X002582Y008732D01*
X002607Y008790D01*
X002637Y008845D01*
X002672Y008897D01*
X002712Y008946D01*
X002756Y008991D01*
X002803Y009031D01*
X002855Y009067D01*
X002909Y009099D01*
X002966Y009125D01*
X003025Y009146D01*
X003086Y009162D01*
X003148Y009172D01*
X003210Y009176D01*
X003273Y009174D01*
X003335Y009167D01*
X003397Y009155D01*
X003457Y009136D01*
X003515Y009113D01*
X003570Y009084D01*
X003623Y009050D01*
X003673Y009011D01*
X003719Y008969D01*
X003760Y008922D01*
X003798Y008871D01*
X003830Y008818D01*
X003858Y008761D01*
X003880Y008703D01*
X003897Y008643D01*
X003909Y008581D01*
X003914Y008518D01*
X003914Y008456D01*
X003909Y008393D01*
X003897Y008331D01*
X003880Y008271D01*
X003858Y008213D01*
X003830Y008156D01*
X003798Y008103D01*
X003760Y008052D01*
X003719Y008005D01*
X003673Y007963D01*
X003623Y007924D01*
X003571Y007890D01*
X003515Y007861D01*
X003457Y007838D01*
X003397Y007819D01*
X003335Y007807D01*
X003273Y007800D01*
X003210Y007798D01*
X003148Y007802D01*
X003086Y007812D01*
X003025Y007828D01*
X002966Y007849D01*
X002909Y007875D01*
X002855Y007907D01*
X002803Y007943D01*
X002756Y007983D01*
X002712Y008028D01*
X002672Y008077D01*
X002637Y008129D01*
X002607Y008184D01*
X002582Y008242D01*
X002563Y008301D01*
X002548Y008362D01*
X002540Y008424D01*
X002537Y008487D01*
X002266Y017090D02*
X002269Y017154D01*
X002278Y017218D01*
X002292Y017281D01*
X002313Y017343D01*
X002338Y017402D01*
X002369Y017458D01*
X002405Y017512D01*
X002446Y017562D01*
X002491Y017608D01*
X002540Y017650D01*
X002593Y017687D01*
X002649Y017720D01*
X002707Y017747D01*
X002768Y017768D01*
X002831Y017784D01*
X002894Y017794D01*
X002959Y017799D01*
X003023Y017797D01*
X003088Y017790D01*
X003151Y017777D01*
X003212Y017758D01*
X003272Y017734D01*
X003329Y017704D01*
X003384Y017669D01*
X003435Y017630D01*
X003482Y017586D01*
X003525Y017537D01*
X003563Y017486D01*
X003597Y017430D01*
X003625Y017372D01*
X003648Y017312D01*
X003666Y017250D01*
X003677Y017187D01*
X003683Y017122D01*
X003683Y017058D01*
X003677Y016993D01*
X003666Y016930D01*
X003648Y016868D01*
X003625Y016808D01*
X003597Y016750D01*
X003563Y016694D01*
X003525Y016643D01*
X003482Y016594D01*
X003435Y016550D01*
X003384Y016511D01*
X003330Y016476D01*
X003272Y016446D01*
X003212Y016422D01*
X003151Y016403D01*
X003088Y016390D01*
X003023Y016383D01*
X002959Y016381D01*
X002894Y016386D01*
X002831Y016396D01*
X002768Y016412D01*
X002707Y016433D01*
X002649Y016460D01*
X002593Y016493D01*
X002540Y016530D01*
X002491Y016572D01*
X002446Y016618D01*
X002405Y016668D01*
X002369Y016722D01*
X002338Y016778D01*
X002313Y016837D01*
X002292Y016899D01*
X002278Y016962D01*
X002269Y017026D01*
X002266Y017090D01*
X005954Y017526D02*
X005956Y017562D01*
X005962Y017597D01*
X005972Y017632D01*
X005986Y017665D01*
X006004Y017696D01*
X006025Y017725D01*
X006049Y017752D01*
X006077Y017775D01*
X006106Y017796D01*
X006138Y017813D01*
X006172Y017826D01*
X006206Y017835D01*
X006242Y017840D01*
X006278Y017841D01*
X006314Y017838D01*
X006349Y017831D01*
X006383Y017820D01*
X006416Y017805D01*
X006447Y017786D01*
X006475Y017764D01*
X006501Y017739D01*
X006524Y017711D01*
X006543Y017681D01*
X006559Y017649D01*
X006571Y017615D01*
X006579Y017580D01*
X006583Y017544D01*
X006583Y017508D01*
X006579Y017472D01*
X006571Y017437D01*
X006559Y017403D01*
X006543Y017371D01*
X006524Y017341D01*
X006501Y017313D01*
X006475Y017288D01*
X006447Y017266D01*
X006416Y017247D01*
X006383Y017232D01*
X006349Y017221D01*
X006314Y017214D01*
X006278Y017211D01*
X006242Y017212D01*
X006206Y017217D01*
X006172Y017226D01*
X006138Y017239D01*
X006106Y017256D01*
X006077Y017277D01*
X006049Y017300D01*
X006025Y017327D01*
X006004Y017356D01*
X005986Y017387D01*
X005972Y017420D01*
X005962Y017455D01*
X005956Y017490D01*
X005954Y017526D01*
X007023Y017575D02*
X007025Y017611D01*
X007031Y017646D01*
X007041Y017681D01*
X007055Y017714D01*
X007073Y017745D01*
X007094Y017774D01*
X007118Y017801D01*
X007146Y017824D01*
X007175Y017845D01*
X007207Y017862D01*
X007241Y017875D01*
X007275Y017884D01*
X007311Y017889D01*
X007347Y017890D01*
X007383Y017887D01*
X007418Y017880D01*
X007452Y017869D01*
X007485Y017854D01*
X007516Y017835D01*
X007544Y017813D01*
X007570Y017788D01*
X007593Y017760D01*
X007612Y017730D01*
X007628Y017698D01*
X007640Y017664D01*
X007648Y017629D01*
X007652Y017593D01*
X007652Y017557D01*
X007648Y017521D01*
X007640Y017486D01*
X007628Y017452D01*
X007612Y017420D01*
X007593Y017390D01*
X007570Y017362D01*
X007544Y017337D01*
X007516Y017315D01*
X007485Y017296D01*
X007452Y017281D01*
X007418Y017270D01*
X007383Y017263D01*
X007347Y017260D01*
X007311Y017261D01*
X007275Y017266D01*
X007241Y017275D01*
X007207Y017288D01*
X007175Y017305D01*
X007146Y017326D01*
X007118Y017349D01*
X007094Y017376D01*
X007073Y017405D01*
X007055Y017436D01*
X007041Y017469D01*
X007031Y017504D01*
X007025Y017539D01*
X007023Y017575D01*
X008142Y017609D02*
X008144Y017645D01*
X008150Y017680D01*
X008160Y017715D01*
X008174Y017748D01*
X008192Y017779D01*
X008213Y017808D01*
X008237Y017835D01*
X008265Y017858D01*
X008294Y017879D01*
X008326Y017896D01*
X008360Y017909D01*
X008394Y017918D01*
X008430Y017923D01*
X008466Y017924D01*
X008502Y017921D01*
X008537Y017914D01*
X008571Y017903D01*
X008604Y017888D01*
X008635Y017869D01*
X008663Y017847D01*
X008689Y017822D01*
X008712Y017794D01*
X008731Y017764D01*
X008747Y017732D01*
X008759Y017698D01*
X008767Y017663D01*
X008771Y017627D01*
X008771Y017591D01*
X008767Y017555D01*
X008759Y017520D01*
X008747Y017486D01*
X008731Y017454D01*
X008712Y017424D01*
X008689Y017396D01*
X008663Y017371D01*
X008635Y017349D01*
X008604Y017330D01*
X008571Y017315D01*
X008537Y017304D01*
X008502Y017297D01*
X008466Y017294D01*
X008430Y017295D01*
X008394Y017300D01*
X008360Y017309D01*
X008326Y017322D01*
X008294Y017339D01*
X008265Y017360D01*
X008237Y017383D01*
X008213Y017410D01*
X008192Y017439D01*
X008174Y017470D01*
X008160Y017503D01*
X008150Y017538D01*
X008144Y017573D01*
X008142Y017609D01*
X023368Y017090D02*
X023371Y017154D01*
X023380Y017218D01*
X023394Y017281D01*
X023415Y017343D01*
X023440Y017402D01*
X023471Y017458D01*
X023507Y017512D01*
X023548Y017562D01*
X023593Y017608D01*
X023642Y017650D01*
X023695Y017687D01*
X023751Y017720D01*
X023809Y017747D01*
X023870Y017768D01*
X023933Y017784D01*
X023996Y017794D01*
X024061Y017799D01*
X024125Y017797D01*
X024190Y017790D01*
X024253Y017777D01*
X024314Y017758D01*
X024374Y017734D01*
X024431Y017704D01*
X024486Y017669D01*
X024537Y017630D01*
X024584Y017586D01*
X024627Y017537D01*
X024665Y017486D01*
X024699Y017430D01*
X024727Y017372D01*
X024750Y017312D01*
X024768Y017250D01*
X024779Y017187D01*
X024785Y017122D01*
X024785Y017058D01*
X024779Y016993D01*
X024768Y016930D01*
X024750Y016868D01*
X024727Y016808D01*
X024699Y016750D01*
X024665Y016694D01*
X024627Y016643D01*
X024584Y016594D01*
X024537Y016550D01*
X024486Y016511D01*
X024432Y016476D01*
X024374Y016446D01*
X024314Y016422D01*
X024253Y016403D01*
X024190Y016390D01*
X024125Y016383D01*
X024061Y016381D01*
X023996Y016386D01*
X023933Y016396D01*
X023870Y016412D01*
X023809Y016433D01*
X023751Y016460D01*
X023695Y016493D01*
X023642Y016530D01*
X023593Y016572D01*
X023548Y016618D01*
X023507Y016668D01*
X023471Y016722D01*
X023440Y016778D01*
X023415Y016837D01*
X023394Y016899D01*
X023380Y016962D01*
X023371Y017026D01*
X023368Y017090D01*
X021855Y004268D02*
X021858Y004331D01*
X021866Y004393D01*
X021881Y004454D01*
X021900Y004513D01*
X021925Y004571D01*
X021955Y004626D01*
X021990Y004678D01*
X022030Y004727D01*
X022074Y004772D01*
X022121Y004812D01*
X022173Y004848D01*
X022227Y004880D01*
X022284Y004906D01*
X022343Y004927D01*
X022404Y004943D01*
X022466Y004953D01*
X022528Y004957D01*
X022591Y004955D01*
X022653Y004948D01*
X022715Y004936D01*
X022775Y004917D01*
X022833Y004894D01*
X022888Y004865D01*
X022941Y004831D01*
X022991Y004792D01*
X023037Y004750D01*
X023078Y004703D01*
X023116Y004652D01*
X023148Y004599D01*
X023176Y004542D01*
X023198Y004484D01*
X023215Y004424D01*
X023227Y004362D01*
X023232Y004299D01*
X023232Y004237D01*
X023227Y004174D01*
X023215Y004112D01*
X023198Y004052D01*
X023176Y003994D01*
X023148Y003937D01*
X023116Y003884D01*
X023078Y003833D01*
X023037Y003786D01*
X022991Y003744D01*
X022941Y003705D01*
X022889Y003671D01*
X022833Y003642D01*
X022775Y003619D01*
X022715Y003600D01*
X022653Y003588D01*
X022591Y003581D01*
X022528Y003579D01*
X022466Y003583D01*
X022404Y003593D01*
X022343Y003609D01*
X022284Y003630D01*
X022227Y003656D01*
X022173Y003688D01*
X022121Y003724D01*
X022074Y003764D01*
X022030Y003809D01*
X021990Y003858D01*
X021955Y003910D01*
X021925Y003965D01*
X021900Y004023D01*
X021881Y004082D01*
X021866Y004143D01*
X021858Y004205D01*
X021855Y004268D01*
X019441Y002424D02*
X019444Y002487D01*
X019452Y002549D01*
X019467Y002610D01*
X019486Y002669D01*
X019511Y002727D01*
X019541Y002782D01*
X019576Y002834D01*
X019616Y002883D01*
X019660Y002928D01*
X019707Y002968D01*
X019759Y003004D01*
X019813Y003036D01*
X019870Y003062D01*
X019929Y003083D01*
X019990Y003099D01*
X020052Y003109D01*
X020114Y003113D01*
X020177Y003111D01*
X020239Y003104D01*
X020301Y003092D01*
X020361Y003073D01*
X020419Y003050D01*
X020474Y003021D01*
X020527Y002987D01*
X020577Y002948D01*
X020623Y002906D01*
X020664Y002859D01*
X020702Y002808D01*
X020734Y002755D01*
X020762Y002698D01*
X020784Y002640D01*
X020801Y002580D01*
X020813Y002518D01*
X020818Y002455D01*
X020818Y002393D01*
X020813Y002330D01*
X020801Y002268D01*
X020784Y002208D01*
X020762Y002150D01*
X020734Y002093D01*
X020702Y002040D01*
X020664Y001989D01*
X020623Y001942D01*
X020577Y001900D01*
X020527Y001861D01*
X020475Y001827D01*
X020419Y001798D01*
X020361Y001775D01*
X020301Y001756D01*
X020239Y001744D01*
X020177Y001737D01*
X020114Y001735D01*
X020052Y001739D01*
X019990Y001749D01*
X019929Y001765D01*
X019870Y001786D01*
X019813Y001812D01*
X019759Y001844D01*
X019707Y001880D01*
X019660Y001920D01*
X019616Y001965D01*
X019576Y002014D01*
X019541Y002066D01*
X019511Y002121D01*
X019486Y002179D01*
X019467Y002238D01*
X019452Y002299D01*
X019444Y002361D01*
X019441Y002424D01*
X023316Y002298D02*
X023319Y002362D01*
X023328Y002426D01*
X023342Y002489D01*
X023363Y002551D01*
X023388Y002610D01*
X023419Y002666D01*
X023455Y002720D01*
X023496Y002770D01*
X023541Y002816D01*
X023590Y002858D01*
X023643Y002895D01*
X023699Y002928D01*
X023757Y002955D01*
X023818Y002976D01*
X023881Y002992D01*
X023944Y003002D01*
X024009Y003007D01*
X024073Y003005D01*
X024138Y002998D01*
X024201Y002985D01*
X024262Y002966D01*
X024322Y002942D01*
X024379Y002912D01*
X024434Y002877D01*
X024485Y002838D01*
X024532Y002794D01*
X024575Y002745D01*
X024613Y002694D01*
X024647Y002638D01*
X024675Y002580D01*
X024698Y002520D01*
X024716Y002458D01*
X024727Y002395D01*
X024733Y002330D01*
X024733Y002266D01*
X024727Y002201D01*
X024716Y002138D01*
X024698Y002076D01*
X024675Y002016D01*
X024647Y001958D01*
X024613Y001902D01*
X024575Y001851D01*
X024532Y001802D01*
X024485Y001758D01*
X024434Y001719D01*
X024380Y001684D01*
X024322Y001654D01*
X024262Y001630D01*
X024201Y001611D01*
X024138Y001598D01*
X024073Y001591D01*
X024009Y001589D01*
X023944Y001594D01*
X023881Y001604D01*
X023818Y001620D01*
X023757Y001641D01*
X023699Y001668D01*
X023643Y001701D01*
X023590Y001738D01*
X023541Y001780D01*
X023496Y001826D01*
X023455Y001876D01*
X023419Y001930D01*
X023388Y001986D01*
X023363Y002045D01*
X023342Y002107D01*
X023328Y002170D01*
X023319Y002234D01*
X023316Y002298D01*
D11*
X020249Y005346D02*
X020056Y005346D01*
X020152Y005346D02*
X020152Y005636D01*
X020249Y005539D01*
X020350Y005491D02*
X020544Y005491D01*
X019954Y005587D02*
X019906Y005636D01*
X019809Y005636D01*
X019761Y005587D01*
X019761Y005539D01*
X019954Y005346D01*
X019761Y005346D01*
X019660Y005442D02*
X019563Y005346D01*
X019466Y005442D01*
X019466Y005636D01*
X019660Y005636D02*
X019660Y005442D01*
X016239Y005806D02*
X016239Y005951D01*
X016191Y005999D01*
X016094Y005999D01*
X016046Y005951D01*
X016046Y005806D01*
X016046Y005902D02*
X015949Y005999D01*
X015997Y006100D02*
X015949Y006149D01*
X015949Y006245D01*
X015997Y006294D01*
X016046Y006294D01*
X016094Y006245D01*
X016094Y006100D01*
X015997Y006100D01*
X016094Y006100D02*
X016191Y006197D01*
X016239Y006294D01*
X016239Y005806D02*
X015949Y005806D01*
X013605Y008385D02*
X013605Y008675D01*
X013460Y008675D01*
X013411Y008626D01*
X013411Y008530D01*
X013460Y008481D01*
X013605Y008481D01*
X013508Y008481D02*
X013411Y008385D01*
X013310Y008385D02*
X013310Y008433D01*
X013117Y008626D01*
X013117Y008675D01*
X013310Y008675D01*
X010470Y007831D02*
X010470Y007541D01*
X010325Y007541D01*
X010277Y007589D01*
X010277Y007783D01*
X010325Y007831D01*
X010470Y007831D01*
X010176Y007783D02*
X010176Y007734D01*
X010127Y007686D01*
X009982Y007686D01*
X009982Y007589D02*
X009982Y007783D01*
X010031Y007831D01*
X010127Y007831D01*
X010176Y007783D01*
X010176Y007589D02*
X010127Y007541D01*
X010031Y007541D01*
X009982Y007589D01*
X006276Y009569D02*
X006083Y009569D01*
X005982Y009617D02*
X005885Y009714D01*
X005885Y009424D01*
X005982Y009424D02*
X005788Y009424D01*
X005687Y009424D02*
X005494Y009617D01*
X005494Y009666D01*
X005542Y009714D01*
X005639Y009714D01*
X005687Y009666D01*
X005687Y009424D02*
X005494Y009424D01*
X005392Y009521D02*
X005296Y009424D01*
X005199Y009521D01*
X005199Y009714D01*
X005392Y009714D02*
X005392Y009521D01*
X006180Y009472D02*
X006180Y009666D01*
X003586Y012504D02*
X003489Y012504D01*
X003441Y012552D01*
X003441Y012649D01*
X003537Y012649D01*
X003441Y012745D02*
X003489Y012794D01*
X003586Y012794D01*
X003634Y012745D01*
X003634Y012552D01*
X003586Y012504D01*
X003340Y012504D02*
X003340Y012794D01*
X003146Y012504D01*
X003146Y012794D01*
X003045Y012794D02*
X002900Y012794D01*
X002851Y012745D01*
X002851Y012552D01*
X002900Y012504D01*
X003045Y012504D01*
X003045Y012794D01*
X002750Y012697D02*
X002654Y012794D01*
X002557Y012697D01*
X002557Y012504D01*
X002557Y012649D02*
X002750Y012649D01*
X002750Y012697D02*
X002750Y012504D01*
X005807Y014876D02*
X005807Y015070D01*
X005855Y015118D01*
X006000Y015118D01*
X006000Y014828D01*
X005855Y014828D01*
X005807Y014876D01*
X006102Y014828D02*
X006102Y015118D01*
X006295Y015118D02*
X006102Y014828D01*
X006295Y014828D02*
X006295Y015118D01*
X006396Y015070D02*
X006445Y015118D01*
X006541Y015118D01*
X006590Y015070D01*
X006590Y014876D01*
X006541Y014828D01*
X006445Y014828D01*
X006396Y014876D01*
X006396Y014973D01*
X006493Y014973D01*
X006955Y014994D02*
X007052Y014994D01*
X006955Y014994D02*
X006955Y014897D01*
X007004Y014849D01*
X007100Y014849D01*
X007149Y014897D01*
X007149Y015091D01*
X007100Y015139D01*
X007004Y015139D01*
X006955Y015091D01*
X007248Y015139D02*
X007345Y015139D01*
X007297Y015139D02*
X007297Y014849D01*
X007345Y014849D02*
X007248Y014849D01*
X007446Y014897D02*
X007495Y014849D01*
X007591Y014849D01*
X007640Y014897D01*
X007591Y014994D02*
X007495Y014994D01*
X007446Y014946D01*
X007446Y014897D01*
X007591Y014994D02*
X007640Y015042D01*
X007640Y015091D01*
X007591Y015139D01*
X007495Y015139D01*
X007446Y015091D01*
X008035Y015129D02*
X008035Y014935D01*
X008131Y014839D01*
X008228Y014935D01*
X008228Y015129D01*
X008329Y015129D02*
X008523Y015129D01*
X008523Y014984D01*
X008426Y015032D01*
X008378Y015032D01*
X008329Y014984D01*
X008329Y014887D01*
X008378Y014839D01*
X008474Y014839D01*
X008523Y014887D01*
X008624Y014984D02*
X008817Y014984D01*
X008721Y015080D02*
X008721Y014887D01*
X009721Y014926D02*
X009915Y014732D01*
X010016Y014732D02*
X010016Y014926D01*
X009915Y014926D02*
X009721Y014732D01*
X010016Y014732D02*
X010161Y014732D01*
X010209Y014781D01*
X010209Y014926D01*
X010310Y014877D02*
X010310Y014732D01*
X010456Y014732D01*
X010504Y014781D01*
X010456Y014829D01*
X010310Y014829D01*
X010310Y014877D02*
X010359Y014926D01*
X010456Y014926D01*
X010449Y015173D02*
X010449Y015367D01*
X010353Y015270D02*
X010546Y015270D01*
X010251Y015270D02*
X010251Y015415D01*
X010058Y015415D01*
X009957Y015415D02*
X009957Y015221D01*
X009860Y015125D01*
X009763Y015221D01*
X009763Y015415D01*
X010058Y015270D02*
X010058Y015173D01*
X010106Y015125D01*
X010203Y015125D01*
X010251Y015173D01*
X010251Y015270D02*
X010155Y015318D01*
X010106Y015318D01*
X010058Y015270D01*
X012507Y017249D02*
X012507Y017539D01*
X012652Y017394D01*
X012459Y017394D01*
X012753Y017298D02*
X012802Y017249D01*
X012898Y017249D01*
X012947Y017298D01*
X012947Y017491D01*
X012898Y017539D01*
X012802Y017539D01*
X012753Y017491D01*
X013875Y017474D02*
X013923Y017425D01*
X013875Y017474D02*
X013875Y017570D01*
X013923Y017619D01*
X013971Y017619D01*
X014020Y017570D01*
X014020Y017474D01*
X014068Y017425D01*
X014116Y017425D01*
X014165Y017474D01*
X014165Y017570D01*
X014116Y017619D01*
X014116Y017720D02*
X013923Y017720D01*
X013875Y017768D01*
X013875Y017865D01*
X013923Y017913D01*
X014116Y017913D01*
X014165Y017865D01*
X014165Y017768D01*
X014116Y017720D01*
X014165Y017326D02*
X014165Y017229D01*
X014165Y017277D02*
X013875Y017277D01*
X013875Y017229D02*
X013875Y017326D01*
X013971Y017128D02*
X014165Y017128D01*
X013971Y017128D02*
X013875Y017031D01*
X013971Y016934D01*
X014165Y016934D01*
X014116Y016833D02*
X014165Y016785D01*
X014165Y016688D01*
X014116Y016639D01*
X014116Y016833D02*
X014068Y016833D01*
X013875Y016639D01*
X013875Y016833D01*
X013875Y016538D02*
X013875Y016345D01*
X013875Y016442D02*
X014165Y016442D01*
X014068Y016345D01*
X014020Y016244D02*
X014020Y016050D01*
X014116Y016147D02*
X013923Y016147D01*
X014989Y016579D02*
X014989Y016676D01*
X015038Y016724D01*
X015135Y016724D01*
X015135Y016627D01*
X015231Y016530D02*
X015038Y016530D01*
X014989Y016579D01*
X014989Y016825D02*
X015280Y016825D01*
X014989Y017019D01*
X015280Y017019D01*
X015280Y017120D02*
X014989Y017120D01*
X014989Y017265D01*
X015038Y017313D01*
X015231Y017313D01*
X015280Y017265D01*
X015280Y017120D01*
X015183Y017414D02*
X014989Y017414D01*
X015135Y017414D02*
X015135Y017608D01*
X015183Y017608D02*
X014989Y017608D01*
X015183Y017608D02*
X015280Y017511D01*
X015183Y017414D01*
X015231Y016724D02*
X015280Y016676D01*
X015280Y016579D01*
X015231Y016530D01*
X017979Y014971D02*
X018366Y014971D01*
X018318Y014923D02*
X018318Y015020D01*
X018269Y015068D01*
X018172Y015020D02*
X018172Y014923D01*
X018221Y014874D01*
X018269Y014874D01*
X018318Y014923D01*
X018318Y014773D02*
X018076Y014773D01*
X018027Y014725D01*
X018027Y014628D01*
X018076Y014580D01*
X018318Y014580D01*
X018076Y014874D02*
X018027Y014923D01*
X018027Y015020D01*
X018076Y015068D01*
X018124Y015068D01*
X018172Y015020D01*
X018172Y015169D02*
X018172Y015363D01*
X018027Y015314D02*
X018318Y015314D01*
X018172Y015169D01*
X016215Y013906D02*
X016166Y013954D01*
X016118Y013954D01*
X016070Y013906D01*
X016021Y013954D01*
X015973Y013954D01*
X015924Y013906D01*
X015924Y013809D01*
X015973Y013761D01*
X015973Y013660D02*
X015924Y013611D01*
X015924Y013514D01*
X015973Y013466D01*
X016166Y013466D01*
X016215Y013514D01*
X016215Y013611D01*
X016166Y013660D01*
X016166Y013761D02*
X016215Y013809D01*
X016215Y013906D01*
X016070Y013906D02*
X016070Y013857D01*
X013998Y013337D02*
X013998Y013241D01*
X013949Y013192D01*
X013949Y013091D02*
X013756Y012898D01*
X013708Y012946D01*
X013708Y013043D01*
X013756Y013091D01*
X013949Y013091D01*
X013998Y013043D01*
X013998Y012946D01*
X013949Y012898D01*
X013756Y012898D01*
X013708Y012796D02*
X013708Y012603D01*
X013708Y012700D02*
X013998Y012700D01*
X013901Y012603D01*
X013853Y012502D02*
X013804Y012453D01*
X013804Y012308D01*
X013708Y012308D02*
X013998Y012308D01*
X013998Y012453D01*
X013949Y012502D01*
X013853Y012502D01*
X013804Y012405D02*
X013708Y012502D01*
X013708Y013192D02*
X013901Y013386D01*
X013949Y013386D01*
X013998Y013337D01*
X013708Y013386D02*
X013708Y013192D01*
X017118Y011884D02*
X017166Y011932D01*
X017214Y011932D01*
X017263Y011884D01*
X017263Y011739D01*
X017166Y011739D01*
X017118Y011787D01*
X017118Y011884D01*
X017263Y011739D02*
X017360Y011835D01*
X017408Y011932D01*
X017360Y011638D02*
X017408Y011589D01*
X017408Y011492D01*
X017360Y011444D01*
X017166Y011444D01*
X017118Y011492D01*
X017118Y011589D01*
X017166Y011638D01*
X017539Y010897D02*
X017684Y010752D01*
X017491Y010752D01*
X017539Y010607D02*
X017539Y010897D01*
X017882Y010897D02*
X017882Y010607D01*
X017786Y010607D02*
X017979Y010607D01*
X018080Y010607D02*
X018177Y010703D01*
X018129Y010703D02*
X018274Y010703D01*
X018274Y010607D02*
X018274Y010897D01*
X018129Y010897D01*
X018080Y010849D01*
X018080Y010752D01*
X018129Y010703D01*
X017979Y010800D02*
X017882Y010897D01*
X017825Y009857D02*
X017825Y009567D01*
X017922Y009567D02*
X017728Y009567D01*
X017627Y009567D02*
X017434Y009567D01*
X017530Y009567D02*
X017530Y009857D01*
X017627Y009760D01*
X017825Y009857D02*
X017922Y009760D01*
X018023Y009712D02*
X018023Y009809D01*
X018071Y009857D01*
X018216Y009857D01*
X018216Y009567D01*
X018216Y009664D02*
X018071Y009664D01*
X018023Y009712D01*
X018120Y009664D02*
X018023Y009567D01*
X018929Y009315D02*
X019074Y009170D01*
X018881Y009170D01*
X018929Y009025D02*
X018929Y009315D01*
X019175Y009267D02*
X019175Y009170D01*
X019224Y009122D01*
X019369Y009122D01*
X019369Y009025D02*
X019369Y009315D01*
X019224Y009315D01*
X019175Y009267D01*
X019272Y009122D02*
X019175Y009025D01*
X019976Y008430D02*
X019976Y008139D01*
X020072Y008139D02*
X019879Y008139D01*
X020072Y008333D02*
X019976Y008430D01*
X020174Y008381D02*
X020222Y008430D01*
X020319Y008430D01*
X020367Y008381D01*
X020367Y008333D01*
X020319Y008284D01*
X020222Y008284D01*
X020174Y008236D01*
X020174Y008188D01*
X020222Y008139D01*
X020319Y008139D01*
X020367Y008188D01*
X020468Y008188D02*
X020468Y008430D01*
X020662Y008430D02*
X020662Y008188D01*
X020613Y008139D01*
X020517Y008139D01*
X020468Y008188D01*
X020270Y008091D02*
X020270Y008478D01*
X023280Y007361D02*
X023280Y007167D01*
X023376Y007070D01*
X023473Y007167D01*
X023473Y007361D01*
X023574Y007312D02*
X023623Y007361D01*
X023719Y007361D01*
X023768Y007312D01*
X023574Y007312D02*
X023574Y007264D01*
X023768Y007070D01*
X023574Y007070D01*
X023869Y007070D02*
X024062Y007070D01*
X023966Y007070D02*
X023966Y007361D01*
X024062Y007264D01*
X024164Y007216D02*
X024357Y007216D01*
X024260Y007312D02*
X024260Y007119D01*
X023724Y011137D02*
X023434Y011137D01*
X023530Y011137D02*
X023530Y011282D01*
X023579Y011331D01*
X023675Y011331D01*
X023724Y011282D01*
X023724Y011137D01*
X023530Y011234D02*
X023434Y011331D01*
X023482Y011432D02*
X023434Y011480D01*
X023434Y011577D01*
X023482Y011625D01*
X023579Y011625D01*
X023627Y011577D01*
X023627Y011529D01*
X023579Y011432D01*
X023724Y011432D01*
X023724Y011625D01*
X023964Y015265D02*
X023964Y015458D01*
X024060Y015555D01*
X024157Y015458D01*
X024157Y015265D01*
X024258Y015313D02*
X024258Y015507D01*
X024306Y015555D01*
X024452Y015555D01*
X024452Y015265D01*
X024306Y015265D01*
X024258Y015313D01*
X024157Y015410D02*
X023964Y015410D01*
X024553Y015265D02*
X024553Y015555D01*
X024746Y015555D02*
X024553Y015265D01*
X024746Y015265D02*
X024746Y015555D01*
X024847Y015507D02*
X024896Y015555D01*
X024993Y015555D01*
X025041Y015507D01*
X025041Y015313D01*
X024993Y015265D01*
X024896Y015265D01*
X024847Y015313D01*
X024847Y015410D01*
X024944Y015410D01*
X018842Y012614D02*
X018842Y012517D01*
X018794Y012469D01*
X018794Y012368D02*
X018842Y012319D01*
X018842Y012223D01*
X018794Y012174D01*
X018601Y012174D01*
X018552Y012223D01*
X018552Y012319D01*
X018601Y012368D01*
X018552Y012469D02*
X018746Y012662D01*
X018794Y012662D01*
X018842Y012614D01*
X018552Y012662D02*
X018552Y012469D01*
X018552Y012075D02*
X018552Y011978D01*
X018552Y012026D02*
X018842Y012026D01*
X018842Y011978D02*
X018842Y012075D01*
X010243Y012029D02*
X010243Y011933D01*
X010195Y011884D01*
X010001Y011884D01*
X009953Y011933D01*
X009953Y012029D01*
X010001Y012078D01*
X010001Y012179D02*
X009953Y012227D01*
X009953Y012324D01*
X010001Y012372D01*
X010098Y012372D01*
X010146Y012324D01*
X010146Y012276D01*
X010098Y012179D01*
X010243Y012179D01*
X010243Y012372D01*
X010195Y012078D02*
X010243Y012029D01*
X005458Y015605D02*
X005458Y015895D01*
X005313Y015895D01*
X005265Y015847D01*
X005265Y015750D01*
X005313Y015702D01*
X005458Y015702D01*
X005361Y015702D02*
X005265Y015605D01*
X005164Y015654D02*
X005164Y015702D01*
X005115Y015750D01*
X005018Y015750D01*
X004970Y015702D01*
X004970Y015654D01*
X005018Y015605D01*
X005115Y015605D01*
X005164Y015654D01*
X005115Y015750D02*
X005164Y015799D01*
X005164Y015847D01*
X005115Y015895D01*
X005018Y015895D01*
X004970Y015847D01*
X004970Y015799D01*
X005018Y015750D01*
X004430Y015763D02*
X004139Y015957D01*
X004430Y015957D01*
X004430Y016058D02*
X004430Y016203D01*
X004381Y016251D01*
X004188Y016251D01*
X004139Y016203D01*
X004139Y016058D01*
X004430Y016058D01*
X004430Y015763D02*
X004139Y015763D01*
X004188Y015662D02*
X004285Y015662D01*
X004285Y015565D01*
X004381Y015469D02*
X004188Y015469D01*
X004139Y015517D01*
X004139Y015614D01*
X004188Y015662D01*
X004381Y015662D02*
X004430Y015614D01*
X004430Y015517D01*
X004381Y015469D01*
X004285Y016352D02*
X004285Y016546D01*
X004381Y016647D02*
X004188Y016647D01*
X004139Y016695D01*
X004139Y016792D01*
X004188Y016841D01*
X004285Y016841D01*
X004285Y016744D01*
X004381Y016841D02*
X004430Y016792D01*
X004430Y016695D01*
X004381Y016647D01*
X004430Y016942D02*
X004139Y016942D01*
X004139Y017135D02*
X004430Y017135D01*
X004430Y017236D02*
X004430Y017381D01*
X004381Y017430D01*
X004188Y017430D01*
X004139Y017381D01*
X004139Y017236D01*
X004430Y017236D01*
X004430Y016942D02*
X004139Y017135D01*
X009615Y017804D02*
X009615Y017998D01*
X009663Y018046D01*
X009808Y018046D01*
X009808Y017756D01*
X009663Y017756D01*
X009615Y017804D01*
X009909Y017756D02*
X009909Y018046D01*
X010103Y018046D02*
X009909Y017756D01*
X010103Y017756D02*
X010103Y018046D01*
X010204Y017998D02*
X010252Y018046D01*
X010349Y018046D01*
X010398Y017998D01*
X010398Y017804D01*
X010349Y017756D01*
X010252Y017756D01*
X010204Y017804D01*
X010204Y017901D01*
X010301Y017901D01*
X006307Y005452D02*
X006307Y005162D01*
X006114Y005162D01*
X006012Y005211D02*
X005964Y005162D01*
X005867Y005162D01*
X005819Y005211D01*
X005819Y005404D01*
X005867Y005452D01*
X005964Y005452D01*
X006012Y005404D01*
X006012Y005211D01*
X005718Y005162D02*
X005718Y005356D01*
X005621Y005452D01*
X005524Y005356D01*
X005524Y005162D01*
X005423Y005162D02*
X005278Y005162D01*
X005230Y005211D01*
X005230Y005404D01*
X005278Y005452D01*
X005423Y005452D01*
X005423Y005162D01*
X005524Y005307D02*
X005718Y005307D01*
X006525Y002162D02*
X006718Y002162D01*
X006718Y001872D01*
X006525Y001872D01*
X006622Y002017D02*
X006718Y002017D01*
X006820Y002162D02*
X007013Y002162D01*
X006916Y002162D02*
X006916Y001872D01*
X007114Y001872D02*
X007114Y002065D01*
X007211Y002162D01*
X007308Y002065D01*
X007308Y001872D01*
X007409Y001920D02*
X007409Y002017D01*
X007506Y002017D01*
X007602Y001920D02*
X007554Y001872D01*
X007457Y001872D01*
X007409Y001920D01*
X007308Y002017D02*
X007114Y002017D01*
X007409Y002114D02*
X007457Y002162D01*
X007554Y002162D01*
X007602Y002114D01*
X007602Y001920D01*
X008312Y002232D02*
X008559Y001985D01*
X008559Y001924D01*
X008681Y002109D02*
X008927Y002109D01*
X009049Y002232D02*
X009296Y001985D01*
X009296Y001924D01*
X009417Y001985D02*
X009479Y001924D01*
X009602Y001924D01*
X009664Y001985D01*
X009417Y002232D01*
X009417Y001985D01*
X009664Y001985D02*
X009664Y002232D01*
X009602Y002294D01*
X009479Y002294D01*
X009417Y002232D01*
X009296Y002294D02*
X009049Y002294D01*
X009049Y002232D01*
X008559Y002294D02*
X008312Y002294D01*
X008312Y002232D01*
X009786Y002232D02*
X009786Y001985D01*
X009847Y001924D01*
X009971Y001924D01*
X010032Y001985D01*
X009786Y002232D01*
X009847Y002294D01*
X009971Y002294D01*
X010032Y002232D01*
X010032Y001985D01*
X010154Y001985D02*
X010216Y001924D01*
X010339Y001924D01*
X010401Y001985D01*
X010522Y001985D02*
X010584Y001924D01*
X010707Y001924D01*
X010769Y001985D01*
X010707Y002109D02*
X010769Y002170D01*
X010769Y002232D01*
X010707Y002294D01*
X010584Y002294D01*
X010522Y002232D01*
X010401Y002232D02*
X010339Y002294D01*
X010216Y002294D01*
X010154Y002232D01*
X010154Y002170D01*
X010216Y002109D01*
X010154Y002047D01*
X010154Y001985D01*
X010216Y002109D02*
X010277Y002109D01*
X010522Y002047D02*
X010522Y001985D01*
X010522Y002047D02*
X010584Y002109D01*
X010707Y002109D01*
X010890Y002294D02*
X011137Y002294D01*
X011137Y001924D01*
X011259Y001924D02*
X011382Y002047D01*
X011320Y002047D02*
X011506Y002047D01*
X011506Y001924D02*
X011506Y002294D01*
X011320Y002294D01*
X011259Y002232D01*
X011259Y002109D01*
X011320Y002047D01*
X011137Y002109D02*
X011014Y002109D01*
X011628Y002294D02*
X011751Y002294D01*
X011689Y002294D02*
X011689Y001924D01*
X011628Y001924D02*
X011751Y001924D01*
X011899Y001937D02*
X012045Y001937D01*
X012093Y001986D01*
X012093Y002034D01*
X012045Y002082D01*
X011948Y002082D01*
X011899Y002034D01*
X011899Y001840D01*
X011948Y001792D01*
X012045Y001792D01*
X012093Y001840D01*
X012194Y001792D02*
X012388Y001792D01*
X012194Y001986D01*
X012194Y002034D01*
X012242Y002082D01*
X012339Y002082D01*
X012388Y002034D01*
X012489Y002034D02*
X012537Y002082D01*
X012634Y002082D01*
X012682Y002034D01*
X012489Y002034D02*
X012489Y001986D01*
X012682Y001792D01*
X012489Y001792D01*
X012783Y001792D02*
X012977Y001792D01*
X012880Y001792D02*
X012880Y002082D01*
X012977Y001986D01*
X013078Y001986D02*
X013126Y001937D01*
X013078Y001889D01*
X013078Y001840D01*
X013126Y001792D01*
X013223Y001792D01*
X013271Y001840D01*
X013373Y001792D02*
X013566Y001792D01*
X013373Y001986D01*
X013373Y002034D01*
X013421Y002082D01*
X013518Y002082D01*
X013566Y002034D01*
X013496Y002197D02*
X013302Y002197D01*
X013399Y002197D02*
X013399Y002487D01*
X013496Y002390D01*
X013597Y002487D02*
X013790Y002487D01*
X013693Y002487D02*
X013693Y002197D01*
X013891Y002197D02*
X014085Y002197D01*
X014085Y002487D01*
X013891Y002487D01*
X013988Y002342D02*
X014085Y002342D01*
X014186Y002487D02*
X014379Y002487D01*
X014379Y002197D01*
X014379Y002342D02*
X014283Y002342D01*
X014261Y002041D02*
X014213Y001993D01*
X014213Y001944D01*
X014261Y001896D01*
X014213Y001847D01*
X014213Y001799D01*
X014261Y001751D01*
X014358Y001751D01*
X014406Y001799D01*
X014310Y001896D02*
X014261Y001896D01*
X014261Y002041D02*
X014358Y002041D01*
X014406Y001993D01*
X014508Y001944D02*
X014604Y001751D01*
X014701Y001944D01*
X014802Y001896D02*
X014996Y001896D01*
X015095Y001944D02*
X015192Y001944D01*
X015144Y001993D02*
X015144Y001799D01*
X015095Y001751D01*
X015293Y001847D02*
X015487Y001847D01*
X015487Y001799D02*
X015487Y001896D01*
X015439Y001944D01*
X015342Y001944D01*
X015293Y001896D01*
X015293Y001847D01*
X015342Y001751D02*
X015439Y001751D01*
X015487Y001799D01*
X015587Y001896D02*
X015683Y001896D01*
X015635Y001993D02*
X015587Y002041D01*
X015635Y001993D02*
X015635Y001751D01*
X015784Y001944D02*
X015832Y001944D01*
X015929Y001847D01*
X015929Y001751D02*
X015929Y001944D01*
X016030Y001944D02*
X016030Y001799D01*
X016078Y001751D01*
X016127Y001799D01*
X016175Y001751D01*
X016223Y001799D01*
X016223Y001944D01*
X016325Y001896D02*
X016325Y001799D01*
X016373Y001751D01*
X016518Y001751D01*
X016518Y001654D02*
X016518Y001944D01*
X016373Y001944D01*
X016325Y001896D01*
X013271Y002034D02*
X013223Y002082D01*
X013126Y002082D01*
X013078Y002034D01*
X013078Y001986D01*
X013126Y001937D02*
X013175Y001937D01*
X013201Y002197D02*
X013201Y002487D01*
X013201Y002342D02*
X013007Y002342D01*
X013007Y002487D02*
X013007Y002197D01*
X012906Y002197D02*
X012810Y002197D01*
X012858Y002197D02*
X012858Y002487D01*
X012906Y002487D02*
X012810Y002487D01*
M02*
